{
.appVersion = "919";
classes = (
{
automatic = 1;

glyphs = (
{
color = 10;
export = 0;
glyphname = .notdef;
layers = (
{
layerId = "5B4932CE-A79B-4666-BF39-F6F4657B0F77";
paths = (
{
closed = 1;
nodes = (
"80 637 LINE SMOOTH",
"80 682 OFFCURVE",
"110 682 OFFCURVE",
"124 682 CURVE SMOOTH",
"368 682 LINE SMOOTH",
"380 682 OFFCURVE",
"420 682 OFFCURVE",
"420 633 CURVE SMOOTH",
"420 81 LINE SMOOTH",
"420 32 OFFCURVE",
"380 32 OFFCURVE",
"368 32 CURVE SMOOTH",
"124 32 LINE SMOOTH",
"110 32 OFFCURVE",
"80 32 OFFCURVE",
"80 77 CURVE SMOOTH"
);
},
{
closed = 1;
nodes = (
"42 0 LINE",
"458 0 LINE",
"458 714 LINE",
"42 714 LINE"
);
}
);
width = 500;
}
);
note = .notdef;
},
{
color = 4;
glyphname = exclam;
layers = (
{
layerId = "5B4932CE-A79B-4666-BF39-F6F4657B0F77";
paths = (
{
closed = 1;
nodes = (
"56 14 OFFCURVE",
"82 -12 OFFCURVE",
"118 -12 CURVE SMOOTH",
"154 -12 OFFCURVE",
"180 14 OFFCURVE",
"180 50 CURVE SMOOTH",
"180 86 OFFCURVE",
"154 112 OFFCURVE",
"118 112 CURVE SMOOTH",
"82 112 OFFCURVE",
"56 86 OFFCURVE",
"56 50 CURVE SMOOTH"
);
},
{
closed = 1;
nodes = (
"130 158 LINE",
"154 158 LINE",
"224 346 LINE SMOOTH",
"236 380 OFFCURVE",
"252 417 OFFCURVE",
"268 454 CURVE SMOOTH",
"298 522 OFFCURVE",
"326 588 OFFCURVE",
"326 624 CURVE SMOOTH",
"326 667 OFFCURVE",
"309 694 OFFCURVE",
"274 694 CURVE SMOOTH",
"246 694 OFFCURVE",
"215 680 OFFCURVE",
"204 624 CURVE SMOOTH",
"196 582 OFFCURVE",
"190 538 OFFCURVE",
"185 493 CURVE SMOOTH",
"181 454 OFFCURVE",
"174 405 OFFCURVE",
"166 361 CURVE SMOOTH"
);
}
);
width = 280;
}
);
note = exclam;
unicode = 0021;
},
{
color = 4;
glyphname = quotedbl;
layers = (
{
layerId = "5B4932CE-A79B-4666-BF39-F6F4657B0F77";
paths = (
{
closed = 1;
nodes = (
"326 520 LINE",
"350 520 LINE",
"412 671 LINE SMOOTH",
"415 679 OFFCURVE",
"420 693 OFFCURVE",
"420 704 CURVE SMOOTH",
"420 722 OFFCURVE",
"410 730 OFFCURVE",
"396 730 CURVE SMOOTH",
"356 730 OFFCURVE",
"348 681 OFFCURVE",
"346 666 CURVE SMOOTH"
);
},
{
closed = 1;
nodes = (
"172 520 LINE",
"196 520 LINE",
"258 671 LINE SMOOTH",
"261 679 OFFCURVE",
"266 693 OFFCURVE",
"266 704 CURVE SMOOTH",
"266 722 OFFCURVE",
"256 730 OFFCURVE",
"242 730 CURVE SMOOTH",
"202 730 OFFCURVE",
"194 681 OFFCURVE",
"192 666 CURVE SMOOTH"
);
}
);
width = 394;
}
);
note = quotedbl;
unicode = 0022;
},
{
color = 4;
glyphname = numbersign;
layers = (
{
layerId = "5B4932CE-A79B-4666-BF39-F6F4657B0F77";
paths = (
{
closed = 1;
nodes = (
"56 196 LINE",
"172 196 LINE",
"88 0 LINE",
"132 0 LINE",
"216 196 LINE",
"361 196 LINE",
"278 0 LINE",
"322 0 LINE",
"405 196 LINE",
"582 196 LINE",
"593 236 LINE",
"424 236 LINE",
"516 450 LINE",
"654 450 LINE",
"665 490 LINE",
"532 490 LINE",
"615 684 LINE",
"571 684 LINE",
"488 490 LINE",
"342 490 LINE",
"425 684 LINE",
"381 684 LINE",
"299 490 LINE",
"136 490 LINE",
"125 450 LINE",
"282 450 LINE",
"188 236 LINE",
"67 236 LINE"
);
},
{
closed = 1;
nodes = (
"232 236 LINE",
"326 450 LINE",
"472 450 LINE",
"380 236 LINE"
);
}
);
width = 684;
}
);
note = numbersign;
unicode = 0023;
},
{
color = 4;
glyphname = dollar;
layers = (
{
layerId = "5B4932CE-A79B-4666-BF39-F6F4657B0F77";
paths = (
{
closed = 1;
nodes = (
"50 84 OFFCURVE",
"87 16 OFFCURVE",
"164 -7 CURVE",
"144 -80 LINE",
"176 -80 LINE",
"194 -14 LINE",
"203 -15 OFFCURVE",
"213 -16 OFFCURVE",
"224 -16 CURVE SMOOTH",
"233 -16 OFFCURVE",
"241 -16 OFFCURVE",
"250 -15 CURVE",
"232 -80 LINE",
"264 -80 LINE",
"283 -12 LINE",
"418 9 OFFCURVE",
"510 100 OFFCURVE",
"510 198 CURVE SMOOTH",
"510 293 OFFCURVE",
"466 324 OFFCURVE",
"419 351 CURVE SMOOTH",
"386 370 LINE",
"464 659 LINE",
"521 642 OFFCURVE",
"550 604 OFFCURVE",
"550 576 CURVE SMOOTH",
"550 563 OFFCURVE",
"547 552 OFFCURVE",
"538 546 CURVE",
"530 540 OFFCURVE",
"524 538 OFFCURVE",
"504 534 CURVE SMOOTH",
"477 529 OFFCURVE",
"458 510 OFFCURVE",
"458 482 CURVE SMOOTH",
"458 451 OFFCURVE",
"488 441 OFFCURVE",
"506 441 CURVE SMOOTH",
"557 441 OFFCURVE",
"594 480 OFFCURVE",
"594 552 CURVE SMOOTH",
"594 607 OFFCURVE",
"549 668 OFFCURVE",
"473 691 CURVE",
"492 762 LINE",
"460 762 LINE",
"442 697 LINE",
"431 699 OFFCURVE",
"419 700 OFFCURVE",
"406 700 CURVE SMOOTH",
"400 700 OFFCURVE",
"394 700 OFFCURVE",
"387 699 CURVE",
"404 762 LINE",
"372 762 LINE",
"354 694 LINE",
"264 675 OFFCURVE",
"160 609 OFFCURVE",
"160 493 CURVE SMOOTH",
"160 414 OFFCURVE",
"194 385 OFFCURVE",
"233 363 CURVE SMOOTH",
"260 348 LINE",
"173 25 LINE",
"128 41 OFFCURVE",
"98 73 OFFCURVE",
"98 112 CURVE SMOOTH",
"98 122 OFFCURVE",
"100 132 OFFCURVE",
"104 138 CURVE",
"108 145 OFFCURVE",
"114 153 OFFCURVE",
"129 153 CURVE SMOOTH",
"168 153 OFFCURVE",
"184 178 OFFCURVE",
"184 201 CURVE SMOOTH",
"184 234 OFFCURVE",
"158 248 OFFCURVE",
"130 248 CURVE SMOOTH",
"84 248 OFFCURVE",
"50 196 OFFCURVE",
"50 142 CURVE SMOOTH"
);
},
{
closed = 1;
nodes = (
"216 603 OFFCURVE",
"284 644 OFFCURVE",
"344 660 CURVE",
"282 430 LINE",
"256 445 LINE SMOOTH",
"234 458 OFFCURVE",
"216 485 OFFCURVE",
"216 529 CURVE SMOOTH"
);
},
{
closed = 1;
nodes = (
"288 332 LINE",
"336 304 LINE",
"258 17 LINE",
"250 16 OFFCURVE",
"241 16 OFFCURVE",
"232 16 CURVE SMOOTH",
"222 16 OFFCURVE",
"212 17 OFFCURVE",
"203 18 CURVE"
);
},
{
closed = 1;
nodes = (
"310 414 LINE",
"378 667 LINE",
"386 668 OFFCURVE",
"393 668 OFFCURVE",
"400 668 CURVE SMOOTH",
"412 668 OFFCURVE",
"423 667 OFFCURVE",
"434 666 CURVE",
"358 386 LINE"
);
},
{
closed = 1;
nodes = (
"364 289 LINE",
"386 276 LINE SMOOTH",
"409 263 OFFCURVE",
"438 245 OFFCURVE",
"438 174 CURVE SMOOTH",
"438 96 OFFCURVE",
"382 39 OFFCURVE",
"291 21 CURVE"
);
}
);
width = 580;
}
);
note = dollar;
unicode = 0024;
},
{
color = 4;
glyphname = percent;
layers = (
{
layerId = "5B4932CE-A79B-4666-BF39-F6F4657B0F77";
paths = (
{
closed = 1;
nodes = (
"572 218 OFFCURVE",
"630 320 OFFCURVE",
"710 320 CURVE SMOOTH",
"736 320 OFFCURVE",
"766 296 OFFCURVE",
"766 238 CURVE SMOOTH",
"766 126 OFFCURVE",
"708 24 OFFCURVE",
"628 24 CURVE SMOOTH",
"602 24 OFFCURVE",
"572 48 OFFCURVE",
"572 106 CURVE SMOOTH"
);
},
{
closed = 1;
nodes = (
"500 34 OFFCURVE",
"540 -16 OFFCURVE",
"598 -16 CURVE SMOOTH",
"718 -16 OFFCURVE",
"794 126 OFFCURVE",
"794 222 CURVE SMOOTH",
"794 294 OFFCURVE",
"754 344 OFFCURVE",
"696 344 CURVE SMOOTH",
"576 344 OFFCURVE",
"500 202 OFFCURVE",
"500 106 CURVE SMOOTH"
);
},
{
closed = 1;
nodes = (
"128 390 OFFCURVE",
"168 340 OFFCURVE",
"226 340 CURVE SMOOTH",
"343 340 OFFCURVE",
"419 476 OFFCURVE",
"422 572 CURVE",
"445 561 OFFCURVE",
"472 554 OFFCURVE",
"504 554 CURVE SMOOTH",
"544 554 OFFCURVE",
"597 571 OFFCURVE",
"639 595 CURVE",
"644 593 LINE",
"164 0 LINE",
"188 -24 LINE",
"774 700 LINE",
"750 724 LINE",
"740 711 OFFCURVE",
"718 683 OFFCURVE",
"718 683 CURVE",
"669 628 OFFCURVE",
"582 578 OFFCURVE",
"504 578 CURVE SMOOTH",
"479 578 OFFCURVE",
"430 588 OFFCURVE",
"419 610 CURVE",
"409 664 OFFCURVE",
"373 700 OFFCURVE",
"324 700 CURVE SMOOTH",
"204 700 OFFCURVE",
"128 558 OFFCURVE",
"128 462 CURVE SMOOTH"
);
},
{
closed = 1;
nodes = (
"200 574 OFFCURVE",
"258 676 OFFCURVE",
"338 676 CURVE SMOOTH",
"344 676 OFFCURVE",
"351 675 OFFCURVE",
"357 672 CURVE",
"353 668 OFFCURVE",
"351 661 OFFCURVE",
"351 652 CURVE SMOOTH",
"351 634 OFFCURVE",
"366 608 OFFCURVE",
"394 588 CURVE",
"392 478 OFFCURVE",
"335 380 OFFCURVE",
"256 380 CURVE SMOOTH",
"230 380 OFFCURVE",
"200 404 OFFCURVE",
"200 462 CURVE SMOOTH"
);
}
);
width = 860;
}
);
note = percent;
unicode = 0025;
},
{
color = 4;
glyphname = ampersand;
layers = (
{
layerId = "5B4932CE-A79B-4666-BF39-F6F4657B0F77";
paths = (
{
closed = 1;
nodes = (
"56 31 OFFCURVE",
"122 -18 OFFCURVE",
"203 -18 CURVE SMOOTH",
"279 -18 OFFCURVE",
"332 35 OFFCURVE",
"367 72 CURVE",
"378 28 OFFCURVE",
"400 -18 OFFCURVE",
"474 -18 CURVE SMOOTH",
"572 -18 OFFCURVE",
"658 144 OFFCURVE",
"682 192 CURVE",
"664 202 LINE",
"642 159 OFFCURVE",
"548 12 OFFCURVE",
"484 12 CURVE SMOOTH",
"430 12 OFFCURVE",
"430 86 OFFCURVE",
"430 140 CURVE",
"626 388 LINE SMOOTH",
"648 415 OFFCURVE",
"662 432 OFFCURVE",
"682 432 CURVE SMOOTH",
"695 432 OFFCURVE",
"702 423 OFFCURVE",
"702 416 CURVE SMOOTH",
"702 408 OFFCURVE",
"696 401 OFFCURVE",
"691 396 CURVE SMOOTH",
"683 388 OFFCURVE",
"678 380 OFFCURVE",
"678 367 CURVE SMOOTH",
"678 342 OFFCURVE",
"698 337 OFFCURVE",
"710 337 CURVE SMOOTH",
"747 337 OFFCURVE",
"756 373 OFFCURVE",
"756 390 CURVE SMOOTH",
"756 426 OFFCURVE",
"736 458 OFFCURVE",
"692 458 CURVE SMOOTH",
"648 458 OFFCURVE",
"617 418 OFFCURVE",
"604 401 CURVE SMOOTH",
"429 169 LINE",
"429 434 LINE",
"488 455 LINE SMOOTH",
"536 471 OFFCURVE",
"635 514 OFFCURVE",
"635 612 CURVE SMOOTH",
"635 643 OFFCURVE",
"621 702 OFFCURVE",
"554 702 CURVE SMOOTH",
"441 702 OFFCURVE",
"371 557 OFFCURVE",
"359 432 CURVE",
"301 411 LINE SMOOTH",
"232 388 OFFCURVE",
"56 291 OFFCURVE",
"56 129 CURVE SMOOTH"
);
},
{
closed = 1;
nodes = (
"429 456 LINE",
"429 620 OFFCURVE",
"507 672 OFFCURVE",
"552 672 CURVE SMOOTH",
"592 672 OFFCURVE",
"599 630 OFFCURVE",
"599 611 CURVE SMOOTH",
"599 525 OFFCURVE",
"523 488 OFFCURVE",
"478 474 CURVE"
);
},
{
closed = 1;
nodes = (
"152 248 OFFCURVE",
"212 354 OFFCURVE",
"321 393 CURVE SMOOTH",
"357 406 LINE",
"357 131 LINE SMOOTH",
"357 117 OFFCURVE",
"359 101 OFFCURVE",
"361 95 CURVE",
"328 58 OFFCURVE",
"285 12 OFFCURVE",
"225 12 CURVE SMOOTH",
"179 12 OFFCURVE",
"152 50 OFFCURVE",
"152 124 CURVE SMOOTH"
);
}
);
width = 740;
}
);
note = ampersand;
unicode = 0026;
},
{
color = 4;
glyphname = quotesingle;
layers = (
{
layerId = "5B4932CE-A79B-4666-BF39-F6F4657B0F77";
paths = (
{
closed = 1;
nodes = (
"172 520 LINE",
"196 520 LINE",
"258 671 LINE SMOOTH",
"261 679 OFFCURVE",
"266 693 OFFCURVE",
"266 704 CURVE SMOOTH",
"266 722 OFFCURVE",
"256 730 OFFCURVE",
"242 730 CURVE SMOOTH",
"202 730 OFFCURVE",
"194 681 OFFCURVE",
"192 666 CURVE SMOOTH"
);
}
);
width = 240;
}
);
note = quotesingle;
unicode = 0027;
},
{
color = 4;
glyphname = parenleft;
layers = (
{
layerId = "5B4932CE-A79B-4666-BF39-F6F4657B0F77";
paths = (
{
closed = 1;
nodes = (
"84 -20 OFFCURVE",
"129 -133 OFFCURVE",
"184 -198 CURVE",
"216 -174 LINE",
"160 -102 OFFCURVE",
"126 -6 OFFCURVE",
"126 92 CURVE SMOOTH",
"126 200 OFFCURVE",
"158 464 OFFCURVE",
"454 706 CURVE",
"430 730 LINE",
"243 591 OFFCURVE",
"84 347 OFFCURVE",
"84 92 CURVE SMOOTH"
);
}
);
width = 370;
}
);
note = parenleft;
unicode = 0028;
},
{
color = 4;
glyphname = parenright;
layers = (
{
layerId = "5B4932CE-A79B-4666-BF39-F6F4657B0F77";
paths = (
{
closed = 1;
nodes = (
"-38 -198 LINE",
"149 -59 OFFCURVE",
"308 185 OFFCURVE",
"308 440 CURVE SMOOTH",
"308 552 OFFCURVE",
"263 665 OFFCURVE",
"208 730 CURVE",
"176 706 LINE",
"232 634 OFFCURVE",
"266 538 OFFCURVE",
"266 440 CURVE SMOOTH",
"266 332 OFFCURVE",
"234 68 OFFCURVE",
"-62 -174 CURVE"
);
}
);
width = 370;
}
);
note = parenright;
unicode = 0029;
},
{
color = 4;
glyphname = asterisk;
layers = (
{
layerId = "5B4932CE-A79B-4666-BF39-F6F4657B0F77";
paths = (
{
closed = 1;
nodes = (
"162 402 OFFCURVE",
"165 393 OFFCURVE",
"172 386 CURVE",
"179 378 OFFCURVE",
"188 374 OFFCURVE",
"199 374 CURVE SMOOTH",
"217 374 OFFCURVE",
"236 387 OFFCURVE",
"255 413 CURVE SMOOTH",
"269 431 OFFCURVE",
"288 447 OFFCURVE",
"311 462 CURVE SMOOTH",
"317 466 OFFCURVE",
"322 468 OFFCURVE",
"325 468 CURVE SMOOTH",
"330 468 OFFCURVE",
"333 463 OFFCURVE",
"333 453 CURVE SMOOTH",
"333 425 OFFCURVE",
"328 399 OFFCURVE",
"319 376 CURVE SMOOTH",
"311 357 OFFCURVE",
"307 342 OFFCURVE",
"307 333 CURVE SMOOTH",
"307 320 OFFCURVE",
"310 310 OFFCURVE",
"317 302 CURVE SMOOTH",
"324 294 OFFCURVE",
"333 290 OFFCURVE",
"345 290 CURVE SMOOTH",
"357 290 OFFCURVE",
"366 294 OFFCURVE",
"373 302 CURVE SMOOTH",
"380 310 OFFCURVE",
"383 320 OFFCURVE",
"383 333 CURVE SMOOTH",
"383 342 OFFCURVE",
"379 357 OFFCURVE",
"371 376 CURVE SMOOTH",
"362 399 OFFCURVE",
"357 425 OFFCURVE",
"357 453 CURVE SMOOTH",
"357 463 OFFCURVE",
"360 468 OFFCURVE",
"365 468 CURVE SMOOTH",
"368 468 OFFCURVE",
"373 466 OFFCURVE",
"379 462 CURVE SMOOTH",
"402 447 OFFCURVE",
"421 431 OFFCURVE",
"435 413 CURVE SMOOTH",
"454 387 OFFCURVE",
"473 374 OFFCURVE",
"491 374 CURVE SMOOTH",
"502 374 OFFCURVE",
"511 378 OFFCURVE",
"518 386 CURVE",
"525 393 OFFCURVE",
"528 402 OFFCURVE",
"528 411 CURVE SMOOTH",
"528 436 OFFCURVE",
"506 452 OFFCURVE",
"461 458 CURVE SMOOTH",
"436 461 OFFCURVE",
"412 470 OFFCURVE",
"387 484 CURVE",
"382 488 LINE",
"379 490 OFFCURVE",
"377 492 OFFCURVE",
"377 495 CURVE SMOOTH",
"377 498 OFFCURVE",
"379 500 OFFCURVE",
"382 502 CURVE",
"387 506 LINE",
"412 520 OFFCURVE",
"436 529 OFFCURVE",
"461 532 CURVE SMOOTH",
"506 538 OFFCURVE",
"528 554 OFFCURVE",
"528 579 CURVE SMOOTH",
"528 588 OFFCURVE",
"525 597 OFFCURVE",
"518 604 CURVE",
"511 612 OFFCURVE",
"502 616 OFFCURVE",
"491 616 CURVE SMOOTH",
"473 616 OFFCURVE",
"454 603 OFFCURVE",
"435 577 CURVE SMOOTH",
"421 559 OFFCURVE",
"402 543 OFFCURVE",
"379 528 CURVE SMOOTH",
"373 524 OFFCURVE",
"368 522 OFFCURVE",
"365 522 CURVE SMOOTH",
"360 522 OFFCURVE",
"357 527 OFFCURVE",
"357 537 CURVE SMOOTH",
"357 565 OFFCURVE",
"362 591 OFFCURVE",
"371 614 CURVE SMOOTH",
"379 633 OFFCURVE",
"383 648 OFFCURVE",
"383 657 CURVE SMOOTH",
"383 670 OFFCURVE",
"380 680 OFFCURVE",
"373 688 CURVE SMOOTH",
"366 696 OFFCURVE",
"357 700 OFFCURVE",
"345 700 CURVE SMOOTH",
"333 700 OFFCURVE",
"324 696 OFFCURVE",
"317 688 CURVE SMOOTH",
"310 680 OFFCURVE",
"307 670 OFFCURVE",
"307 657 CURVE SMOOTH",
"307 648 OFFCURVE",
"311 633 OFFCURVE",
"319 614 CURVE SMOOTH",
"328 591 OFFCURVE",
"333 565 OFFCURVE",
"333 537 CURVE SMOOTH",
"333 527 OFFCURVE",
"330 522 OFFCURVE",
"325 522 CURVE SMOOTH",
"322 522 OFFCURVE",
"317 524 OFFCURVE",
"311 528 CURVE SMOOTH",
"288 543 OFFCURVE",
"269 559 OFFCURVE",
"255 577 CURVE SMOOTH",
"236 603 OFFCURVE",
"217 616 OFFCURVE",
"199 616 CURVE SMOOTH",
"188 616 OFFCURVE",
"179 612 OFFCURVE",
"172 604 CURVE",
"165 597 OFFCURVE",
"162 588 OFFCURVE",
"162 579 CURVE SMOOTH",
"162 554 OFFCURVE",
"184 538 OFFCURVE",
"229 532 CURVE SMOOTH",
"254 529 OFFCURVE",
"278 520 OFFCURVE",
"303 506 CURVE",
"308 502 LINE",
"311 500 OFFCURVE",
"313 498 OFFCURVE",
"313 495 CURVE SMOOTH",
"313 492 OFFCURVE",
"311 490 OFFCURVE",
"308 488 CURVE",
"303 484 LINE",
"278 470 OFFCURVE",
"254 461 OFFCURVE",
"229 458 CURVE SMOOTH",
"184 452 OFFCURVE",
"162 436 OFFCURVE",
"162 411 CURVE SMOOTH"
);
}
);
width = 580;
}
);
note = asterisk;
unicode = 002A;
},
{
color = 4;
glyphname = plus;
layers = (
{
layerId = "5B4932CE-A79B-4666-BF39-F6F4657B0F77";
paths = (
{
closed = 1;
nodes = (
"56 244 LINE",
"456 244 LINE",
"456 -156 LINE",
"500 -156 LINE",
"500 244 LINE",
"900 244 LINE",
"900 284 LINE",
"500 284 LINE",
"500 684 LINE",
"456 684 LINE",
"456 284 LINE",
"56 284 LINE"
);
}
);
width = 940;
}
);
note = plus;
unicode = 002B;
},
{
color = 4;
glyphname = comma;
layers = (
{
layerId = "5B4932CE-A79B-4666-BF39-F6F4657B0F77";
paths = (
{
closed = 1;
nodes = (
"30 -168 LINE",
"75 -150 OFFCURVE",
"186 -86 OFFCURVE",
"186 59 CURVE SMOOTH",
"186 91 OFFCURVE",
"166 140 OFFCURVE",
"121 140 CURVE SMOOTH",
"85 140 OFFCURVE",
"60 116 OFFCURVE",
"60 77 CURVE SMOOTH",
"60 52 OFFCURVE",
"77 25 OFFCURVE",
"107 25 CURVE SMOOTH",
"118 25 OFFCURVE",
"129 24 OFFCURVE",
"136 18 CURVE SMOOTH",
"144 11 OFFCURVE",
"145 4 OFFCURVE",
"145 -5 CURVE SMOOTH",
"145 -75 OFFCURVE",
"73 -126 OFFCURVE",
"22 -152 CURVE"
);
}
);
width = 280;
}
);
leftKerningGroup = comma;
note = comma;
unicode = 002C;
},
{
color = 4;
glyphname = hyphen;
layers = (
{
layerId = "5B4932CE-A79B-4666-BF39-F6F4657B0F77";
paths = (
{
closed = 1;
nodes = (
"74 196 LINE",
"74 216 OFFCURVE",
"82 224 OFFCURVE",
"102 224 CURVE SMOOTH",
"278 224 LINE SMOOTH",
"322 224 OFFCURVE",
"346 264 OFFCURVE",
"346 308 CURVE",
"328 308 LINE",
"328 288 OFFCURVE",
"320 280 OFFCURVE",
"300 280 CURVE SMOOTH",
"124 280 LINE SMOOTH",
"80 280 OFFCURVE",
"56 240 OFFCURVE",
"56 196 CURVE"
);
}
);
width = 370;
}
);
note = hyphen;
unicode = 002D;
},
{
color = 4;
glyphname = period;
layers = (
{
layerId = "5B4932CE-A79B-4666-BF39-F6F4657B0F77";
paths = (
{
closed = 1;
nodes = (
"60 14 OFFCURVE",
"86 -12 OFFCURVE",
"122 -12 CURVE SMOOTH",
"158 -12 OFFCURVE",
"184 14 OFFCURVE",
"184 50 CURVE SMOOTH",
"184 86 OFFCURVE",
"158 112 OFFCURVE",
"122 112 CURVE SMOOTH",
"86 112 OFFCURVE",
"60 86 OFFCURVE",
"60 50 CURVE SMOOTH"
);
}
);
width = 280;
}
);
leftKerningGroup = comma;
note = period;
unicode = 002E;
},
{
color = 4;
glyphname = slash;
layers = (
{
layerId = "5B4932CE-A79B-4666-BF39-F6F4657B0F77";
paths = (
{
closed = 1;
nodes = (
"68 -198 LINE",
"108 -198 LINE",
"406 730 LINE",
"366 730 LINE"
);
}
);
width = 440;
}
);
note = slash;
unicode = 002F;
},
{
color = 4;
glyphname = zero;
layers = (
{
layerId = "5B4932CE-A79B-4666-BF39-F6F4657B0F77";
paths = (
{
closed = 1;
nodes = (
"152 224 OFFCURVE",
"183 341 OFFCURVE",
"218 446 CURVE SMOOTH",
"258 566 OFFCURVE",
"312 668 OFFCURVE",
"404 668 CURVE SMOOTH",
"462 668 OFFCURVE",
"478 607 OFFCURVE",
"478 540 CURVE SMOOTH",
"478 462 OFFCURVE",
"447 343 OFFCURVE",
"412 238 CURVE SMOOTH",
"372 118 OFFCURVE",
"322 16 OFFCURVE",
"226 16 CURVE SMOOTH",
"168 16 OFFCURVE",
"152 76 OFFCURVE",
"152 143 CURVE SMOOTH"
);
},
{
closed = 1;
nodes = (
"72 98 OFFCURVE",
"116 -16 OFFCURVE",
"228 -16 CURVE SMOOTH",
"424 -16 OFFCURVE",
"558 228 OFFCURVE",
"558 428 CURVE SMOOTH",
"558 586 OFFCURVE",
"514 700 OFFCURVE",
"402 700 CURVE SMOOTH",
"206 700 OFFCURVE",
"72 456 OFFCURVE",
"72 256 CURVE SMOOTH"
);
}
);
width = 580;
}
);
note = zero;
unicode = 0030;
},
{
color = 4;
glyphname = one;
layers = (
{
layerId = "5B4932CE-A79B-4666-BF39-F6F4657B0F77";
paths = (
{
closed = 1;
nodes = (
"54 0 LINE",
"392 0 LINE",
"400 32 LINE",
"302 32 LINE SMOOTH",
"283 32 OFFCURVE",
"277 39 OFFCURVE",
"282 58 CURVE SMOOTH",
"452 684 LINE",
"421 684 LINE",
"365 590 OFFCURVE",
"264 556 OFFCURVE",
"197 536 CURVE",
"204 516 LINE",
"248 531 OFFCURVE",
"298 543 OFFCURVE",
"328 563 CURVE",
"191 58 LINE SMOOTH",
"186 39 OFFCURVE",
"175 32 OFFCURVE",
"155 32 CURVE SMOOTH",
"62 32 LINE"
);
}
);
width = 580;
}
);
note = one;
unicode = 0031;
},
{
color = 4;
glyphname = two;
layers = (
{
layerId = "5B4932CE-A79B-4666-BF39-F6F4657B0F77";
paths = (
{
closed = 1;
nodes = (
"32 7 OFFCURVE",
"45 -8 OFFCURVE",
"68 -8 CURVE SMOOTH",
"91 -8 OFFCURVE",
"98 9 OFFCURVE",
"98 23 CURVE SMOOTH",
"98 35 OFFCURVE",
"91 43 OFFCURVE",
"81 52 CURVE",
"77 55 OFFCURVE",
"74 62 OFFCURVE",
"74 70 CURVE SMOOTH",
"74 106 OFFCURVE",
"88 114 OFFCURVE",
"114 114 CURVE SMOOTH",
"141 114 OFFCURVE",
"161 90 OFFCURVE",
"183 61 CURVE SMOOTH",
"210 24 OFFCURVE",
"244 -17 OFFCURVE",
"305 -17 CURVE SMOOTH",
"416 -17 OFFCURVE",
"466 113 OFFCURVE",
"483 201 CURVE",
"464 201 LINE",
"445 155 LINE SMOOTH",
"426 108 OFFCURVE",
"378 87 OFFCURVE",
"329 87 CURVE SMOOTH",
"281 87 OFFCURVE",
"236 104 OFFCURVE",
"197 120 CURVE SMOOTH",
"167 133 OFFCURVE",
"139 143 OFFCURVE",
"116 143 CURVE",
"116 161 OFFCURVE",
"146 195 OFFCURVE",
"216 227 CURVE SMOOTH",
"331 280 LINE SMOOTH",
"413 318 OFFCURVE",
"566 389 OFFCURVE",
"566 522 CURVE SMOOTH",
"566 626 OFFCURVE",
"489 700 OFFCURVE",
"362 700 CURVE SMOOTH",
"264 700 OFFCURVE",
"156 617 OFFCURVE",
"156 499 CURVE SMOOTH",
"156 442 OFFCURVE",
"195 410 OFFCURVE",
"228 410 CURVE SMOOTH",
"269 410 OFFCURVE",
"296 440 OFFCURVE",
"296 474 CURVE SMOOTH",
"296 498 OFFCURVE",
"283 520 OFFCURVE",
"252 520 CURVE SMOOTH",
"244 520 OFFCURVE",
"238 518 OFFCURVE",
"228 513 CURVE",
"221 509 OFFCURVE",
"217 507 OFFCURVE",
"212 507 CURVE SMOOTH",
"196 507 OFFCURVE",
"195 528 OFFCURVE",
"195 540 CURVE SMOOTH",
"195 590 OFFCURVE",
"276 668 OFFCURVE",
"353 668 CURVE SMOOTH",
"446 668 OFFCURVE",
"470 598 OFFCURVE",
"470 540 CURVE SMOOTH",
"470 448 OFFCURVE",
"385 359 OFFCURVE",
"310 315 CURVE SMOOTH",
"174 235 LINE",
"78 186 OFFCURVE",
"32 109 OFFCURVE",
"32 26 CURVE SMOOTH"
);
}
);
width = 580;
}
);
note = two;
unicode = 0032;
},
{
color = 4;
glyphname = three;
layers = (
{
layerId = "5B4932CE-A79B-4666-BF39-F6F4657B0F77";
paths = (
{
closed = 1;
nodes = (
"52 30 OFFCURVE",
"144 -16 OFFCURVE",
"213 -16 CURVE SMOOTH",
"283 -16 OFFCURVE",
"349 8 OFFCURVE",
"393 42 CURVE SMOOTH",
"446 83 OFFCURVE",
"488 152 OFFCURVE",
"488 226 CURVE SMOOTH",
"488 312 OFFCURVE",
"434 355 OFFCURVE",
"397 369 CURVE",
"398 376 LINE",
"460 386 OFFCURVE",
"558 442 OFFCURVE",
"558 534 CURVE SMOOTH",
"558 629 OFFCURVE",
"485 700 OFFCURVE",
"377 700 CURVE SMOOTH",
"284 700 OFFCURVE",
"186 644 OFFCURVE",
"186 548 CURVE SMOOTH",
"186 508 OFFCURVE",
"211 477 OFFCURVE",
"248 477 CURVE SMOOTH",
"287 477 OFFCURVE",
"304 504 OFFCURVE",
"304 530 CURVE SMOOTH",
"304 554 OFFCURVE",
"295 568 OFFCURVE",
"269 568 CURVE SMOOTH",
"265 568 OFFCURVE",
"259 567 OFFCURVE",
"253 565 CURVE",
"249 563 OFFCURVE",
"245 562 OFFCURVE",
"244 562 CURVE SMOOTH",
"238 562 OFFCURVE",
"233 567 OFFCURVE",
"233 583 CURVE SMOOTH",
"233 631 OFFCURVE",
"305 668 OFFCURVE",
"371 668 CURVE SMOOTH",
"444 668 OFFCURVE",
"472 626 OFFCURVE",
"472 575 CURVE SMOOTH",
"472 540 OFFCURVE",
"468 500 OFFCURVE",
"448 466 CURVE SMOOTH",
"424 425 OFFCURVE",
"383 391 OFFCURVE",
"343 391 CURVE SMOOTH",
"240 391 LINE SMOOTH",
"213 391 OFFCURVE",
"200 370 OFFCURVE",
"200 354 CURVE SMOOTH",
"200 339 OFFCURVE",
"212 328 OFFCURVE",
"235 328 CURVE SMOOTH",
"254 328 OFFCURVE",
"270 340 OFFCURVE",
"281 350 CURVE SMOOTH",
"294 362 OFFCURVE",
"304 366 OFFCURVE",
"320 366 CURVE SMOOTH",
"392 366 OFFCURVE",
"392 310 OFFCURVE",
"392 278 CURVE SMOOTH",
"392 232 OFFCURVE",
"376 144 OFFCURVE",
"336 86 CURVE SMOOTH",
"304 40 OFFCURVE",
"261 16 OFFCURVE",
"216 16 CURVE SMOOTH",
"168 16 OFFCURVE",
"94 36 OFFCURVE",
"94 105 CURVE SMOOTH",
"94 118 OFFCURVE",
"101 126 OFFCURVE",
"112 126 CURVE SMOOTH",
"120 126 OFFCURVE",
"125 124 OFFCURVE",
"130 121 CURVE SMOOTH",
"135 118 OFFCURVE",
"141 116 OFFCURVE",
"150 116 CURVE SMOOTH",
"180 116 OFFCURVE",
"200 138 OFFCURVE",
"200 166 CURVE SMOOTH",
"200 189 OFFCURVE",
"187 220 OFFCURVE",
"147 220 CURVE SMOOTH",
"107 220 OFFCURVE",
"52 191 OFFCURVE",
"52 120 CURVE SMOOTH"
);
}
);
width = 580;
}
);
note = three;
unicode = 0033;
},
{
color = 4;
glyphname = four;
layers = (
{
layerId = "5B4932CE-A79B-4666-BF39-F6F4657B0F77";
paths = (
{
closed = 1;
nodes = (
"64 208 LINE",
"294 208 LINE",
"254 58 LINE SMOOTH",
"249 39 OFFCURVE",
"238 32 OFFCURVE",
"219 32 CURVE SMOOTH",
"126 32 LINE",
"117 0 LINE",
"454 0 LINE",
"463 32 LINE",
"370 32 LINE SMOOTH",
"350 32 OFFCURVE",
"344 39 OFFCURVE",
"349 58 CURVE SMOOTH",
"389 208 LINE",
"546 208 LINE",
"556 244 LINE",
"398 244 LINE",
"478 535 LINE",
"461 535 LINE",
"442 489 OFFCURVE",
"402 434 OFFCURVE",
"347 396 CURVE",
"303 244 LINE",
"116 244 LINE",
"409 510 LINE SMOOTH",
"494 590 OFFCURVE",
"533 644 OFFCURVE",
"544 694 CURVE",
"462 694 LINE",
"447 632 OFFCURVE",
"362 509 OFFCURVE",
"290 438 CURVE",
"74 244 LINE"
);
}
);
width = 580;
}
);
note = four;
unicode = 0034;
},
{
color = 4;
glyphname = five;
layers = (
{
layerId = "5B4932CE-A79B-4666-BF39-F6F4657B0F77";
paths = (
{
closed = 1;
nodes = (
"62 36 OFFCURVE",
"126 -16 OFFCURVE",
"222 -16 CURVE SMOOTH",
"299 -16 OFFCURVE",
"370 17 OFFCURVE",
"419 68 CURVE SMOOTH",
"479 130 OFFCURVE",
"508 220 OFFCURVE",
"508 284 CURVE SMOOTH",
"508 390 OFFCURVE",
"443 452 OFFCURVE",
"330 452 CURVE SMOOTH",
"303 452 OFFCURVE",
"258 436 OFFCURVE",
"240 420 CURVE",
"236 423 LINE",
"292 609 LINE",
"313 589 OFFCURVE",
"344 566 OFFCURVE",
"391 566 CURVE SMOOTH",
"496 566 OFFCURVE",
"544 638 OFFCURVE",
"574 685 CURVE",
"559 700 LINE",
"518 646 OFFCURVE",
"469 626 OFFCURVE",
"410 626 CURVE SMOOTH",
"357 626 OFFCURVE",
"308 676 OFFCURVE",
"287 700 CURVE",
"263 683 LINE",
"265 674 OFFCURVE",
"266 666 OFFCURVE",
"266 658 CURVE SMOOTH",
"266 638 OFFCURVE",
"262 618 OFFCURVE",
"252 585 CURVE SMOOTH",
"202 422 LINE SMOOTH",
"195 399 OFFCURVE",
"181 382 OFFCURVE",
"167 367 CURVE SMOOTH",
"151 350 OFFCURVE",
"137 333 OFFCURVE",
"137 310 CURVE SMOOTH",
"137 288 OFFCURVE",
"155 286 OFFCURVE",
"166 286 CURVE SMOOTH",
"179 286 OFFCURVE",
"190 300 OFFCURVE",
"195 317 CURVE SMOOTH",
"220 395 OFFCURVE",
"276 418 OFFCURVE",
"313 418 CURVE SMOOTH",
"389 418 OFFCURVE",
"414 373 OFFCURVE",
"414 312 CURVE SMOOTH",
"414 257 OFFCURVE",
"396 177 OFFCURVE",
"370 126 CURVE SMOOTH",
"333 53 OFFCURVE",
"279 16 OFFCURVE",
"216 16 CURVE SMOOTH",
"152 16 OFFCURVE",
"106 43 OFFCURVE",
"106 82 CURVE SMOOTH",
"106 90 OFFCURVE",
"110 95 OFFCURVE",
"116 99 CURVE",
"127 105 OFFCURVE",
"140 102 OFFCURVE",
"149 102 CURVE SMOOTH",
"182 102 OFFCURVE",
"200 125 OFFCURVE",
"200 150 CURVE SMOOTH",
"200 187 OFFCURVE",
"178 207 OFFCURVE",
"140 207 CURVE SMOOTH",
"98 207 OFFCURVE",
"62 169 OFFCURVE",
"62 114 CURVE SMOOTH"
);
}
);
width = 580;
}
);
note = five;
unicode = 0035;
},
{
color = 4;
glyphname = six;
layers = (
{
layerId = "5B4932CE-A79B-4666-BF39-F6F4657B0F77";
paths = (
{
closed = 1;
nodes = (
"178 165 OFFCURVE",
"184 223 OFFCURVE",
"203 265 CURVE SMOOTH",
"243 355 OFFCURVE",
"291 390 OFFCURVE",
"342 390 CURVE SMOOTH",
"397 390 OFFCURVE",
"422 342 OFFCURVE",
"422 284 CURVE SMOOTH",
"422 220 OFFCURVE",
"406 153 OFFCURVE",
"378 101 CURVE SMOOTH",
"352 53 OFFCURVE",
"311 16 OFFCURVE",
"260 16 CURVE SMOOTH",
"210 16 OFFCURVE",
"178 60 OFFCURVE",
"178 120 CURVE SMOOTH"
);
},
{
closed = 1;
nodes = (
"90 51 OFFCURVE",
"164 -16 OFFCURVE",
"252 -16 CURVE SMOOTH",
"344 -16 OFFCURVE",
"403 35 OFFCURVE",
"428 62 CURVE SMOOTH",
"474 113 OFFCURVE",
"509 190 OFFCURVE",
"509 261 CURVE SMOOTH",
"509 353 OFFCURVE",
"455 426 OFFCURVE",
"355 426 CURVE SMOOTH",
"302 426 OFFCURVE",
"245 397 OFFCURVE",
"210 342 CURVE",
"203 347 LINE",
"210 398 OFFCURVE",
"226 456 OFFCURVE",
"254 514 CURVE SMOOTH",
"296 602 OFFCURVE",
"364 668 OFFCURVE",
"429 668 CURVE SMOOTH",
"457 668 OFFCURVE",
"472 663 OFFCURVE",
"483 655 CURVE SMOOTH",
"500 642 OFFCURVE",
"500 633 OFFCURVE",
"500 625 CURVE SMOOTH",
"500 608 OFFCURVE",
"484 602 OFFCURVE",
"475 600 CURVE SMOOTH",
"460 597 OFFCURVE",
"429 586 OFFCURVE",
"429 545 CURVE SMOOTH",
"429 518 OFFCURVE",
"449 502 OFFCURVE",
"477 502 CURVE SMOOTH",
"514 502 OFFCURVE",
"548 538 OFFCURVE",
"548 595 CURVE SMOOTH",
"548 621 OFFCURVE",
"541 649 OFFCURVE",
"515 671 CURVE SMOOTH",
"496 687 OFFCURVE",
"465 700 OFFCURVE",
"431 700 CURVE SMOOTH",
"356 700 OFFCURVE",
"262 656 OFFCURVE",
"189 540 CURVE SMOOTH",
"123 435 OFFCURVE",
"90 302 OFFCURVE",
"90 212 CURVE SMOOTH"
);
}
);
width = 580;
}
);
note = six;
unicode = 0036;
},
{
color = 4;
glyphname = seven;
layers = (
{
layerId = "5B4932CE-A79B-4666-BF39-F6F4657B0F77";
paths = (
{
closed = 1;
nodes = (
"144 6 OFFCURVE",
"169 -17 OFFCURVE",
"208 -17 CURVE SMOOTH",
"246 -17 OFFCURVE",
"272 12 OFFCURVE",
"272 62 CURVE SMOOTH",
"272 106 OFFCURVE",
"275 149 OFFCURVE",
"302 214 CURVE SMOOTH",
"337 297 OFFCURVE",
"384 352 OFFCURVE",
"512 501 CURVE SMOOTH",
"557 553 OFFCURVE",
"592 594 OFFCURVE",
"592 633 CURVE SMOOTH",
"592 654 OFFCURVE",
"586 681 OFFCURVE",
"555 681 CURVE SMOOTH",
"544 681 OFFCURVE",
"528 673 OFFCURVE",
"528 651 CURVE SMOOTH",
"528 636 OFFCURVE",
"535 630 OFFCURVE",
"542 625 CURVE",
"550 621 OFFCURVE",
"554 615 OFFCURVE",
"554 606 CURVE SMOOTH",
"554 596 OFFCURVE",
"546 580 OFFCURVE",
"514 580 CURVE SMOOTH",
"485 580 OFFCURVE",
"464 603 OFFCURVE",
"442 633 CURVE SMOOTH",
"420 663 OFFCURVE",
"392 692 OFFCURVE",
"354 692 CURVE SMOOTH",
"310 692 OFFCURVE",
"279 669 OFFCURVE",
"251 644 CURVE",
"232 644 OFFCURVE",
"230 675 OFFCURVE",
"238 702 CURVE",
"219 702 LINE",
"151 474 LINE",
"170 474 LINE",
"191 515 LINE SMOOTH",
"222 576 OFFCURVE",
"247 612 OFFCURVE",
"291 612 CURVE SMOOTH",
"319 612 OFFCURVE",
"340 595 OFFCURVE",
"362 576 CURVE SMOOTH",
"389 553 OFFCURVE",
"417 530 OFFCURVE",
"464 530 CURVE SMOOTH",
"473 530 OFFCURVE",
"491 533 OFFCURVE",
"504 542 CURVE",
"508 538 LINE",
"320 330 LINE SMOOTH",
"256 259 OFFCURVE",
"144 134 OFFCURVE",
"144 54 CURVE SMOOTH"
);
}
);
width = 580;
}
);
note = seven;
unicode = 0037;
},
{
color = 4;
glyphname = eight;
layers = (
{
layerId = "5B4932CE-A79B-4666-BF39-F6F4657B0F77";
paths = (
{
closed = 1;
nodes = (
"254 637 OFFCURVE",
"340 668 OFFCURVE",
"386 668 CURVE SMOOTH",
"478 668 OFFCURVE",
"524 613 OFFCURVE",
"524 522 CURVE SMOOTH",
"524 452 OFFCURVE",
"468 376 OFFCURVE",
"381 363 CURVE",
"290 443 LINE SMOOTH",
"266 464 OFFCURVE",
"254 483 OFFCURVE",
"254 526 CURVE SMOOTH"
);
},
{
closed = 1;
nodes = (
"68 40 OFFCURVE",
"168 -16 OFFCURVE",
"248 -16 CURVE SMOOTH",
"322 -16 OFFCURVE",
"381 6 OFFCURVE",
"420 41 CURVE SMOOTH",
"463 79 OFFCURVE",
"486 126 OFFCURVE",
"486 192 CURVE SMOOTH",
"486 256 OFFCURVE",
"458 301 OFFCURVE",
"404 347 CURVE",
"435 352 OFFCURVE",
"482 374 OFFCURVE",
"513 398 CURVE SMOOTH",
"555 430 OFFCURVE",
"578 491 OFFCURVE",
"578 544 CURVE SMOOTH",
"578 644 OFFCURVE",
"502 700 OFFCURVE",
"390 700 CURVE SMOOTH",
"345 700 OFFCURVE",
"277 683 OFFCURVE",
"235 635 CURVE SMOOTH",
"204 599 OFFCURVE",
"184 553 OFFCURVE",
"184 497 CURVE SMOOTH",
"184 430 OFFCURVE",
"220 376 OFFCURVE",
"251 354 CURVE",
"205 346 OFFCURVE",
"186 338 OFFCURVE",
"154 318 CURVE SMOOTH",
"110 291 OFFCURVE",
"68 234 OFFCURVE",
"68 161 CURVE SMOOTH"
);
},
{
closed = 1;
nodes = (
"112 215 OFFCURVE",
"138 260 OFFCURVE",
"166 287 CURVE SMOOTH",
"200 320 OFFCURVE",
"235 328 OFFCURVE",
"271 336 CURVE",
"376 248 LINE SMOOTH",
"405 223 OFFCURVE",
"414 182 OFFCURVE",
"414 142 CURVE SMOOTH",
"414 72 OFFCURVE",
"344 16 OFFCURVE",
"260 16 CURVE SMOOTH",
"160 16 OFFCURVE",
"112 72 OFFCURVE",
"112 162 CURVE SMOOTH"
);
}
);
width = 580;
}
);
note = eight;
unicode = 0038;
},
{
color = 4;
glyphname = nine;
layers = (
{
layerId = "5B4932CE-A79B-4666-BF39-F6F4657B0F77";
paths = (
{
closed = 1;
nodes = (
"214 464 OFFCURVE",
"230 531 OFFCURVE",
"258 583 CURVE SMOOTH",
"284 631 OFFCURVE",
"325 668 OFFCURVE",
"376 668 CURVE SMOOTH",
"426 668 OFFCURVE",
"458 624 OFFCURVE",
"458 564 CURVE SMOOTH",
"458 519 OFFCURVE",
"452 461 OFFCURVE",
"433 419 CURVE SMOOTH",
"393 329 OFFCURVE",
"345 294 OFFCURVE",
"294 294 CURVE SMOOTH",
"239 294 OFFCURVE",
"214 342 OFFCURVE",
"214 400 CURVE SMOOTH"
);
},
{
closed = 1;
nodes = (
"88 63 OFFCURVE",
"95 35 OFFCURVE",
"121 13 CURVE SMOOTH",
"140 -3 OFFCURVE",
"171 -16 OFFCURVE",
"205 -16 CURVE SMOOTH",
"280 -16 OFFCURVE",
"374 28 OFFCURVE",
"447 144 CURVE SMOOTH",
"513 249 OFFCURVE",
"546 382 OFFCURVE",
"546 472 CURVE SMOOTH",
"546 633 OFFCURVE",
"472 700 OFFCURVE",
"384 700 CURVE SMOOTH",
"292 700 OFFCURVE",
"233 649 OFFCURVE",
"208 622 CURVE SMOOTH",
"162 571 OFFCURVE",
"127 494 OFFCURVE",
"127 423 CURVE SMOOTH",
"127 331 OFFCURVE",
"181 258 OFFCURVE",
"281 258 CURVE SMOOTH",
"334 258 OFFCURVE",
"391 287 OFFCURVE",
"426 342 CURVE",
"433 337 LINE",
"426 286 OFFCURVE",
"410 228 OFFCURVE",
"382 170 CURVE SMOOTH",
"340 82 OFFCURVE",
"272 16 OFFCURVE",
"207 16 CURVE SMOOTH",
"179 16 OFFCURVE",
"164 21 OFFCURVE",
"153 29 CURVE SMOOTH",
"136 42 OFFCURVE",
"136 51 OFFCURVE",
"136 59 CURVE SMOOTH",
"136 76 OFFCURVE",
"152 82 OFFCURVE",
"161 84 CURVE SMOOTH",
"176 87 OFFCURVE",
"207 98 OFFCURVE",
"207 139 CURVE SMOOTH",
"207 166 OFFCURVE",
"187 182 OFFCURVE",
"159 182 CURVE SMOOTH",
"122 182 OFFCURVE",
"88 146 OFFCURVE",
"88 89 CURVE SMOOTH"
);
}
);
width = 580;
}
);
note = nine;
unicode = 0039;
},
{
color = 4;
glyphname = colon;
layers = (
{
layerId = "5B4932CE-A79B-4666-BF39-F6F4657B0F77";
paths = (
{
closed = 1;
nodes = (
"152 358 OFFCURVE",
"178 332 OFFCURVE",
"214 332 CURVE SMOOTH",
"250 332 OFFCURVE",
"276 358 OFFCURVE",
"276 394 CURVE SMOOTH",
"276 430 OFFCURVE",
"250 456 OFFCURVE",
"214 456 CURVE SMOOTH",
"178 456 OFFCURVE",
"152 430 OFFCURVE",
"152 394 CURVE SMOOTH"
);
},
{
closed = 1;
nodes = (
"60 14 OFFCURVE",
"86 -12 OFFCURVE",
"122 -12 CURVE SMOOTH",
"158 -12 OFFCURVE",
"184 14 OFFCURVE",
"184 50 CURVE SMOOTH",
"184 86 OFFCURVE",
"158 112 OFFCURVE",
"122 112 CURVE SMOOTH",
"86 112 OFFCURVE",
"60 86 OFFCURVE",
"60 50 CURVE SMOOTH"
);
}
);
width = 280;
}
);
note = colon;
unicode = 003A;
},
{
color = 4;
glyphname = semicolon;
layers = (
{
layerId = "5B4932CE-A79B-4666-BF39-F6F4657B0F77";
paths = (
{
closed = 1;
nodes = (
"152 358 OFFCURVE",
"178 332 OFFCURVE",
"214 332 CURVE SMOOTH",
"250 332 OFFCURVE",
"276 358 OFFCURVE",
"276 394 CURVE SMOOTH",
"276 430 OFFCURVE",
"250 456 OFFCURVE",
"214 456 CURVE SMOOTH",
"178 456 OFFCURVE",
"152 430 OFFCURVE",
"152 394 CURVE SMOOTH"
);
},
{
closed = 1;
nodes = (
"30 -168 LINE",
"75 -150 OFFCURVE",
"186 -86 OFFCURVE",
"186 59 CURVE SMOOTH",
"186 91 OFFCURVE",
"166 140 OFFCURVE",
"121 140 CURVE SMOOTH",
"85 140 OFFCURVE",
"60 116 OFFCURVE",
"60 77 CURVE SMOOTH",
"60 52 OFFCURVE",
"77 25 OFFCURVE",
"107 25 CURVE SMOOTH",
"118 25 OFFCURVE",
"129 24 OFFCURVE",
"136 18 CURVE SMOOTH",
"144 11 OFFCURVE",
"145 4 OFFCURVE",
"145 -5 CURVE SMOOTH",
"145 -75 OFFCURVE",
"73 -126 OFFCURVE",
"22 -152 CURVE"
);
}
);
width = 280;
}
);
note = semicolon;
unicode = 003B;
},
{
color = 4;
glyphname = less;
layers = (
{
layerId = "5B4932CE-A79B-4666-BF39-F6F4657B0F77";
paths = (
{
closed = 1;
nodes = (
"84 250 LINE",
"840 -156 LINE",
"860 -120 LINE",
"146 264 LINE",
"860 648 LINE",
"840 684 LINE",
"84 278 LINE"
);
}
);
width = 940;
}
);
note = less;
unicode = 003C;
},
{
color = 4;
glyphname = equal;
layers = (
{
layerId = "5B4932CE-A79B-4666-BF39-F6F4657B0F77";
paths = (
{
closed = 1;
nodes = (
"56 338 LINE",
"900 338 LINE",
"900 378 LINE",
"56 378 LINE"
);
},
{
closed = 1;
nodes = (
"56 148 LINE",
"900 148 LINE",
"900 188 LINE",
"56 188 LINE"
);
}
);
width = 940;
}
);
note = equal;
unicode = 003D;
},
{
color = 4;
glyphname = greater;
layers = (
{
layerId = "5B4932CE-A79B-4666-BF39-F6F4657B0F77";
paths = (
{
closed = 1;
nodes = (
"80 -120 LINE",
"100 -156 LINE",
"856 250 LINE",
"856 278 LINE",
"100 684 LINE",
"80 648 LINE",
"794 264 LINE"
);
}
);
width = 940;
}
);
note = greater;
unicode = 003E;
},
{
color = 4;
glyphname = question;
layers = (
{
layerId = "5B4932CE-A79B-4666-BF39-F6F4657B0F77";
paths = (
{
closed = 1;
nodes = (
"112 14 OFFCURVE",
"138 -12 OFFCURVE",
"174 -12 CURVE SMOOTH",
"210 -12 OFFCURVE",
"236 14 OFFCURVE",
"236 50 CURVE SMOOTH",
"236 86 OFFCURVE",
"210 112 OFFCURVE",
"174 112 CURVE SMOOTH",
"138 112 OFFCURVE",
"112 86 OFFCURVE",
"112 50 CURVE SMOOTH"
);
},
{
closed = 1;
nodes = (
"136 188 OFFCURVE",
"178 154 OFFCURVE",
"226 154 CURVE SMOOTH",
"284 154 OFFCURVE",
"330 198 OFFCURVE",
"330 254 CURVE SMOOTH",
"330 275 OFFCURVE",
"320 292 OFFCURVE",
"312 300 CURVE",
"300 291 LINE",
"306 284 OFFCURVE",
"310 270 OFFCURVE",
"310 262 CURVE SMOOTH",
"310 226 OFFCURVE",
"290 184 OFFCURVE",
"230 184 CURVE SMOOTH",
"204 184 OFFCURVE",
"178 199 OFFCURVE",
"178 236 CURVE SMOOTH",
"178 268 OFFCURVE",
"206 300 OFFCURVE",
"249 324 CURVE",
"382 388 LINE SMOOTH",
"442 417 OFFCURVE",
"492 472 OFFCURVE",
"492 534 CURVE SMOOTH",
"492 623 OFFCURVE",
"442 694 OFFCURVE",
"333 694 CURVE SMOOTH",
"248 694 OFFCURVE",
"138 626 OFFCURVE",
"138 541 CURVE SMOOTH",
"138 517 OFFCURVE",
"145 503 OFFCURVE",
"156 492 CURVE",
"165 482 OFFCURVE",
"177 478 OFFCURVE",
"191 478 CURVE SMOOTH",
"217 478 OFFCURVE",
"230 500 OFFCURVE",
"230 515 CURVE SMOOTH",
"230 528 OFFCURVE",
"228 535 OFFCURVE",
"220 544 CURVE",
"215 549 OFFCURVE",
"209 552 OFFCURVE",
"199 556 CURVE SMOOTH",
"192 559 OFFCURVE",
"186 566 OFFCURVE",
"186 581 CURVE SMOOTH",
"186 607 OFFCURVE",
"215 664 OFFCURVE",
"324 664 CURVE SMOOTH",
"388 664 OFFCURVE",
"420 612 OFFCURVE",
"420 544 CURVE SMOOTH",
"420 496 OFFCURVE",
"386 462 OFFCURVE",
"342 438 CURVE",
"218 364 LINE SMOOTH",
"172 337 OFFCURVE",
"136 293 OFFCURVE",
"136 242 CURVE SMOOTH"
);
}
);
width = 436;
}
);
note = question;
unicode = 003F;
},
{
color = 4;
glyphname = at;
layers = (
{
layerId = "5B4932CE-A79B-4666-BF39-F6F4657B0F77";
paths = (
{
closed = 1;
nodes = (
"96 134 OFFCURVE",
"231 -18 OFFCURVE",
"458 -18 CURVE SMOOTH",
"562 -18 OFFCURVE",
"631 24 OFFCURVE",
"660 45 CURVE",
"644 68 LINE",
"612 47 OFFCURVE",
"550 10 OFFCURVE",
"468 10 CURVE SMOOTH",
"264 10 OFFCURVE",
"144 135 OFFCURVE",
"144 335 CURVE SMOOTH",
"144 544 OFFCURVE",
"285 702 OFFCURVE",
"459 702 CURVE SMOOTH",
"643 702 OFFCURVE",
"766 590 OFFCURVE",
"766 397 CURVE SMOOTH",
"766 302 OFFCURVE",
"734 155 OFFCURVE",
"602 155 CURVE SMOOTH",
"578 155 OFFCURVE",
"554 191 OFFCURVE",
"572 257 CURVE SMOOTH",
"656 567 LINE",
"584 567 LINE",
"573 524 LINE",
"568 524 LINE",
"564 543 OFFCURVE",
"535 579 OFFCURVE",
"497 579 CURVE SMOOTH",
"445 579 OFFCURVE",
"381 553 OFFCURVE",
"321 481 CURVE SMOOTH",
"275 426 OFFCURVE",
"254 333 OFFCURVE",
"254 255 CURVE SMOOTH",
"254 170 OFFCURVE",
"312 131 OFFCURVE",
"366 131 CURVE SMOOTH",
"426 131 OFFCURVE",
"471 184 OFFCURVE",
"486 207 CURVE",
"491 206 LINE",
"497 159 OFFCURVE",
"536 131 OFFCURVE",
"586 131 CURVE SMOOTH",
"744 131 OFFCURVE",
"814 278 OFFCURVE",
"814 377 CURVE SMOOTH",
"814 572 OFFCURVE",
"693 730 OFFCURVE",
"468 730 CURVE SMOOTH",
"260 730 OFFCURVE",
"96 561 OFFCURVE",
"96 355 CURVE SMOOTH"
);
},
{
closed = 1;
nodes = (
"322 297 OFFCURVE",
"341 385 OFFCURVE",
"364 435 CURVE SMOOTH",
"405 525 OFFCURVE",
"446 555 OFFCURVE",
"497 555 CURVE SMOOTH",
"540 555 OFFCURVE",
"559 472 OFFCURVE",
"545 420 CURVE SMOOTH",
"522 335 LINE SMOOTH",
"498 246 OFFCURVE",
"442 155 OFFCURVE",
"370 155 CURVE SMOOTH",
"348 155 OFFCURVE",
"322 179 OFFCURVE",
"322 223 CURVE SMOOTH"
);
}
);
width = 820;
}
);
note = at;
unicode = 0040;
},
{
color = 4;
glyphname = A;
layers = (
{
layerId = "5B4932CE-A79B-4666-BF39-F6F4657B0F77";
paths = (
{
closed = 1;
nodes = (
"285 276 LINE",
"472 552 LINE",
"472 276 LINE"
);
},
{
closed = 1;
nodes = (
"-44 0 LINE",
"248 0 LINE",
"256 32 LINE",
"201 32 LINE SMOOTH",
"170 32 OFFCURVE",
"161 48 OFFCURVE",
"161 66 CURVE SMOOTH",
"161 90 OFFCURVE",
"181 124 OFFCURVE",
"195 144 CURVE SMOOTH",
"263 244 LINE",
"472 244 LINE",
"472 78 LINE SMOOTH",
"472 37 OFFCURVE",
"453 32 OFFCURVE",
"430 32 CURVE SMOOTH",
"368 32 LINE",
"360 0 LINE",
"656 0 LINE",
"664 32 LINE",
"608 32 LINE SMOOTH",
"581 32 OFFCURVE",
"563 40 OFFCURVE",
"560 75 CURVE",
"560 712 LINE",
"536 712 LINE",
"125 104 LINE",
"104 70 OFFCURVE",
"61 32 OFFCURVE",
"1 32 CURVE SMOOTH",
"-36 32 LINE"
);
}
);
width = 728;
}
);
leftKerningGroup = A;
note = A;
rightKerningGroup = A;
unicode = 0041;
},
{
color = 4;
glyphname = B;
layers = (
{
layerId = "5B4932CE-A79B-4666-BF39-F6F4657B0F77";
paths = (
{
closed = 1;
nodes = (
"281 362 LINE",
"419 362 LINE SMOOTH",
"500 362 OFFCURVE",
"538 302 OFFCURVE",
"538 215 CURVE SMOOTH",
"538 132 OFFCURVE",
"480 32 OFFCURVE",
"381 32 CURVE SMOOTH",
"218 32 LINE SMOOTH",
"200 32 OFFCURVE",
"194 41 OFFCURVE",
"199 59 CURVE SMOOTH"
);
},
{
closed = 1;
nodes = (
"-10 0 LINE",
"364 0 LINE SMOOTH",
"486 0 OFFCURVE",
"644 82 OFFCURVE",
"644 220 CURVE SMOOTH",
"644 310 OFFCURVE",
"568 370 OFFCURVE",
"484 374 CURVE",
"485 376 LINE",
"570 388 OFFCURVE",
"706 438 OFFCURVE",
"706 559 CURVE SMOOTH",
"706 662 OFFCURVE",
"620 712 OFFCURVE",
"530 712 CURVE SMOOTH",
"182 712 LINE",
"174 680 LINE",
"250 680 LINE SMOOTH",
"268 680 OFFCURVE",
"275 672 OFFCURVE",
"269 653 CURVE",
"108 59 LINE SMOOTH",
"103 41 OFFCURVE",
"93 32 OFFCURVE",
"74 32 CURVE SMOOTH",
"-2 32 LINE"
);
},
{
closed = 1;
nodes = (
"290 394 LINE",
"360 653 LINE SMOOTH",
"365 672 OFFCURVE",
"376 680 OFFCURVE",
"394 680 CURVE SMOOTH",
"499 680 LINE SMOOTH",
"568 680 OFFCURVE",
"610 645 OFFCURVE",
"610 561 CURVE SMOOTH",
"610 496 OFFCURVE",
"573 394 OFFCURVE",
"424 394 CURVE SMOOTH"
);
}
);
width = 690;
}
);
note = B;
rightKerningGroup = B;
unicode = 0042;
},
{
color = 4;
glyphname = C;
layers = (
{
layerId = "5B4932CE-A79B-4666-BF39-F6F4657B0F77";
paths = (
{
closed = 1;
nodes = (
"92 60 OFFCURVE",
"208 -18 OFFCURVE",
"304 -18 CURVE SMOOTH",
"472 -18 OFFCURVE",
"570 106 OFFCURVE",
"612 231 CURVE",
"581 242 LINE",
"540 126 OFFCURVE",
"438 14 OFFCURVE",
"321 14 CURVE SMOOTH",
"262 14 OFFCURVE",
"188 30 OFFCURVE",
"188 196 CURVE SMOOTH",
"188 330 OFFCURVE",
"225 459 OFFCURVE",
"266 536 CURVE SMOOTH",
"332 660 OFFCURVE",
"395 698 OFFCURVE",
"470 698 CURVE SMOOTH",
"510 698 OFFCURVE",
"544 683 OFFCURVE",
"571 647 CURVE SMOOTH",
"608 596 OFFCURVE",
"614 507 OFFCURVE",
"614 479 CURVE SMOOTH",
"614 456 OFFCURVE",
"614 436 OFFCURVE",
"613 416 CURVE",
"636 416 LINE",
"700 722 LINE",
"677 722 LINE",
"674 702 OFFCURVE",
"661 649 OFFCURVE",
"632 649 CURVE SMOOTH",
"621 649 OFFCURVE",
"615 654 OFFCURVE",
"603 666 CURVE SMOOTH",
"585 684 LINE SMOOTH",
"567 702 OFFCURVE",
"530 730 OFFCURVE",
"474 730 CURVE SMOOTH",
"284 730 OFFCURVE",
"92 486 OFFCURVE",
"92 252 CURVE SMOOTH"
);
}
);
width = 670;
}
);
leftKerningGroup = C;
note = C;
rightKerningGroup = C;
unicode = 0043;
},
{
color = 4;
glyphname = D;
layers = (
{
layerId = "5B4932CE-A79B-4666-BF39-F6F4657B0F77";
paths = (
{
closed = 1;
nodes = (
"-10 0 LINE",
"334 0 LINE SMOOTH",
"457 0 OFFCURVE",
"550 66 OFFCURVE",
"616 148 CURVE SMOOTH",
"686 234 OFFCURVE",
"726 349 OFFCURVE",
"726 453 CURVE SMOOTH",
"726 603 OFFCURVE",
"647 712 OFFCURVE",
"504 712 CURVE SMOOTH",
"183 712 LINE",
"174 680 LINE",
"250 680 LINE SMOOTH",
"268 680 OFFCURVE",
"275 672 OFFCURVE",
"269 653 CURVE",
"108 59 LINE SMOOTH",
"103 41 OFFCURVE",
"93 32 OFFCURVE",
"74 32 CURVE SMOOTH",
"-2 32 LINE"
);
},
{
closed = 1;
nodes = (
"360 653 LINE SMOOTH",
"365 672 OFFCURVE",
"376 680 OFFCURVE",
"394 680 CURVE SMOOTH",
"482 680 LINE SMOOTH",
"596 680 OFFCURVE",
"630 594 OFFCURVE",
"630 500 CURVE SMOOTH",
"630 375 OFFCURVE",
"600 256 OFFCURVE",
"557 180 CURVE SMOOTH",
"504 86 OFFCURVE",
"433 32 OFFCURVE",
"344 32 CURVE SMOOTH",
"218 32 LINE SMOOTH",
"200 32 OFFCURVE",
"194 41 OFFCURVE",
"199 59 CURVE SMOOTH"
);
}
);
width = 750;
}
);
note = D;
rightKerningGroup = D;
unicode = 0044;
},
{
color = 4;
glyphname = E;
lastChange = "2016-08-29 18:05:34 +0000";
layers = (
{
layerId = "5B4932CE-A79B-4666-BF39-F6F4657B0F77";
paths = (
{
closed = 1;
nodes = (
"-10 0 LINE",
"574 0 LINE",
"658 268 LINE",
"634 268 LINE SMOOTH",
"634 268 OFFCURVE",
"591 146 OFFCURVE",
"528 84 CURVE SMOOTH",
"487 45 OFFCURVE",
"433 32 OFFCURVE",
"404 32 CURVE SMOOTH",
"218 32 LINE SMOOTH",
"200 32 OFFCURVE",
"194 41 OFFCURVE",
"199 59 CURVE SMOOTH",
"279 352 LINE",
"380 352 LINE SMOOTH",
"427 352 OFFCURVE",
"440 320 OFFCURVE",
"440 277 CURVE SMOOTH",
"440 252 OFFCURVE",
"435 224 OFFCURVE",
"430 202 CURVE",
"455 202 LINE",
"541 526 LINE",
"516 526 LINE",
"501 468 OFFCURVE",
"479 384 OFFCURVE",
"395 384 CURVE SMOOTH",
"287 384 LINE",
"360 653 LINE SMOOTH",
"365 672 OFFCURVE",
"376 680 OFFCURVE",
"394 680 CURVE SMOOTH",
"558 680 LINE SMOOTH",
"624 680 OFFCURVE",
"666 650 OFFCURVE",
"666 532 CURVE SMOOTH",
"666 505 OFFCURVE",
"663 484 OFFCURVE",
"663 484 CURVE",
"688 484 LINE",
"734 712 LINE",
"182 712 LINE",
"174 680 LINE",
"250 680 LINE SMOOTH",
"268 680 OFFCURVE",
"275 672 OFFCURVE",
"269 653 CURVE",
"108 59 LINE SMOOTH",
"103 41 OFFCURVE",
"93 32 OFFCURVE",
"74 32 CURVE SMOOTH",
"-2 32 LINE"
);
}
);
width = 700;
}
);
note = E;
unicode = 0045;
},
{
color = 4;
glyphname = F;
lastChange = "2016-08-29 18:05:34 +0000";
layers = (
{
layerId = "5B4932CE-A79B-4666-BF39-F6F4657B0F77";
paths = (
{
closed = 1;
nodes = (
"-10 0 LINE",
"322 0 LINE",
"330 32 LINE",
"218 32 LINE SMOOTH",
"200 32 OFFCURVE",
"194 41 OFFCURVE",
"199 59 CURVE SMOOTH",
"279 352 LINE",
"379 352 LINE SMOOTH",
"426 352 OFFCURVE",
"439 320 OFFCURVE",
"439 277 CURVE SMOOTH",
"439 252 OFFCURVE",
"434 224 OFFCURVE",
"429 202 CURVE",
"454 202 LINE",
"540 526 LINE",
"515 526 LINE",
"500 468 OFFCURVE",
"478 384 OFFCURVE",
"394 384 CURVE SMOOTH",
"287 384 LINE",
"360 653 LINE SMOOTH",
"365 672 OFFCURVE",
"376 680 OFFCURVE",
"394 680 CURVE SMOOTH",
"558 680 LINE SMOOTH",
"624 680 OFFCURVE",
"666 650 OFFCURVE",
"666 532 CURVE SMOOTH",
"666 505 OFFCURVE",
"663 484 OFFCURVE",
"663 484 CURVE",
"688 484 LINE",
"734 712 LINE",
"182 712 LINE",
"174 680 LINE",
"250 680 LINE SMOOTH",
"268 680 OFFCURVE",
"275 672 OFFCURVE",
"269 653 CURVE",
"108 59 LINE SMOOTH",
"103 41 OFFCURVE",
"93 32 OFFCURVE",
"74 32 CURVE SMOOTH",
"-2 32 LINE"
);
}
);
width = 680;
}
);
note = F;
rightKerningGroup = F;
unicode = 0046;
},
{
color = 4;
glyphname = G;
layers = (
{
layerId = "5B4932CE-A79B-4666-BF39-F6F4657B0F77";
paths = (
{
closed = 1;
nodes = (
"92 84 OFFCURVE",
"188 -18 OFFCURVE",
"304 -18 CURVE SMOOTH",
"376 -18 OFFCURVE",
"437 19 OFFCURVE",
"485 70 CURVE",
"498 85 OFFCURVE",
"510 97 OFFCURVE",
"522 97 CURVE SMOOTH",
"537 97 OFFCURVE",
"537 64 OFFCURVE",
"537 56 CURVE SMOOTH",
"537 -14 LINE",
"562 -14 LINE",
"623 277 LINE",
"628 295 OFFCURVE",
"639 304 OFFCURVE",
"658 304 CURVE SMOOTH",
"722 304 LINE",
"730 336 LINE",
"420 336 LINE",
"412 304 LINE",
"512 304 LINE SMOOTH",
"527 304 OFFCURVE",
"533 298 OFFCURVE",
"533 288 CURVE SMOOTH",
"533 285 OFFCURVE",
"533 281 OFFCURVE",
"532 277 CURVE",
"521 224 LINE SMOOTH",
"502 133 OFFCURVE",
"420 14 OFFCURVE",
"314 14 CURVE SMOOTH",
"264 14 OFFCURVE",
"188 26 OFFCURVE",
"188 196 CURVE SMOOTH",
"188 330 OFFCURVE",
"225 459 OFFCURVE",
"266 536 CURVE SMOOTH",
"333 662 OFFCURVE",
"395 698 OFFCURVE",
"470 698 CURVE SMOOTH",
"510 698 OFFCURVE",
"562 685 OFFCURVE",
"595 647 CURVE SMOOTH",
"637 598 OFFCURVE",
"638 507 OFFCURVE",
"638 479 CURVE SMOOTH",
"638 456 OFFCURVE",
"638 435 OFFCURVE",
"637 416 CURVE",
"660 416 LINE",
"724 722 LINE",
"701 722 LINE",
"697 700 OFFCURVE",
"687 649 OFFCURVE",
"657 649 CURVE SMOOTH",
"644 649 OFFCURVE",
"634 658 OFFCURVE",
"614 676 CURVE SMOOTH",
"580 706 OFFCURVE",
"534 730 OFFCURVE",
"474 730 CURVE SMOOTH",
"282 730 OFFCURVE",
"92 486 OFFCURVE",
"92 252 CURVE SMOOTH"
);
}
);
width = 740;
}
);
leftKerningGroup = C;
note = G;
rightKerningGroup = G;
unicode = 0047;
},
{
color = 4;
glyphname = H;
layers = (
{
layerId = "5B4932CE-A79B-4666-BF39-F6F4657B0F77";
paths = (
{
closed = 1;
nodes = (
"-10 0 LINE",
"286 0 LINE",
"294 32 LINE",
"218 32 LINE SMOOTH",
"200 32 OFFCURVE",
"194 41 OFFCURVE",
"199 59 CURVE SMOOTH",
"279 352 LINE",
"588 352 LINE",
"508 59 LINE SMOOTH",
"503 41 OFFCURVE",
"492 32 OFFCURVE",
"474 32 CURVE SMOOTH",
"398 32 LINE",
"390 0 LINE",
"686 0 LINE",
"694 32 LINE",
"618 32 LINE SMOOTH",
"600 32 OFFCURVE",
"594 41 OFFCURVE",
"599 59 CURVE SMOOTH",
"760 653 LINE SMOOTH",
"765 671 OFFCURVE",
"775 680 OFFCURVE",
"794 680 CURVE SMOOTH",
"870 680 LINE",
"878 712 LINE",
"582 712 LINE",
"574 680 LINE",
"650 680 LINE SMOOTH",
"669 680 OFFCURVE",
"674 671 OFFCURVE",
"669 653 CURVE SMOOTH",
"596 384 LINE",
"287 384 LINE",
"360 653 LINE SMOOTH",
"365 671 OFFCURVE",
"375 680 OFFCURVE",
"394 680 CURVE SMOOTH",
"470 680 LINE",
"478 712 LINE",
"182 712 LINE",
"174 680 LINE",
"250 680 LINE SMOOTH",
"268 680 OFFCURVE",
"274 671 OFFCURVE",
"269 653 CURVE SMOOTH",
"108 59 LINE SMOOTH",
"103 41 OFFCURVE",
"93 32 OFFCURVE",
"74 32 CURVE SMOOTH",
"-2 32 LINE"
);
}
);
width = 800;
}
);
note = H;
unicode = 0048;
},
{
color = 4;
glyphname = I;
layers = (
{
layerId = "5B4932CE-A79B-4666-BF39-F6F4657B0F77";
paths = (
{
closed = 1;
nodes = (
"-10 0 LINE",
"286 0 LINE",
"294 32 LINE",
"218 32 LINE SMOOTH",
"200 32 OFFCURVE",
"194 41 OFFCURVE",
"199 59 CURVE SMOOTH",
"360 653 LINE SMOOTH",
"365 672 OFFCURVE",
"376 680 OFFCURVE",
"394 680 CURVE SMOOTH",
"470 680 LINE",
"478 712 LINE",
"182 712 LINE",
"174 680 LINE",
"250 680 LINE SMOOTH",
"268 680 OFFCURVE",
"275 672 OFFCURVE",
"269 653 CURVE",
"108 59 LINE SMOOTH",
"103 41 OFFCURVE",
"93 32 OFFCURVE",
"74 32 CURVE SMOOTH",
"-2 32 LINE"
);
}
);
width = 400;
}
);
note = I;
unicode = 0049;
},
{
color = 4;
glyphname = J;
layers = (
{
layerId = "5B4932CE-A79B-4666-BF39-F6F4657B0F77";
paths = (
{
closed = 1;
nodes = (
"14 38 OFFCURVE",
"63 -18 OFFCURVE",
"148 -18 CURVE SMOOTH",
"252 -18 OFFCURVE",
"360 56 OFFCURVE",
"395 185 CURVE SMOOTH",
"522 653 LINE SMOOTH",
"527 672 OFFCURVE",
"538 680 OFFCURVE",
"556 680 CURVE SMOOTH",
"632 680 LINE",
"640 712 LINE",
"308 712 LINE",
"300 680 LINE",
"412 680 LINE SMOOTH",
"426 680 OFFCURVE",
"433 675 OFFCURVE",
"433 665 CURVE SMOOTH",
"433 661 OFFCURVE",
"432 657 OFFCURVE",
"431 653 CURVE SMOOTH",
"292 139 LINE SMOOTH",
"275 74 OFFCURVE",
"225 14 OFFCURVE",
"156 14 CURVE SMOOTH",
"105 14 OFFCURVE",
"80 35 OFFCURVE",
"80 68 CURVE SMOOTH",
"80 80 OFFCURVE",
"87 91 OFFCURVE",
"100 91 CURVE SMOOTH",
"144 91 OFFCURVE",
"166 121 OFFCURVE",
"166 159 CURVE SMOOTH",
"166 193 OFFCURVE",
"139 216 OFFCURVE",
"104 216 CURVE SMOOTH",
"55 216 OFFCURVE",
"14 175 OFFCURVE",
"14 110 CURVE SMOOTH"
);
}
);
width = 540;
}
);
leftKerningGroup = J;
note = J;
rightKerningGroup = J;
unicode = 004A;
},
{
color = 4;
glyphname = K;
layers = (
{
layerId = "5B4932CE-A79B-4666-BF39-F6F4657B0F77";
paths = (
{
closed = 1;
nodes = (
"-10 0 LINE",
"286 0 LINE",
"294 32 LINE",
"218 32 LINE SMOOTH",
"200 32 OFFCURVE",
"194 41 OFFCURVE",
"199 59 CURVE SMOOTH",
"267 307 LINE",
"375 387 LINE",
"474 78 LINE SMOOTH",
"485 43 OFFCURVE",
"463 32 OFFCURVE",
"442 32 CURVE SMOOTH",
"390 32 LINE",
"382 0 LINE",
"674 0 LINE",
"682 32 LINE",
"640 32 LINE SMOOTH",
"596 32 OFFCURVE",
"582 44 OFFCURVE",
"570 76 CURVE",
"448 442 LINE",
"691 622 LINE SMOOTH",
"759 672 OFFCURVE",
"800 680 OFFCURVE",
"836 680 CURVE",
"844 712 LINE",
"570 712 LINE",
"562 680 LINE",
"586 680 LINE SMOOTH",
"612 680 OFFCURVE",
"640 674 OFFCURVE",
"640 654 CURVE SMOOTH",
"640 628 OFFCURVE",
"615 608 OFFCURVE",
"578 580 CURVE SMOOTH",
"280 356 LINE",
"360 653 LINE SMOOTH",
"365 672 OFFCURVE",
"376 680 OFFCURVE",
"394 680 CURVE SMOOTH",
"470 680 LINE",
"478 712 LINE",
"182 712 LINE",
"174 680 LINE",
"250 680 LINE SMOOTH",
"268 680 OFFCURVE",
"275 672 OFFCURVE",
"269 653 CURVE",
"108 59 LINE SMOOTH",
"103 41 OFFCURVE",
"93 32 OFFCURVE",
"74 32 CURVE SMOOTH",
"-2 32 LINE"
);
}
);
width = 756;
}
);
note = K;
rightKerningGroup = K;
unicode = 004B;
},
{
color = 4;
glyphname = L;
layers = (
{
layerId = "5B4932CE-A79B-4666-BF39-F6F4657B0F77";
paths = (
{
closed = 1;
nodes = (
"-10 0 LINE",
"574 0 LINE",
"658 268 LINE",
"634 268 LINE SMOOTH",
"634 268 OFFCURVE",
"591 146 OFFCURVE",
"528 84 CURVE SMOOTH",
"487 45 OFFCURVE",
"433 32 OFFCURVE",
"404 32 CURVE SMOOTH",
"218 32 LINE SMOOTH",
"200 32 OFFCURVE",
"194 41 OFFCURVE",
"199 59 CURVE SMOOTH",
"360 653 LINE SMOOTH",
"365 672 OFFCURVE",
"376 680 OFFCURVE",
"394 680 CURVE SMOOTH",
"470 680 LINE",
"478 712 LINE",
"183 712 LINE",
"174 680 LINE",
"250 680 LINE SMOOTH",
"268 680 OFFCURVE",
"275 672 OFFCURVE",
"269 653 CURVE",
"108 59 LINE SMOOTH",
"103 41 OFFCURVE",
"93 32 OFFCURVE",
"74 32 CURVE SMOOTH",
"-2 32 LINE"
);
}
);
width = 680;
}
);
note = L;
rightKerningGroup = L;
unicode = 004C;
},
{
color = 4;
glyphname = M;
layers = (
{
layerId = "5B4932CE-A79B-4666-BF39-F6F4657B0F77";
paths = (
{
closed = 1;
nodes = (
"-10 0 LINE",
"260 0 LINE",
"268 32 LINE",
"220 32 LINE SMOOTH",
"183 32 OFFCURVE",
"170 54 OFFCURVE",
"170 84 CURVE SMOOTH",
"170 97 OFFCURVE",
"172 111 OFFCURVE",
"176 126 CURVE SMOOTH",
"328 680 LINE",
"348 680 LINE",
"348 -12 LINE",
"373 -12 LINE",
"755 680 LINE",
"770 680 LINE",
"602 59 LINE SMOOTH",
"597 41 OFFCURVE",
"587 32 OFFCURVE",
"568 32 CURVE SMOOTH",
"492 32 LINE",
"484 0 LINE",
"782 0 LINE",
"790 32 LINE",
"714 32 LINE SMOOTH",
"695 32 OFFCURVE",
"688 41 OFFCURVE",
"693 59 CURVE SMOOTH",
"854 653 LINE SMOOTH",
"859 672 OFFCURVE",
"869 680 OFFCURVE",
"888 680 CURVE SMOOTH",
"964 680 LINE",
"972 712 LINE",
"740 712 LINE",
"436 157 LINE",
"436 712 LINE",
"182 712 LINE",
"174 680 LINE",
"261 680 LINE SMOOTH",
"279 680 OFFCURVE",
"286 672 OFFCURVE",
"280 653 CURVE",
"137 126 LINE SMOOTH",
"123 76 OFFCURVE",
"92 32 OFFCURVE",
"46 32 CURVE SMOOTH",
"-2 32 LINE"
);
}
);
width = 894;
}
);
note = M;
unicode = 004D;
},
{
color = 4;
glyphname = N;
layers = (
{
layerId = "5B4932CE-A79B-4666-BF39-F6F4657B0F77";
paths = (
{
closed = 1;
nodes = (
"-10 0 LINE",
"260 0 LINE",
"268 32 LINE",
"220 32 LINE SMOOTH",
"182 32 OFFCURVE",
"170 53 OFFCURVE",
"170 83 CURVE SMOOTH",
"170 96 OFFCURVE",
"172 111 OFFCURVE",
"176 126 CURVE SMOOTH",
"307 603 LINE",
"312 603 LINE",
"533 -18 LINE",
"573 -18 LINE",
"737 586 LINE SMOOTH",
"753 646 OFFCURVE",
"791 680 OFFCURVE",
"828 680 CURVE SMOOTH",
"876 680 LINE",
"884 712 LINE",
"614 712 LINE",
"606 680 LINE",
"654 680 LINE SMOOTH",
"687 680 OFFCURVE",
"705 664 OFFCURVE",
"705 629 CURVE SMOOTH",
"705 617 OFFCURVE",
"703 603 OFFCURVE",
"698 586 CURVE SMOOTH",
"573 129 LINE",
"364 712 LINE",
"182 712 LINE",
"174 680 LINE",
"261 680 LINE SMOOTH",
"279 680 OFFCURVE",
"285 672 OFFCURVE",
"280 653 CURVE SMOOTH",
"137 126 LINE SMOOTH",
"124 76 OFFCURVE",
"91 32 OFFCURVE",
"46 32 CURVE SMOOTH",
"-2 32 LINE"
);
}
);
width = 790;
}
);
note = N;
rightKerningGroup = G;
unicode = 004E;
},
{
color = 4;
glyphname = O;
layers = (
{
layerId = "5B4932CE-A79B-4666-BF39-F6F4657B0F77";
paths = (
{
closed = 1;
nodes = (
"188 227 OFFCURVE",
"190 346 OFFCURVE",
"232 464 CURVE SMOOTH",
"266 559 OFFCURVE",
"338 698 OFFCURVE",
"466 698 CURVE SMOOTH",
"544 698 OFFCURVE",
"590 638 OFFCURVE",
"590 520 CURVE SMOOTH",
"590 485 OFFCURVE",
"588 366 OFFCURVE",
"546 248 CURVE SMOOTH",
"512 153 OFFCURVE",
"440 14 OFFCURVE",
"312 14 CURVE SMOOTH",
"234 14 OFFCURVE",
"188 74 OFFCURVE",
"188 192 CURVE SMOOTH"
);
},
{
closed = 1;
nodes = (
"92 104 OFFCURVE",
"172 -18 OFFCURVE",
"304 -18 CURVE SMOOTH",
"488 -18 OFFCURVE",
"686 192 OFFCURVE",
"686 462 CURVE SMOOTH",
"686 606 OFFCURVE",
"606 730 OFFCURVE",
"474 730 CURVE SMOOTH",
"290 730 OFFCURVE",
"92 518 OFFCURVE",
"92 248 CURVE SMOOTH"
);
}
);
width = 710;
}
);
leftKerningGroup = O;
note = O;
rightKerningGroup = O;
unicode = 004F;
},
{
color = 4;
glyphname = P;
layers = (
{
layerId = "5B4932CE-A79B-4666-BF39-F6F4657B0F77";
paths = (
{
closed = 1;
nodes = (
"-10 0 LINE",
"322 0 LINE",
"330 32 LINE",
"218 32 LINE SMOOTH",
"201 32 OFFCURVE",
"195 37 OFFCURVE",
"199 59 CURVE",
"272 328 LINE",
"394 328 LINE SMOOTH",
"576 328 OFFCURVE",
"690 436 OFFCURVE",
"690 554 CURVE SMOOTH",
"690 657 OFFCURVE",
"620 712 OFFCURVE",
"524 712 CURVE SMOOTH",
"183 712 LINE",
"174 680 LINE",
"250 680 LINE SMOOTH",
"271 680 OFFCURVE",
"274 670 OFFCURVE",
"269 653 CURVE SMOOTH",
"108 59 LINE SMOOTH",
"103 41 OFFCURVE",
"93 32 OFFCURVE",
"74 32 CURVE SMOOTH",
"-2 32 LINE"
);
},
{
closed = 1;
nodes = (
"281 360 LINE",
"360 653 LINE SMOOTH",
"365 672 OFFCURVE",
"376 680 OFFCURVE",
"394 680 CURVE SMOOTH",
"502 680 LINE SMOOTH",
"549 680 OFFCURVE",
"594 650 OFFCURVE",
"594 572 CURVE SMOOTH",
"594 524 OFFCURVE",
"580 470 OFFCURVE",
"552 432 CURVE SMOOTH",
"519 387 OFFCURVE",
"466 360 OFFCURVE",
"415 360 CURVE SMOOTH"
);
}
);
width = 654;
}
);
note = P;
rightKerningGroup = P;
unicode = 0050;
},
{
color = 4;
glyphname = Q;
layers = (
{
layerId = "5B4932CE-A79B-4666-BF39-F6F4657B0F77";
paths = (
{
closed = 1;
nodes = (
"188 452 OFFCURVE",
"300 698 OFFCURVE",
"466 698 CURVE SMOOTH",
"544 698 OFFCURVE",
"590 638 OFFCURVE",
"590 520 CURVE SMOOTH",
"590 318 OFFCURVE",
"526 128 OFFCURVE",
"411 45 CURVE",
"405 129 OFFCURVE",
"374 183 OFFCURVE",
"322 183 CURVE SMOOTH",
"278 183 OFFCURVE",
"231 159 OFFCURVE",
"231 82 CURVE SMOOTH",
"231 65 OFFCURVE",
"236 49 OFFCURVE",
"244 38 CURVE",
"240 38 LINE",
"209 63 OFFCURVE",
"188 111 OFFCURVE",
"188 192 CURVE SMOOTH"
);
},
{
closed = 1;
nodes = (
"92 104 OFFCURVE",
"172 -18 OFFCURVE",
"304 -18 CURVE SMOOTH",
"317 -18 OFFCURVE",
"322 -18 OFFCURVE",
"337 -15 CURVE",
"331 -40 LINE SMOOTH",
"327 -59 OFFCURVE",
"324 -78 OFFCURVE",
"324 -91 CURVE SMOOTH",
"324 -155 OFFCURVE",
"369 -184 OFFCURVE",
"424 -184 CURVE SMOOTH",
"472 -184 OFFCURVE",
"539 -158 OFFCURVE",
"572 -17 CURVE",
"548 -10 LINE",
"533 -64 OFFCURVE",
"506 -132 OFFCURVE",
"457 -132 CURVE SMOOTH",
"412 -132 OFFCURVE",
"412 -72 OFFCURVE",
"412 -39 CURVE SMOOTH",
"412 5 LINE",
"523 45 OFFCURVE",
"686 216 OFFCURVE",
"686 460 CURVE SMOOTH",
"686 608 OFFCURVE",
"606 730 OFFCURVE",
"474 730 CURVE SMOOTH",
"290 730 OFFCURVE",
"92 518 OFFCURVE",
"92 248 CURVE SMOOTH"
);
},
{
closed = 1;
nodes = (
"259 131 OFFCURVE",
"278 155 OFFCURVE",
"308 155 CURVE SMOOTH",
"352 155 OFFCURVE",
"355 110 OFFCURVE",
"355 81 CURVE SMOOTH",
"355 70 OFFCURVE",
"354 63 OFFCURVE",
"352 55 CURVE SMOOTH",
"344 18 LINE",
"334 16 OFFCURVE",
"323 14 OFFCURVE",
"311 14 CURVE SMOOTH",
"282 14 OFFCURVE",
"259 34 OFFCURVE",
"259 82 CURVE SMOOTH"
);
}
);
width = 710;
}
);
leftKerningGroup = O;
note = Q;
unicode = 0051;
},
{
color = 4;
glyphname = R;
layers = (
{
layerId = "5B4932CE-A79B-4666-BF39-F6F4657B0F77";
paths = (
{
closed = 1;
nodes = (
"-10 0 LINE",
"310 0 LINE",
"318 32 LINE",
"218 32 LINE SMOOTH",
"200 32 OFFCURVE",
"195 40 OFFCURVE",
"199 59 CURVE",
"279 356 LINE",
"414 356 LINE SMOOTH",
"456 356 OFFCURVE",
"490 332 OFFCURVE",
"490 277 CURVE SMOOTH",
"490 229 OFFCURVE",
"454 150 OFFCURVE",
"454 81 CURVE SMOOTH",
"454 8 OFFCURVE",
"499 -12 OFFCURVE",
"546 -12 CURVE SMOOTH",
"651 -12 OFFCURVE",
"680 107 OFFCURVE",
"694 155 CURVE",
"669 162 LINE",
"657 120 OFFCURVE",
"632 40 OFFCURVE",
"576 40 CURVE SMOOTH",
"555 40 OFFCURVE",
"548 56 OFFCURVE",
"548 72 CURVE SMOOTH",
"548 110 OFFCURVE",
"570 173 OFFCURVE",
"570 220 CURVE SMOOTH",
"570 315 OFFCURVE",
"510 350 OFFCURVE",
"479 365 CURVE",
"480 369 LINE",
"578 387 OFFCURVE",
"672 462 OFFCURVE",
"672 550 CURVE SMOOTH",
"672 658 OFFCURVE",
"605 712 OFFCURVE",
"493 712 CURVE SMOOTH",
"182 712 LINE",
"174 680 LINE",
"250 680 LINE SMOOTH",
"268 680 OFFCURVE",
"274 673 OFFCURVE",
"269 653 CURVE SMOOTH",
"108 59 LINE SMOOTH",
"103 41 OFFCURVE",
"93 32 OFFCURVE",
"74 32 CURVE SMOOTH",
"-2 32 LINE"
);
},
{
closed = 1;
nodes = (
"288 388 LINE",
"360 653 LINE SMOOTH",
"365 672 OFFCURVE",
"376 680 OFFCURVE",
"394 680 CURVE SMOOTH",
"474 680 LINE SMOOTH",
"539 680 OFFCURVE",
"576 646 OFFCURVE",
"576 574 CURVE SMOOTH",
"576 455 OFFCURVE",
"510 388 OFFCURVE",
"410 388 CURVE SMOOTH"
);
}
);
width = 720;
}
);
note = R;
rightKerningGroup = R;
unicode = 0052;
},
{
color = 4;
glyphname = S;
layers = (
{
layerId = "5B4932CE-A79B-4666-BF39-F6F4657B0F77";
paths = (
{
closed = 1;
nodes = (
"34 -10 LINE",
"57 -10 LINE",
"63 10 OFFCURVE",
"84 73 OFFCURVE",
"109 73 CURVE SMOOTH",
"118 73 OFFCURVE",
"127 65 OFFCURVE",
"139 53 CURVE SMOOTH",
"148 44 OFFCURVE",
"215 -18 OFFCURVE",
"311 -18 CURVE SMOOTH",
"467 -18 OFFCURVE",
"555 67 OFFCURVE",
"555 198 CURVE SMOOTH",
"555 294 OFFCURVE",
"507 332 OFFCURVE",
"427 380 CURVE SMOOTH",
"333 435 LINE SMOOTH",
"289 460 OFFCURVE",
"231 494 OFFCURVE",
"231 565 CURVE SMOOTH",
"231 629 OFFCURVE",
"279 698 OFFCURVE",
"387 698 CURVE SMOOTH",
"485 698 OFFCURVE",
"552 556 OFFCURVE",
"547 462 CURVE",
"570 462 LINE",
"628 722 LINE",
"605 722 LINE",
"599 701 OFFCURVE",
"579 656 OFFCURVE",
"554 656 CURVE SMOOTH",
"545 656 OFFCURVE",
"538 660 OFFCURVE",
"525 672 CURVE SMOOTH",
"506 689 OFFCURVE",
"451 730 OFFCURVE",
"396 730 CURVE SMOOTH",
"273 730 OFFCURVE",
"177 666 OFFCURVE",
"177 520 CURVE SMOOTH",
"177 428 OFFCURVE",
"218 384 OFFCURVE",
"294 339 CURVE SMOOTH",
"410 268 LINE SMOOTH",
"457 239 OFFCURVE",
"491 210 OFFCURVE",
"491 152 CURVE SMOOTH",
"491 61 OFFCURVE",
"431 14 OFFCURVE",
"319 14 CURVE SMOOTH",
"204 14 OFFCURVE",
"109 156 OFFCURVE",
"137 306 CURVE",
"114 306 LINE"
);
}
);
width = 620;
}
);
note = S;
rightKerningGroup = S;
unicode = 0053;
},
{
color = 4;
glyphname = T;
layers = (
{
layerId = "5B4932CE-A79B-4666-BF39-F6F4657B0F77";
paths = (
{
closed = 1;
nodes = (
"106 0 LINE",
"448 0 LINE",
"456 32 LINE",
"356 32 LINE SMOOTH",
"338 32 OFFCURVE",
"334 41 OFFCURVE",
"338 59 CURVE",
"499 653 LINE",
"503 672 OFFCURVE",
"516 680 OFFCURVE",
"535 680 CURVE SMOOTH",
"568 680 LINE SMOOTH",
"607 680 OFFCURVE",
"668 659 OFFCURVE",
"668 548 CURVE SMOOTH",
"668 494 OFFCURVE",
"656 444 OFFCURVE",
"656 444 CURVE",
"681 444 LINE",
"744 712 LINE",
"196 712 LINE",
"116 444 LINE",
"141 444 LINE",
"141 445 OFFCURVE",
"177 564 OFFCURVE",
"242 627 CURVE SMOOTH",
"259 643 OFFCURVE",
"305 680 OFFCURVE",
"357 680 CURVE SMOOTH",
"390 680 LINE SMOOTH",
"406 680 OFFCURVE",
"414 673 OFFCURVE",
"408 653 CURVE SMOOTH",
"247 59 LINE SMOOTH",
"242 41 OFFCURVE",
"232 32 OFFCURVE",
"214 32 CURVE SMOOTH",
"114 32 LINE"
);
}
);
width = 690;
}
);
leftKerningGroup = T;
note = T;
rightKerningGroup = T;
unicode = 0054;
},
{
color = 4;
glyphname = U;
layers = (
{
layerId = "5B4932CE-A79B-4666-BF39-F6F4657B0F77";
paths = (
{
closed = 1;
nodes = (
"130 71 OFFCURVE",
"202 -18 OFFCURVE",
"361 -18 CURVE SMOOTH",
"527 -18 OFFCURVE",
"595 83 OFFCURVE",
"629 208 CURVE SMOOTH",
"733 586 LINE SMOOTH",
"747 639 OFFCURVE",
"782 680 OFFCURVE",
"824 680 CURVE SMOOTH",
"872 680 LINE",
"880 712 LINE",
"610 712 LINE",
"602 680 LINE",
"650 680 LINE SMOOTH",
"691 680 OFFCURVE",
"701 653 OFFCURVE",
"701 630 CURVE SMOOTH",
"701 620 OFFCURVE",
"698 600 OFFCURVE",
"695 588 CURVE SMOOTH",
"588 198 LINE SMOOTH",
"564 108 OFFCURVE",
"500 14 OFFCURVE",
"369 14 CURVE SMOOTH",
"278 14 OFFCURVE",
"214 65 OFFCURVE",
"214 154 CURVE SMOOTH",
"214 172 OFFCURVE",
"218 190 OFFCURVE",
"223 211 CURVE SMOOTH",
"342 653 LINE SMOOTH",
"347 672 OFFCURVE",
"357 680 OFFCURVE",
"376 680 CURVE SMOOTH",
"452 680 LINE",
"460 712 LINE",
"164 712 LINE",
"156 680 LINE",
"232 680 LINE SMOOTH",
"250 680 OFFCURVE",
"256 672 OFFCURVE",
"251 653 CURVE SMOOTH",
"139 238 LINE SMOOTH",
"134 217 OFFCURVE",
"130 195 OFFCURVE",
"130 176 CURVE SMOOTH"
);
}
);
width = 784;
}
);
leftKerningGroup = U;
note = U;
rightKerningGroup = U;
unicode = 0055;
},
{
color = 4;
glyphname = V;
layers = (
{
layerId = "5B4932CE-A79B-4666-BF39-F6F4657B0F77";
paths = (
{
closed = 1;
nodes = (
"140 680 LINE",
"200 680 LINE SMOOTH",
"227 680 OFFCURVE",
"244 672 OFFCURVE",
"248 636 CURVE",
"248 -18 LINE",
"273 -18 LINE",
"687 607 LINE",
"708 642 OFFCURVE",
"753 680 OFFCURVE",
"807 680 CURVE SMOOTH",
"846 680 LINE",
"854 712 LINE",
"558 712 LINE",
"550 680 LINE",
"594 680 LINE SMOOTH",
"623 680 OFFCURVE",
"638 662 OFFCURVE",
"638 638 CURVE SMOOTH",
"638 606 OFFCURVE",
"621 574 OFFCURVE",
"596 536 CURVE SMOOTH",
"336 139 LINE",
"336 633 LINE SMOOTH",
"336 660 OFFCURVE",
"341 680 OFFCURVE",
"374 680 CURVE SMOOTH",
"444 680 LINE",
"452 712 LINE",
"148 712 LINE"
);
}
);
width = 752;
}
);
leftKerningGroup = V;
note = V;
rightKerningGroup = V;
unicode = 0056;
},
{
color = 4;
glyphname = W;
layers = (
{
layerId = "5B4932CE-A79B-4666-BF39-F6F4657B0F77";
paths = (
{
closed = 1;
nodes = (
"140 680 LINE",
"197 680 LINE SMOOTH",
"224 680 OFFCURVE",
"240 672 OFFCURVE",
"244 636 CURVE",
"244 -18 LINE",
"269 -18 LINE",
"607 517 LINE",
"607 -18 LINE",
"632 -18 LINE",
"1025 605 LINE SMOOTH",
"1046 640 OFFCURVE",
"1077 680 OFFCURVE",
"1128 680 CURVE SMOOTH",
"1172 680 LINE",
"1180 712 LINE",
"884 712 LINE",
"876 680 LINE",
"931 680 LINE SMOOTH",
"954 680 OFFCURVE",
"971 654 OFFCURVE",
"971 636 CURVE SMOOTH",
"971 599 OFFCURVE",
"951 559 OFFCURVE",
"933 531 CURVE SMOOTH",
"695 156 LINE",
"695 617 LINE SMOOTH",
"695 654 OFFCURVE",
"713 680 OFFCURVE",
"747 680 CURVE SMOOTH",
"804 680 LINE",
"812 712 LINE",
"516 712 LINE",
"508 680 LINE",
"560 680 LINE SMOOTH",
"587 680 OFFCURVE",
"607 672 OFFCURVE",
"607 636 CURVE SMOOTH",
"607 620 OFFCURVE",
"605 580 OFFCURVE",
"576 536 CURVE SMOOTH",
"332 145 LINE",
"332 633 LINE SMOOTH",
"332 660 OFFCURVE",
"335 680 OFFCURVE",
"368 680 CURVE SMOOTH",
"436 680 LINE",
"444 712 LINE",
"148 712 LINE"
);
}
);
width = 1078;
}
);
leftKerningGroup = V;
note = W;
rightKerningGroup = V;
unicode = 0057;
},
{
color = 4;
glyphname = X;
layers = (
{
layerId = "5B4932CE-A79B-4666-BF39-F6F4657B0F77";
paths = (
{
closed = 1;
nodes = (
"10 0 LINE",
"330 0 LINE",
"339 32 LINE",
"305 32 LINE SMOOTH",
"286 32 OFFCURVE",
"253 35 OFFCURVE",
"253 74 CURVE SMOOTH",
"253 100 OFFCURVE",
"259 116 OFFCURVE",
"281 140 CURVE SMOOTH",
"434 309 LINE",
"538 80 LINE SMOOTH",
"552 49 OFFCURVE",
"530 32 OFFCURVE",
"504 32 CURVE SMOOTH",
"440 32 LINE",
"432 0 LINE",
"752 0 LINE",
"760 32 LINE",
"699 32 LINE SMOOTH",
"672 32 OFFCURVE",
"657 36 OFFCURVE",
"642 68 CURVE SMOOTH",
"499 381 LINE",
"722 628 LINE SMOOTH",
"758 667 OFFCURVE",
"803 680 OFFCURVE",
"842 680 CURVE SMOOTH",
"878 680 LINE",
"886 712 LINE",
"574 712 LINE",
"566 680 LINE",
"603 680 LINE SMOOTH",
"633 680 OFFCURVE",
"654 668 OFFCURVE",
"654 638 CURVE SMOOTH",
"654 613 OFFCURVE",
"648 597 OFFCURVE",
"634 582 CURVE SMOOTH",
"483 417 LINE",
"386 630 LINE SMOOTH",
"373 659 OFFCURVE",
"401 680 OFFCURVE",
"419 680 CURVE SMOOTH",
"464 680 LINE",
"472 712 LINE",
"160 712 LINE",
"152 680 LINE",
"220 680 LINE SMOOTH",
"266 680 OFFCURVE",
"274 663 OFFCURVE",
"289 630 CURVE SMOOTH",
"418 345 LINE",
"201 108 LINE SMOOTH",
"163 66 OFFCURVE",
"122 32 OFFCURVE",
"62 32 CURVE SMOOTH",
"19 32 LINE"
);
}
);
width = 840;
}
);
leftKerningGroup = X;
note = X;
rightKerningGroup = X;
unicode = 0058;
},
{
color = 4;
glyphname = Y;
layers = (
{
layerId = "5B4932CE-A79B-4666-BF39-F6F4657B0F77";
paths = (
{
closed = 1;
nodes = (
"106 0 LINE",
"448 0 LINE",
"456 32 LINE",
"356 32 LINE SMOOTH",
"338 32 OFFCURVE",
"332 40 OFFCURVE",
"338 58 CURVE",
"411 329 LINE",
"656 607 LINE SMOOTH",
"683 639 OFFCURVE",
"724 680 OFFCURVE",
"775 680 CURVE SMOOTH",
"822 680 LINE",
"830 712 LINE",
"534 712 LINE",
"526 680 LINE",
"569 680 LINE SMOOTH",
"608 680 OFFCURVE",
"617 661 OFFCURVE",
"617 641 CURVE SMOOTH",
"617 609 OFFCURVE",
"586 575 OFFCURVE",
"567 553 CURVE SMOOTH",
"395 355 LINE",
"329 633 LINE",
"320 654 OFFCURVE",
"337 680 OFFCURVE",
"371 680 CURVE SMOOTH",
"430 680 LINE",
"438 712 LINE",
"122 712 LINE",
"114 680 LINE",
"188 680 LINE SMOOTH",
"215 680 OFFCURVE",
"227 669 OFFCURVE",
"238 636 CURVE",
"317 318 LINE",
"247 58 LINE SMOOTH",
"242 40 OFFCURVE",
"232 32 OFFCURVE",
"214 32 CURVE SMOOTH",
"114 32 LINE"
);
}
);
width = 720;
}
);
leftKerningGroup = Y;
note = Y;
rightKerningGroup = Y;
unicode = 0059;
},
{
color = 4;
glyphname = Z;
layers = (
{
layerId = "5B4932CE-A79B-4666-BF39-F6F4657B0F77";
paths = (
{
closed = 1;
nodes = (
"36 0 LINE",
"560 0 LINE",
"646 268 LINE",
"621 268 LINE SMOOTH",
"621 268 OFFCURVE",
"576 140 OFFCURVE",
"506 79 CURVE SMOOTH",
"458 37 OFFCURVE",
"411 32 OFFCURVE",
"380 32 CURVE SMOOTH",
"158 32 LINE",
"664 680 LINE",
"672 712 LINE",
"200 712 LINE",
"116 480 LINE",
"141 480 LINE",
"141 481 OFFCURVE",
"159 543 OFFCURVE",
"216 602 CURVE SMOOTH",
"269 657 OFFCURVE",
"314 680 OFFCURVE",
"372 680 CURVE SMOOTH",
"552 680 LINE",
"44 31 LINE"
);
}
);
width = 680;
}
);
note = Z;
unicode = 005A;
},
{
color = 4;
glyphname = bracketleft;
layers = (
{
layerId = "5B4932CE-A79B-4666-BF39-F6F4657B0F77";
paths = (
{
closed = 1;
nodes = (
"24 -198 LINE",
"234 -198 LINE",
"242 -168 LINE",
"125 -168 LINE",
"111 -166 OFFCURVE",
"107 -152 OFFCURVE",
"111 -136 CURVE SMOOTH",
"328 662 LINE",
"333 678 OFFCURVE",
"338 680 OFFCURVE",
"354 682 CURVE",
"474 682 LINE",
"482 712 LINE",
"272 712 LINE"
);
}
);
width = 380;
}
);
note = bracketleft;
unicode = 005B;
},
{
color = 4;
glyphname = backslash;
layers = (
{
layerId = "5B4932CE-A79B-4666-BF39-F6F4657B0F77";
paths = (
{
closed = 1;
nodes = (
"72 730 LINE",
"370 -198 LINE",
"410 -198 LINE",
"112 730 LINE"
);
}
);
width = 440;
}
);
note = backslash;
unicode = 005C;
},
{
color = 4;
glyphname = bracketright;
layers = (
{
layerId = "5B4932CE-A79B-4666-BF39-F6F4657B0F77";
paths = (
{
closed = 1;
nodes = (
"-90 -198 LINE",
"120 -198 LINE",
"368 712 LINE",
"158 712 LINE",
"150 682 LINE",
"267 682 LINE",
"281 680 OFFCURVE",
"285 666 OFFCURVE",
"281 650 CURVE SMOOTH",
"64 -148 LINE",
"59 -164 OFFCURVE",
"54 -166 OFFCURVE",
"38 -168 CURVE",
"-82 -168 LINE"
);
}
);
width = 380;
}
);
note = bracketright;
unicode = 005D;
},
{
color = 4;
glyphname = asciicircum;
layers = (
{
layerId = "5B4932CE-A79B-4666-BF39-F6F4657B0F77";
paths = (
{
closed = 1;
nodes = (
"88 336 LINE",
"136 336 LINE",
"316 622 LINE",
"496 336 LINE",
"544 336 LINE",
"316 700 LINE"
);
}
);
width = 580;
}
);
note = asciicircum;
unicode = 005E;
},
{
color = 4;
glyphname = underscore;
layers = (
{
layerId = "5B4932CE-A79B-4666-BF39-F6F4657B0F77";
paths = (
{
closed = 1;
nodes = (
"-41 -158 LINE",
"479 -158 LINE",
"489 -118 LINE",
"-31 -118 LINE"
);
}
);
width = 520;
}
);
note = underscore;
unicode = 005F;
},
{
color = 4;
glyphname = grave;
layers = (
{
layerId = "5B4932CE-A79B-4666-BF39-F6F4657B0F77";
paths = (
{
closed = 1;
nodes = (
"214 629 OFFCURVE",
"219 615 OFFCURVE",
"228 605 CURVE SMOOTH",
"313 508 LINE",
"330 518 LINE",
"290 637 LINE SMOOTH",
"281 664 OFFCURVE",
"271 676 OFFCURVE",
"250 676 CURVE SMOOTH",
"220 676 OFFCURVE",
"214 650 OFFCURVE",
"214 640 CURVE SMOOTH"
);
}
);
width = 350;
}
);
note = grave;
unicode = 0060;
},
{
color = 4;
glyphname = a;
layers = (
{
layerId = "5B4932CE-A79B-4666-BF39-F6F4657B0F77";
paths = (
{
closed = 1;
nodes = (
"42 44 OFFCURVE",
"82 -12 OFFCURVE",
"154 -12 CURVE SMOOTH",
"224 -12 OFFCURVE",
"282 76 OFFCURVE",
"302 119 CURVE",
"305 117 LINE",
"305 117 OFFCURVE",
"304 110 OFFCURVE",
"304 90 CURVE SMOOTH",
"304 50 OFFCURVE",
"310 -12 OFFCURVE",
"362 -12 CURVE SMOOTH",
"430 -12 OFFCURVE",
"481 94 OFFCURVE",
"509 176 CURVE",
"489 182 LINE",
"459 92 OFFCURVE",
"418 22 OFFCURVE",
"380 22 CURVE SMOOTH",
"366 22 OFFCURVE",
"362 32 OFFCURVE",
"362 49 CURVE SMOOTH",
"362 73 OFFCURVE",
"372 113 OFFCURVE",
"376 129 CURVE SMOOTH",
"461 444 LINE",
"395 444 LINE",
"373 366 LINE",
"369 368 LINE",
"354 432 OFFCURVE",
"315 456 OFFCURVE",
"277 456 CURVE SMOOTH",
"211 456 OFFCURVE",
"146 406 OFFCURVE",
"101 335 CURVE SMOOTH",
"77 297 OFFCURVE",
"42 216 OFFCURVE",
"42 125 CURVE SMOOTH"
);
},
{
closed = 1;
nodes = (
"114 157 OFFCURVE",
"137 247 OFFCURVE",
"170 320 CURVE SMOOTH",
"191 366 OFFCURVE",
"231 432 OFFCURVE",
"277 432 CURVE SMOOTH",
"318 432 OFFCURVE",
"344 400 OFFCURVE",
"344 340 CURVE SMOOTH",
"344 292 OFFCURVE",
"320 208 OFFCURVE",
"294 150 CURVE SMOOTH",
"258 70 OFFCURVE",
"211 12 OFFCURVE",
"160 12 CURVE SMOOTH",
"124 12 OFFCURVE",
"114 52 OFFCURVE",
"114 85 CURVE SMOOTH"
);
}
);
width = 536;
}
);
leftKerningGroup = a;
note = a;
rightKerningGroup = a;
unicode = 0061;
},
{
color = 4;
glyphname = b;
layers = (
{
layerId = "5B4932CE-A79B-4666-BF39-F6F4657B0F77";
paths = (
{
closed = 1;
nodes = (
"138 166 OFFCURVE",
"163 243 OFFCURVE",
"194 306 CURVE SMOOTH",
"233 384 OFFCURVE",
"284 432 OFFCURVE",
"330 432 CURVE SMOOTH",
"361 432 OFFCURVE",
"374 382 OFFCURVE",
"374 349 CURVE SMOOTH",
"374 266 OFFCURVE",
"348 186 OFFCURVE",
"313 120 CURVE SMOOTH",
"289 75 OFFCURVE",
"253 12 OFFCURVE",
"202 12 CURVE SMOOTH",
"138 12 OFFCURVE",
"138 78 OFFCURVE",
"138 106 CURVE SMOOTH"
);
},
{
closed = 1;
nodes = (
"68 42 OFFCURVE",
"126 -12 OFFCURVE",
"188 -12 CURVE SMOOTH",
"250 -12 OFFCURVE",
"294 10 OFFCURVE",
"335 52 CURVE SMOOTH",
"387 106 OFFCURVE",
"446 222 OFFCURVE",
"446 310 CURVE SMOOTH",
"446 379 OFFCURVE",
"413 456 OFFCURVE",
"338 456 CURVE SMOOTH",
"278 456 OFFCURVE",
"226 407 OFFCURVE",
"193 349 CURVE",
"188 353 LINE",
"286 712 LINE",
"109 712 LINE",
"102 688 LINE",
"191 688 LINE SMOOTH",
"206 688 OFFCURVE",
"211 683 OFFCURVE",
"206 666 CURVE SMOOTH",
"74 185 LINE SMOOTH",
"69 168 OFFCURVE",
"68 152 OFFCURVE",
"68 136 CURVE SMOOTH"
);
}
);
width = 480;
}
);
note = b;
rightKerningGroup = b;
unicode = 0062;
},
{
color = 4;
glyphname = c;
layers = (
{
layerId = "5B4932CE-A79B-4666-BF39-F6F4657B0F77";
paths = (
{
closed = 1;
nodes = (
"52 67 OFFCURVE",
"103 -12 OFFCURVE",
"186 -12 CURVE SMOOTH",
"269 -12 OFFCURVE",
"338 62 OFFCURVE",
"368 148 CURVE",
"347 155 LINE",
"339 133 OFFCURVE",
"289 12 OFFCURVE",
"191 12 CURVE SMOOTH",
"159 12 OFFCURVE",
"124 34 OFFCURVE",
"124 98 CURVE SMOOTH",
"124 130 OFFCURVE",
"134 211 OFFCURVE",
"150 258 CURVE SMOOTH",
"170 318 OFFCURVE",
"213 432 OFFCURVE",
"286 432 CURVE SMOOTH",
"324 432 OFFCURVE",
"333 410 OFFCURVE",
"333 402 CURVE SMOOTH",
"333 394 OFFCURVE",
"332 384 OFFCURVE",
"322 376 CURVE",
"307 365 OFFCURVE",
"290 348 OFFCURVE",
"290 324 CURVE SMOOTH",
"290 307 OFFCURVE",
"302 286 OFFCURVE",
"329 286 CURVE SMOOTH",
"360 286 OFFCURVE",
"386 316 OFFCURVE",
"386 356 CURVE SMOOTH",
"386 432 OFFCURVE",
"333 456 OFFCURVE",
"290 456 CURVE SMOOTH",
"228 456 OFFCURVE",
"183 426 OFFCURVE",
"140 381 CURVE SMOOTH",
"80 318 OFFCURVE",
"52 235 OFFCURVE",
"52 158 CURVE SMOOTH"
);
}
);
width = 424;
}
);
leftKerningGroup = c;
note = c;
unicode = 0063;
},
{
color = 4;
glyphname = d;
layers = (
{
layerId = "5B4932CE-A79B-4666-BF39-F6F4657B0F77";
paths = (
{
closed = 1;
nodes = (
"114 157 OFFCURVE",
"137 247 OFFCURVE",
"170 320 CURVE SMOOTH",
"191 366 OFFCURVE",
"231 432 OFFCURVE",
"277 432 CURVE SMOOTH",
"318 432 OFFCURVE",
"344 400 OFFCURVE",
"344 340 CURVE SMOOTH",
"344 292 OFFCURVE",
"320 208 OFFCURVE",
"294 150 CURVE SMOOTH",
"258 70 OFFCURVE",
"211 12 OFFCURVE",
"160 12 CURVE SMOOTH",
"124 12 OFFCURVE",
"114 52 OFFCURVE",
"114 85 CURVE SMOOTH"
);
},
{
closed = 1;
nodes = (
"42 44 OFFCURVE",
"82 -12 OFFCURVE",
"154 -12 CURVE SMOOTH",
"224 -12 OFFCURVE",
"282 76 OFFCURVE",
"302 119 CURVE",
"305 117 LINE",
"305 117 OFFCURVE",
"304 110 OFFCURVE",
"304 90 CURVE SMOOTH",
"304 50 OFFCURVE",
"310 -12 OFFCURVE",
"362 -12 CURVE SMOOTH",
"430 -12 OFFCURVE",
"480 94 OFFCURVE",
"509 176 CURVE",
"489 182 LINE",
"460 94 OFFCURVE",
"418 22 OFFCURVE",
"380 22 CURVE SMOOTH",
"366 22 OFFCURVE",
"362 32 OFFCURVE",
"362 49 CURVE SMOOTH",
"362 73 OFFCURVE",
"372 113 OFFCURVE",
"376 129 CURVE SMOOTH",
"534 712 LINE",
"357 712 LINE",
"350 688 LINE",
"438 688 LINE SMOOTH",
"458 688 OFFCURVE",
"455 671 OFFCURVE",
"454 666 CURVE",
"373 366 LINE",
"369 368 LINE",
"358 427 OFFCURVE",
"321 456 OFFCURVE",
"283 456 CURVE SMOOTH",
"223 456 OFFCURVE",
"158 415 OFFCURVE",
"113 343 CURVE SMOOTH",
"89 305 OFFCURVE",
"42 216 OFFCURVE",
"42 125 CURVE SMOOTH"
);
}
);
width = 530;
}
);
leftKerningGroup = c;
note = d;
unicode = 0064;
},
{
color = 4;
glyphname = e;
layers = (
{
layerId = "5B4932CE-A79B-4666-BF39-F6F4657B0F77";
paths = (
{
closed = 1;
nodes = (
"52 67 OFFCURVE",
"103 -12 OFFCURVE",
"186 -12 CURVE SMOOTH",
"269 -12 OFFCURVE",
"338 62 OFFCURVE",
"368 148 CURVE",
"347 155 LINE",
"339 133 OFFCURVE",
"289 12 OFFCURVE",
"191 12 CURVE SMOOTH",
"159 12 OFFCURVE",
"124 34 OFFCURVE",
"124 98 CURVE SMOOTH",
"124 140 OFFCURVE",
"132 191 OFFCURVE",
"138 215 CURVE",
"174 218 OFFCURVE",
"229 223 OFFCURVE",
"280 247 CURVE SMOOTH",
"340 275 OFFCURVE",
"381 316 OFFCURVE",
"381 372 CURVE SMOOTH",
"381 436 OFFCURVE",
"338 456 OFFCURVE",
"290 456 CURVE SMOOTH",
"234 456 OFFCURVE",
"183 426 OFFCURVE",
"140 381 CURVE SMOOTH",
"80 318 OFFCURVE",
"52 235 OFFCURVE",
"52 158 CURVE SMOOTH"
);
},
{
closed = 1;
nodes = (
"146 249 OFFCURVE",
"159 298 OFFCURVE",
"164 313 CURVE SMOOTH",
"182 364 OFFCURVE",
"232 432 OFFCURVE",
"291 432 CURVE SMOOTH",
"313 432 OFFCURVE",
"333 419 OFFCURVE",
"333 378 CURVE SMOOTH",
"333 324 OFFCURVE",
"301 283 OFFCURVE",
"261 265 CURVE SMOOTH",
"219 246 OFFCURVE",
"173 242 OFFCURVE",
"144 240 CURVE"
);
}
);
width = 410;
}
);
leftKerningGroup = c;
note = e;
unicode = 0065;
},
{
color = 4;
glyphname = f;
layers = (
{
layerId = "5B4932CE-A79B-4666-BF39-F6F4657B0F77";
paths = (
{
closed = 1;
nodes = (
"-42 -238 LINE",
"26 -238 LINE",
"206 416 LINE",
"319 416 LINE",
"325 444 LINE",
"213 444 LINE",
"231 506 LINE SMOOTH",
"277 670 OFFCURVE",
"327 696 OFFCURVE",
"384 696 CURVE SMOOTH",
"401 696 OFFCURVE",
"412 687 OFFCURVE",
"412 673 CURVE SMOOTH",
"412 665 OFFCURVE",
"408 657 OFFCURVE",
"396 651 CURVE",
"388 645 OFFCURVE",
"380 633 OFFCURVE",
"380 619 CURVE SMOOTH",
"380 599 OFFCURVE",
"392 586 OFFCURVE",
"413 586 CURVE SMOOTH",
"441 586 OFFCURVE",
"464 611 OFFCURVE",
"464 648 CURVE SMOOTH",
"464 687 OFFCURVE",
"431 720 OFFCURVE",
"383 720 CURVE SMOOTH",
"292 720 OFFCURVE",
"236 646 OFFCURVE",
"206 596 CURVE SMOOTH",
"192 572 OFFCURVE",
"166 516 OFFCURVE",
"157 483 CURVE SMOOTH",
"145 444 LINE",
"41 444 LINE",
"35 416 LINE",
"138 416 LINE"
);
}
);
width = 320;
}
);
note = f;
unicode = 0066;
},
{
color = 4;
glyphname = g;
layers = (
{
layerId = "5B4932CE-A79B-4666-BF39-F6F4657B0F77";
paths = (
{
closed = 1;
nodes = (
"114 157 OFFCURVE",
"137 247 OFFCURVE",
"170 320 CURVE SMOOTH",
"191 366 OFFCURVE",
"231 432 OFFCURVE",
"277 432 CURVE SMOOTH",
"318 432 OFFCURVE",
"344 400 OFFCURVE",
"344 340 CURVE SMOOTH",
"344 292 OFFCURVE",
"320 208 OFFCURVE",
"294 150 CURVE SMOOTH",
"258 70 OFFCURVE",
"211 12 OFFCURVE",
"160 12 CURVE SMOOTH",
"124 12 OFFCURVE",
"114 52 OFFCURVE",
"114 85 CURVE SMOOTH"
);
},
{
closed = 1;
nodes = (
"-17 -212 OFFCURVE",
"30 -248 OFFCURVE",
"100 -248 CURVE SMOOTH",
"137 -248 OFFCURVE",
"188 -234 OFFCURVE",
"233 -192 CURVE SMOOTH",
"285 -144 OFFCURVE",
"323 -61 OFFCURVE",
"338 -7 CURVE SMOOTH",
"461 444 LINE",
"395 444 LINE",
"373 366 LINE",
"369 368 LINE",
"358 427 OFFCURVE",
"321 456 OFFCURVE",
"283 456 CURVE SMOOTH",
"223 456 OFFCURVE",
"158 415 OFFCURVE",
"113 343 CURVE SMOOTH",
"89 305 OFFCURVE",
"42 216 OFFCURVE",
"42 125 CURVE SMOOTH",
"42 44 OFFCURVE",
"82 -12 OFFCURVE",
"154 -12 CURVE SMOOTH",
"224 -12 OFFCURVE",
"282 76 OFFCURVE",
"302 119 CURVE",
"305 117 LINE",
"303 106 OFFCURVE",
"268 -16 OFFCURVE",
"268 -16 CURVE",
"256 -61 OFFCURVE",
"238 -118 OFFCURVE",
"201 -167 CURVE SMOOTH",
"167 -212 OFFCURVE",
"135 -224 OFFCURVE",
"92 -224 CURVE SMOOTH",
"60 -224 OFFCURVE",
"49 -210 OFFCURVE",
"49 -192 CURVE SMOOTH",
"49 -180 OFFCURVE",
"51 -176 OFFCURVE",
"58 -170 CURVE SMOOTH",
"68 -162 OFFCURVE",
"77 -148 OFFCURVE",
"77 -130 CURVE SMOOTH",
"77 -112 OFFCURVE",
"65 -90 OFFCURVE",
"37 -90 CURVE SMOOTH",
"11 -90 OFFCURVE",
"-17 -110 OFFCURVE",
"-17 -150 CURVE SMOOTH"
);
}
);
width = 480;
}
);
leftKerningGroup = g;
note = g;
unicode = 0067;
},
{
color = 4;
glyphname = h;
layers = (
{
layerId = "5B4932CE-A79B-4666-BF39-F6F4657B0F77";
paths = (
{
closed = 1;
nodes = (
"24 0 LINE",
"90 0 LINE",
"110 66 LINE SMOOTH",
"127 123 OFFCURVE",
"170 219 OFFCURVE",
"226 313 CURVE SMOOTH",
"272 391 OFFCURVE",
"314 426 OFFCURVE",
"353 426 CURVE SMOOTH",
"369 426 OFFCURVE",
"375 411 OFFCURVE",
"375 394 CURVE SMOOTH",
"375 376 OFFCURVE",
"364 346 OFFCURVE",
"359 335 CURVE SMOOTH",
"295 186 LINE SMOOTH",
"284 160 OFFCURVE",
"275 113 OFFCURVE",
"275 84 CURVE SMOOTH",
"275 16 OFFCURVE",
"306 -12 OFFCURVE",
"339 -12 CURVE SMOOTH",
"404 -12 OFFCURVE",
"456 82 OFFCURVE",
"488 176 CURVE",
"468 182 LINE",
"449 130 OFFCURVE",
"402 18 OFFCURVE",
"350 18 CURVE SMOOTH",
"334 18 OFFCURVE",
"327 33 OFFCURVE",
"327 50 CURVE SMOOTH",
"327 68 OFFCURVE",
"338 98 OFFCURVE",
"343 109 CURVE SMOOTH",
"407 258 LINE SMOOTH",
"417 281 OFFCURVE",
"427 331 OFFCURVE",
"427 360 CURVE SMOOTH",
"427 424 OFFCURVE",
"401 456 OFFCURVE",
"362 456 CURVE SMOOTH",
"267 456 OFFCURVE",
"193 293 OFFCURVE",
"158 230 CURVE",
"154 233 LINE",
"286 712 LINE",
"109 712 LINE",
"102 688 LINE",
"190 688 LINE SMOOTH",
"205 688 OFFCURVE",
"211 683 OFFCURVE",
"206 666 CURVE SMOOTH"
);
}
);
width = 512;
}
);
note = h;
unicode = 0068;
},
{
color = 4;
glyphname = i;
layers = (
{
layerId = "5B4932CE-A79B-4666-BF39-F6F4657B0F77";
paths = (
{
closed = 1;
nodes = (
"216 608 OFFCURVE",
"238 586 OFFCURVE",
"268 586 CURVE SMOOTH",
"298 586 OFFCURVE",
"320 608 OFFCURVE",
"320 638 CURVE SMOOTH",
"320 668 OFFCURVE",
"298 690 OFFCURVE",
"268 690 CURVE SMOOTH",
"238 690 OFFCURVE",
"216 668 OFFCURVE",
"216 638 CURVE SMOOTH"
);
},
{
closed = 1;
nodes = (
"56 262 LINE",
"75 314 OFFCURVE",
"123 426 OFFCURVE",
"175 426 CURVE SMOOTH",
"191 426 OFFCURVE",
"197 411 OFFCURVE",
"197 394 CURVE SMOOTH",
"197 376 OFFCURVE",
"186 346 OFFCURVE",
"181 335 CURVE SMOOTH",
"117 186 LINE SMOOTH",
"106 160 OFFCURVE",
"97 113 OFFCURVE",
"97 84 CURVE SMOOTH",
"97 16 OFFCURVE",
"128 -12 OFFCURVE",
"161 -12 CURVE SMOOTH",
"226 -12 OFFCURVE",
"278 82 OFFCURVE",
"310 176 CURVE",
"290 182 LINE",
"271 130 OFFCURVE",
"224 18 OFFCURVE",
"172 18 CURVE SMOOTH",
"156 18 OFFCURVE",
"149 33 OFFCURVE",
"149 50 CURVE SMOOTH",
"149 68 OFFCURVE",
"160 98 OFFCURVE",
"165 109 CURVE SMOOTH",
"229 258 LINE SMOOTH",
"239 281 OFFCURVE",
"249 331 OFFCURVE",
"249 360 CURVE SMOOTH",
"249 424 OFFCURVE",
"219 456 OFFCURVE",
"186 456 CURVE SMOOTH",
"121 456 OFFCURVE",
"68 362 OFFCURVE",
"36 268 CURVE"
);
}
);
width = 334;
}
);
leftKerningGroup = i;
note = i;
unicode = 0069;
},
{
color = 4;
glyphname = j;
layers = (
{
layerId = "5B4932CE-A79B-4666-BF39-F6F4657B0F77";
paths = (
{
closed = 1;
nodes = (
"240 608 OFFCURVE",
"262 586 OFFCURVE",
"292 586 CURVE SMOOTH",
"322 586 OFFCURVE",
"344 608 OFFCURVE",
"344 638 CURVE SMOOTH",
"344 668 OFFCURVE",
"322 690 OFFCURVE",
"292 690 CURVE SMOOTH",
"262 690 OFFCURVE",
"240 668 OFFCURVE",
"240 638 CURVE SMOOTH"
);
},
{
closed = 1;
nodes = (
"-97 -224 OFFCURVE",
"-46 -248 OFFCURVE",
"-13 -248 CURVE SMOOTH",
"73 -248 OFFCURVE",
"146 -145 OFFCURVE",
"173 -46 CURVE SMOOTH",
"269 306 LINE",
"273 323 OFFCURVE",
"280 360 OFFCURVE",
"280 382 CURVE SMOOTH",
"280 407 OFFCURVE",
"270 456 OFFCURVE",
"216 456 CURVE SMOOTH",
"138 456 OFFCURVE",
"82 337 OFFCURVE",
"56 260 CURVE",
"76 254 LINE",
"101 326 OFFCURVE",
"149 422 OFFCURVE",
"196 422 CURVE SMOOTH",
"212 422 OFFCURVE",
"218 406 OFFCURVE",
"218 392 CURVE SMOOTH",
"218 364 OFFCURVE",
"208 335 OFFCURVE",
"204 318 CURVE SMOOTH",
"112 -21 LINE SMOOTH",
"104 -49 OFFCURVE",
"94 -102 OFFCURVE",
"87 -127 CURVE SMOOTH",
"66 -203 OFFCURVE",
"27 -224 OFFCURVE",
"-7 -224 CURVE SMOOTH",
"-27 -224 OFFCURVE",
"-38 -215 OFFCURVE",
"-38 -196 CURVE SMOOTH",
"-38 -183 OFFCURVE",
"-30 -178 OFFCURVE",
"-22 -173 CURVE SMOOTH",
"-7 -164 OFFCURVE",
"1 -149 OFFCURVE",
"1 -133 CURVE SMOOTH",
"1 -110 OFFCURVE",
"-13 -95 OFFCURVE",
"-37 -95 CURVE SMOOTH",
"-67 -95 OFFCURVE",
"-97 -125 OFFCURVE",
"-97 -163 CURVE SMOOTH"
);
}
);
width = 326;
}
);
leftKerningGroup = j;
note = j;
unicode = 006A;
},
{
color = 4;
glyphname = k;
layers = (
{
layerId = "5B4932CE-A79B-4666-BF39-F6F4657B0F77";
paths = (
{
closed = 1;
nodes = (
"24 0 LINE",
"90 0 LINE",
"154 226 LINE",
"214 226 LINE SMOOTH",
"254 226 OFFCURVE",
"260 207 OFFCURVE",
"260 181 CURVE SMOOTH",
"260 147 OFFCURVE",
"236 116 OFFCURVE",
"236 68 CURVE SMOOTH",
"236 8 OFFCURVE",
"273 -12 OFFCURVE",
"308 -12 CURVE SMOOTH",
"375 -12 OFFCURVE",
"423 92 OFFCURVE",
"452 176 CURVE",
"432 182 LINE",
"416 140 OFFCURVE",
"390 64 OFFCURVE",
"350 34 CURVE SMOOTH",
"337 24 OFFCURVE",
"333 23 OFFCURVE",
"325 23 CURVE SMOOTH",
"308 23 OFFCURVE",
"304 41 OFFCURVE",
"304 53 CURVE SMOOTH",
"304 81 OFFCURVE",
"324 119 OFFCURVE",
"324 162 CURVE SMOOTH",
"324 209 OFFCURVE",
"289 235 OFFCURVE",
"258 238 CURVE",
"259 243 LINE",
"287 254 OFFCURVE",
"318 334 OFFCURVE",
"331 377 CURVE SMOOTH",
"338 399 OFFCURVE",
"347 416 OFFCURVE",
"367 416 CURVE SMOOTH",
"382 416 OFFCURVE",
"386 410 OFFCURVE",
"386 400 CURVE SMOOTH",
"386 394 OFFCURVE",
"383 389 OFFCURVE",
"379 383 CURVE SMOOTH",
"375 377 OFFCURVE",
"370 367 OFFCURVE",
"370 356 CURVE SMOOTH",
"370 333 OFFCURVE",
"390 322 OFFCURVE",
"406 322 CURVE SMOOTH",
"434 322 OFFCURVE",
"456 347 OFFCURVE",
"456 384 CURVE SMOOTH",
"456 402 OFFCURVE",
"454 415 OFFCURVE",
"440 434 CURVE SMOOTH",
"433 444 OFFCURVE",
"414 456 OFFCURVE",
"394 456 CURVE SMOOTH",
"366 456 OFFCURVE",
"328 442 OFFCURVE",
"309 379 CURVE SMOOTH",
"292 324 OFFCURVE",
"262 250 OFFCURVE",
"223 250 CURVE SMOOTH",
"160 250 LINE",
"286 712 LINE",
"109 712 LINE",
"102 688 LINE",
"190 688 LINE SMOOTH",
"205 688 OFFCURVE",
"211 683 OFFCURVE",
"206 666 CURVE SMOOTH"
);
}
);
width = 490;
}
);
note = k;
unicode = 006B;
},
{
color = 4;
glyphname = l;
layers = (
{
layerId = "5B4932CE-A79B-4666-BF39-F6F4657B0F77";
paths = (
{
closed = 1;
nodes = (
"54 50 OFFCURVE",
"61 -12 OFFCURVE",
"112 -12 CURVE SMOOTH",
"188 -12 OFFCURVE",
"236 112 OFFCURVE",
"259 176 CURVE",
"239 182 LINE",
"213 105 OFFCURVE",
"172 22 OFFCURVE",
"131 22 CURVE SMOOTH",
"116 22 OFFCURVE",
"112 32 OFFCURVE",
"112 49 CURVE SMOOTH",
"112 74 OFFCURVE",
"124 122 OFFCURVE",
"128 138 CURVE SMOOTH",
"284 712 LINE",
"109 712 LINE",
"102 688 LINE",
"190 688 LINE SMOOTH",
"205 688 OFFCURVE",
"211 683 OFFCURVE",
"206 666 CURVE SMOOTH",
"64 150 LINE SMOOTH",
"61 138 OFFCURVE",
"54 110 OFFCURVE",
"54 90 CURVE SMOOTH"
);
}
);
width = 290;
}
);
note = l;
unicode = 006C;
},
{
color = 4;
glyphname = m;
layers = (
{
layerId = "5B4932CE-A79B-4666-BF39-F6F4657B0F77";
paths = (
{
closed = 1;
nodes = (
"56 262 LINE",
"75 315 OFFCURVE",
"116 422 OFFCURVE",
"164 422 CURVE SMOOTH",
"179 422 OFFCURVE",
"183 411 OFFCURVE",
"183 394 CURVE SMOOTH",
"183 369 OFFCURVE",
"172 325 OFFCURVE",
"168 309 CURVE SMOOTH",
"84 0 LINE",
"150 0 LINE",
"170 66 LINE SMOOTH",
"198 157 OFFCURVE",
"329 426 OFFCURVE",
"386 426 CURVE SMOOTH",
"405 426 OFFCURVE",
"418 415 OFFCURVE",
"418 387 CURVE SMOOTH",
"418 361 OFFCURVE",
"406 328 OFFCURVE",
"401 309 CURVE SMOOTH",
"318 0 LINE",
"384 0 LINE",
"404 66 LINE SMOOTH",
"421 123 OFFCURVE",
"464 219 OFFCURVE",
"520 313 CURVE SMOOTH",
"566 391 OFFCURVE",
"608 426 OFFCURVE",
"647 426 CURVE SMOOTH",
"663 426 OFFCURVE",
"669 411 OFFCURVE",
"669 394 CURVE SMOOTH",
"669 376 OFFCURVE",
"658 346 OFFCURVE",
"653 335 CURVE SMOOTH",
"589 186 LINE SMOOTH",
"578 160 OFFCURVE",
"569 113 OFFCURVE",
"569 84 CURVE SMOOTH",
"569 16 OFFCURVE",
"600 -12 OFFCURVE",
"633 -12 CURVE SMOOTH",
"698 -12 OFFCURVE",
"750 82 OFFCURVE",
"782 176 CURVE",
"762 182 LINE",
"743 130 OFFCURVE",
"696 18 OFFCURVE",
"644 18 CURVE SMOOTH",
"628 18 OFFCURVE",
"621 33 OFFCURVE",
"621 50 CURVE SMOOTH",
"621 68 OFFCURVE",
"632 98 OFFCURVE",
"637 109 CURVE SMOOTH",
"701 258 LINE SMOOTH",
"711 281 OFFCURVE",
"721 331 OFFCURVE",
"721 360 CURVE SMOOTH",
"721 424 OFFCURVE",
"695 456 OFFCURVE",
"656 456 CURVE SMOOTH",
"561 456 OFFCURVE",
"487 293 OFFCURVE",
"452 230 CURVE",
"449 233 LINE",
"454 250 OFFCURVE",
"476 329 OFFCURVE",
"476 361 CURVE SMOOTH",
"476 414 OFFCURVE",
"458 456 OFFCURVE",
"399 456 CURVE SMOOTH",
"332 456 OFFCURVE",
"254 296 OFFCURVE",
"218 230 CURVE",
"214 233 LINE",
"227 260 OFFCURVE",
"241 333 OFFCURVE",
"241 353 CURVE SMOOTH",
"241 393 OFFCURVE",
"235 456 OFFCURVE",
"182 456 CURVE SMOOTH",
"107 456 OFFCURVE",
"57 328 OFFCURVE",
"36 268 CURVE"
);
}
);
width = 806;
}
);
leftKerningGroup = i;
note = m;
unicode = 006D;
},
{
color = 4;
glyphname = n;
layers = (
{
layerId = "5B4932CE-A79B-4666-BF39-F6F4657B0F77";
paths = (
{
closed = 1;
nodes = (
"56 262 LINE",
"82 339 OFFCURVE",
"123 422 OFFCURVE",
"164 422 CURVE SMOOTH",
"179 422 OFFCURVE",
"183 412 OFFCURVE",
"183 395 CURVE SMOOTH",
"183 370 OFFCURVE",
"172 326 OFFCURVE",
"168 310 CURVE SMOOTH",
"84 0 LINE",
"150 0 LINE",
"170 66 LINE SMOOTH",
"187 123 OFFCURVE",
"230 219 OFFCURVE",
"286 313 CURVE SMOOTH",
"332 391 OFFCURVE",
"374 426 OFFCURVE",
"413 426 CURVE SMOOTH",
"429 426 OFFCURVE",
"435 411 OFFCURVE",
"435 394 CURVE SMOOTH",
"435 376 OFFCURVE",
"424 346 OFFCURVE",
"419 335 CURVE SMOOTH",
"355 186 LINE SMOOTH",
"344 160 OFFCURVE",
"335 113 OFFCURVE",
"335 84 CURVE SMOOTH",
"335 16 OFFCURVE",
"366 -12 OFFCURVE",
"399 -12 CURVE SMOOTH",
"464 -12 OFFCURVE",
"516 82 OFFCURVE",
"548 176 CURVE",
"528 182 LINE",
"509 130 OFFCURVE",
"462 18 OFFCURVE",
"410 18 CURVE SMOOTH",
"394 18 OFFCURVE",
"387 33 OFFCURVE",
"387 50 CURVE SMOOTH",
"387 68 OFFCURVE",
"398 98 OFFCURVE",
"403 109 CURVE SMOOTH",
"467 258 LINE SMOOTH",
"477 281 OFFCURVE",
"487 331 OFFCURVE",
"487 360 CURVE SMOOTH",
"487 424 OFFCURVE",
"461 456 OFFCURVE",
"422 456 CURVE SMOOTH",
"327 456 OFFCURVE",
"253 293 OFFCURVE",
"218 230 CURVE",
"215 233 LINE",
"224 255 OFFCURVE",
"241 326 OFFCURVE",
"241 354 CURVE SMOOTH",
"241 394 OFFCURVE",
"234 456 OFFCURVE",
"183 456 CURVE SMOOTH",
"107 456 OFFCURVE",
"57 328 OFFCURVE",
"36 268 CURVE"
);
}
);
width = 572;
}
);
leftKerningGroup = i;
note = n;
unicode = 006E;
},
{
color = 4;
glyphname = o;
layers = (
{
anchors = (
{
name = bottom;
position = "{171, 0}";
},
{
name = center;
position = "{231, 222}";
},
{
name = ogonek;
position = "{356, 10}";
},
{
name = top;
position = "{291, 444}";
},
{
name = topright;
position = "{502, 444}";
}
);
layerId = "5B4932CE-A79B-4666-BF39-F6F4657B0F77";
paths = (
{
closed = 1;
nodes = (
"124 168 OFFCURVE",
"144 251 OFFCURVE",
"171 314 CURVE SMOOTH",
"195 370 OFFCURVE",
"230 432 OFFCURVE",
"290 432 CURVE SMOOTH",
"334 432 OFFCURVE",
"354 392 OFFCURVE",
"354 340 CURVE SMOOTH",
"354 276 OFFCURVE",
"334 193 OFFCURVE",
"307 130 CURVE SMOOTH",
"283 74 OFFCURVE",
"250 12 OFFCURVE",
"190 12 CURVE SMOOTH",
"146 12 OFFCURVE",
"124 52 OFFCURVE",
"124 104 CURVE SMOOTH"
);
},
{
closed = 1;
nodes = (
"52 44 OFFCURVE",
"122 -12 OFFCURVE",
"186 -12 CURVE SMOOTH",
"316 -12 OFFCURVE",
"426 140 OFFCURVE",
"426 280 CURVE SMOOTH",
"426 400 OFFCURVE",
"358 456 OFFCURVE",
"294 456 CURVE SMOOTH",
"164 456 OFFCURVE",
"52 304 OFFCURVE",
"52 164 CURVE SMOOTH"
);
}
);
width = 462;
}
);
leftKerningGroup = c;
note = o;
rightKerningGroup = b;
unicode = 006F;
},
{
color = 4;
glyphname = p;
layers = (
{
layerId = "5B4932CE-A79B-4666-BF39-F6F4657B0F77";
paths = (
{
closed = 1;
nodes = (
"200 152 OFFCURVE",
"224 236 OFFCURVE",
"250 294 CURVE SMOOTH",
"286 374 OFFCURVE",
"333 432 OFFCURVE",
"384 432 CURVE SMOOTH",
"420 432 OFFCURVE",
"430 392 OFFCURVE",
"430 359 CURVE SMOOTH",
"430 287 OFFCURVE",
"407 197 OFFCURVE",
"374 124 CURVE SMOOTH",
"353 78 OFFCURVE",
"313 12 OFFCURVE",
"267 12 CURVE SMOOTH",
"226 12 OFFCURVE",
"200 44 OFFCURVE",
"200 104 CURVE SMOOTH"
);
},
{
closed = 1;
nodes = (
"-76 -238 LINE",
"230 -238 LINE",
"238 -210 LINE",
"116 -210 LINE SMOOTH",
"100 -210 OFFCURVE",
"97 -204 OFFCURVE",
"101 -188 CURVE SMOOTH",
"171 78 LINE",
"175 76 LINE",
"190 12 OFFCURVE",
"229 -12 OFFCURVE",
"267 -12 CURVE SMOOTH",
"333 -12 OFFCURVE",
"398 38 OFFCURVE",
"443 109 CURVE SMOOTH",
"467 147 OFFCURVE",
"502 228 OFFCURVE",
"502 319 CURVE SMOOTH",
"502 400 OFFCURVE",
"462 456 OFFCURVE",
"390 456 CURVE SMOOTH",
"320 456 OFFCURVE",
"262 368 OFFCURVE",
"242 325 CURVE",
"239 327 LINE",
"239 327 OFFCURVE",
"240 341 OFFCURVE",
"240 361 CURVE SMOOTH",
"240 401 OFFCURVE",
"229 456 OFFCURVE",
"183 456 CURVE SMOOTH",
"105 456 OFFCURVE",
"56 328 OFFCURVE",
"35 268 CURVE",
"55 262 LINE",
"79 334 OFFCURVE",
"123 422 OFFCURVE",
"162 422 CURVE SMOOTH",
"177 422 OFFCURVE",
"182 414 OFFCURVE",
"182 395 CURVE SMOOTH",
"182 370 OFFCURVE",
"172 329 OFFCURVE",
"170 321 CURVE SMOOTH",
"33 -188 LINE SMOOTH",
"29 -204 OFFCURVE",
"22 -210 OFFCURVE",
"6 -210 CURVE SMOOTH",
"-68 -210 LINE"
);
}
);
width = 540;
}
);
note = p;
rightKerningGroup = b;
unicode = 0070;
},
{
color = 4;
glyphname = q;
layers = (
{
layerId = "5B4932CE-A79B-4666-BF39-F6F4657B0F77";
paths = (
{
closed = 1;
nodes = (
"114 157 OFFCURVE",
"137 247 OFFCURVE",
"170 320 CURVE SMOOTH",
"191 366 OFFCURVE",
"231 432 OFFCURVE",
"277 432 CURVE SMOOTH",
"318 432 OFFCURVE",
"344 400 OFFCURVE",
"344 340 CURVE SMOOTH",
"344 292 OFFCURVE",
"320 208 OFFCURVE",
"294 150 CURVE SMOOTH",
"258 70 OFFCURVE",
"211 12 OFFCURVE",
"160 12 CURVE SMOOTH",
"124 12 OFFCURVE",
"114 52 OFFCURVE",
"114 85 CURVE SMOOTH"
);
},
{
closed = 1;
nodes = (
"42 44 OFFCURVE",
"82 -12 OFFCURVE",
"154 -12 CURVE SMOOTH",
"224 -12 OFFCURVE",
"277 65 OFFCURVE",
"302 119 CURVE",
"305 117 LINE",
"303 106 OFFCURVE",
"222 -188 OFFCURVE",
"222 -188 CURVE",
"218 -204 OFFCURVE",
"211 -210 OFFCURVE",
"195 -210 CURVE SMOOTH",
"74 -210 LINE",
"66 -238 LINE",
"373 -238 LINE",
"381 -210 LINE",
"307 -210 LINE SMOOTH",
"291 -210 OFFCURVE",
"286 -204 OFFCURVE",
"290 -188 CURVE SMOOTH",
"462 444 LINE",
"444 444 LINE",
"378 349 LINE",
"373 349 LINE",
"361 430 OFFCURVE",
"320 456 OFFCURVE",
"283 456 CURVE SMOOTH",
"223 456 OFFCURVE",
"158 415 OFFCURVE",
"113 343 CURVE SMOOTH",
"89 305 OFFCURVE",
"42 216 OFFCURVE",
"42 125 CURVE SMOOTH"
);
}
);
width = 480;
}
);
note = q;
unicode = 0071;
},
{
color = 4;
glyphname = r;
layers = (
{
layerId = "5B4932CE-A79B-4666-BF39-F6F4657B0F77";
paths = (
{
closed = 1;
nodes = (
"56 262 LINE",
"81 336 OFFCURVE",
"123 422 OFFCURVE",
"164 422 CURVE SMOOTH",
"179 422 OFFCURVE",
"183 412 OFFCURVE",
"183 395 CURVE SMOOTH",
"183 370 OFFCURVE",
"172 326 OFFCURVE",
"168 310 CURVE SMOOTH",
"84 0 LINE",
"150 0 LINE",
"169 62 LINE SMOOTH",
"203 174 OFFCURVE",
"304 421 OFFCURVE",
"354 421 CURVE SMOOTH",
"366 421 OFFCURVE",
"367 415 OFFCURVE",
"367 409 CURVE SMOOTH",
"367 404 OFFCURVE",
"362 399 OFFCURVE",
"357 394 CURVE",
"350 386 OFFCURVE",
"345 377 OFFCURVE",
"345 362 CURVE SMOOTH",
"345 338 OFFCURVE",
"361 320 OFFCURVE",
"384 320 CURVE SMOOTH",
"424 320 OFFCURVE",
"446 355 OFFCURVE",
"446 387 CURVE SMOOTH",
"446 421 OFFCURVE",
"426 456 OFFCURVE",
"379 456 CURVE SMOOTH",
"322 456 OFFCURVE",
"273 365 OFFCURVE",
"239 294 CURVE",
"232 296 LINE",
"235 306 OFFCURVE",
"241 334 OFFCURVE",
"241 354 CURVE SMOOTH",
"241 394 OFFCURVE",
"234 456 OFFCURVE",
"183 456 CURVE SMOOTH",
"107 456 OFFCURVE",
"57 328 OFFCURVE",
"36 268 CURVE"
);
}
);
width = 430;
}
);
note = r;
unicode = 0072;
},
{
color = 4;
glyphname = s;
layers = (
{
layerId = "5B4932CE-A79B-4666-BF39-F6F4657B0F77";
paths = (
{
closed = 1;
nodes = (
"24 49 OFFCURVE",
"69 -12 OFFCURVE",
"165 -12 CURVE SMOOTH",
"275 -12 OFFCURVE",
"336 65 OFFCURVE",
"336 136 CURVE SMOOTH",
"336 180 OFFCURVE",
"311 202 OFFCURVE",
"288 219 CURVE SMOOTH",
"195 289 LINE",
"177 301 OFFCURVE",
"166 309 OFFCURVE",
"166 345 CURVE SMOOTH",
"166 404 OFFCURVE",
"218 432 OFFCURVE",
"266 432 CURVE SMOOTH",
"300 432 OFFCURVE",
"345 413 OFFCURVE",
"345 380 CURVE SMOOTH",
"345 372 OFFCURVE",
"340 368 OFFCURVE",
"333 364 CURVE SMOOTH",
"328 361 OFFCURVE",
"323 358 OFFCURVE",
"319 354 CURVE",
"308 345 OFFCURVE",
"306 330 OFFCURVE",
"306 324 CURVE SMOOTH",
"306 301 OFFCURVE",
"327 287 OFFCURVE",
"346 287 CURVE SMOOTH",
"383 287 OFFCURVE",
"398 317 OFFCURVE",
"398 344 CURVE SMOOTH",
"398 380 OFFCURVE",
"359 456 OFFCURVE",
"272 456 CURVE SMOOTH",
"200 456 OFFCURVE",
"118 409 OFFCURVE",
"118 317 CURVE SMOOTH",
"118 272 OFFCURVE",
"137 244 OFFCURVE",
"165 226 CURVE",
"248 163 LINE SMOOTH",
"270 147 OFFCURVE",
"280 121 OFFCURVE",
"280 96 CURVE SMOOTH",
"280 52 OFFCURVE",
"246 12 OFFCURVE",
"171 12 CURVE SMOOTH",
"137 12 OFFCURVE",
"69 23 OFFCURVE",
"69 67 CURVE SMOOTH",
"69 90 OFFCURVE",
"81 97 OFFCURVE",
"95 101 CURVE",
"107 105 OFFCURVE",
"116 115 OFFCURVE",
"116 133 CURVE SMOOTH",
"116 158 OFFCURVE",
"97 172 OFFCURVE",
"79 172 CURVE SMOOTH",
"39 172 OFFCURVE",
"24 131 OFFCURVE",
"24 106 CURVE SMOOTH"
);
}
);
width = 420;
}
);
note = s;
unicode = 0073;
},
{
color = 4;
glyphname = t;
layers = (
{
layerId = "5B4932CE-A79B-4666-BF39-F6F4657B0F77";
paths = (
{
closed = 1;
nodes = (
"52 19 OFFCURVE",
"83 -12 OFFCURVE",
"126 -12 CURVE SMOOTH",
"201 -12 OFFCURVE",
"235 85 OFFCURVE",
"257 176 CURVE",
"237 182 LINE",
"220 122 OFFCURVE",
"199 55 OFFCURVE",
"165 31 CURVE",
"157 26 OFFCURVE",
"146 23 OFFCURVE",
"139 23 CURVE SMOOTH",
"117 23 OFFCURVE",
"110 43 OFFCURVE",
"110 52 CURVE SMOOTH",
"110 67 OFFCURVE",
"114 95 OFFCURVE",
"118 108 CURVE",
"201 416 LINE",
"315 416 LINE",
"322 444 LINE",
"209 444 LINE",
"274 684 LINE",
"208 684 LINE",
"143 444 LINE",
"73 444 LINE",
"66 416 LINE",
"135 416 LINE",
"63 154 LINE SMOOTH",
"59 138 OFFCURVE",
"52 107 OFFCURVE",
"52 72 CURVE SMOOTH"
);
}
);
width = 320;
}
);
note = t;
unicode = 0074;
},
{
color = 4;
glyphname = u;
layers = (
{
layerId = "5B4932CE-A79B-4666-BF39-F6F4657B0F77";
paths = (
{
closed = 1;
nodes = (
"56 262 LINE",
"75 314 OFFCURVE",
"122 426 OFFCURVE",
"174 426 CURVE SMOOTH",
"190 426 OFFCURVE",
"197 411 OFFCURVE",
"197 394 CURVE SMOOTH",
"197 376 OFFCURVE",
"186 346 OFFCURVE",
"181 335 CURVE SMOOTH",
"117 186 LINE SMOOTH",
"107 163 OFFCURVE",
"97 113 OFFCURVE",
"97 84 CURVE SMOOTH",
"97 20 OFFCURVE",
"123 -12 OFFCURVE",
"162 -12 CURVE SMOOTH",
"257 -12 OFFCURVE",
"331 151 OFFCURVE",
"366 214 CURVE",
"369 211 LINE",
"360 189 OFFCURVE",
"343 118 OFFCURVE",
"343 90 CURVE SMOOTH",
"343 50 OFFCURVE",
"350 -12 OFFCURVE",
"401 -12 CURVE SMOOTH",
"477 -12 OFFCURVE",
"527 116 OFFCURVE",
"548 176 CURVE",
"528 182 LINE",
"502 105 OFFCURVE",
"461 22 OFFCURVE",
"420 22 CURVE SMOOTH",
"405 22 OFFCURVE",
"401 32 OFFCURVE",
"401 49 CURVE SMOOTH",
"401 74 OFFCURVE",
"412 118 OFFCURVE",
"416 134 CURVE SMOOTH",
"500 444 LINE",
"434 444 LINE",
"414 378 LINE SMOOTH",
"397 321 OFFCURVE",
"354 225 OFFCURVE",
"298 131 CURVE SMOOTH",
"252 53 OFFCURVE",
"210 18 OFFCURVE",
"171 18 CURVE SMOOTH",
"155 18 OFFCURVE",
"149 33 OFFCURVE",
"149 50 CURVE SMOOTH",
"149 68 OFFCURVE",
"160 98 OFFCURVE",
"165 109 CURVE SMOOTH",
"229 258 LINE SMOOTH",
"240 284 OFFCURVE",
"249 331 OFFCURVE",
"249 360 CURVE SMOOTH",
"249 428 OFFCURVE",
"218 456 OFFCURVE",
"185 456 CURVE SMOOTH",
"120 456 OFFCURVE",
"68 362 OFFCURVE",
"36 268 CURVE"
);
}
);
width = 572;
}
);
leftKerningGroup = u;
note = u;
unicode = 0075;
},
{
color = 4;
glyphname = v;
layers = (
{
layerId = "5B4932CE-A79B-4666-BF39-F6F4657B0F77";
paths = (
{
closed = 1;
nodes = (
"56 262 LINE",
"75 314 OFFCURVE",
"122 426 OFFCURVE",
"174 426 CURVE SMOOTH",
"190 426 OFFCURVE",
"197 411 OFFCURVE",
"197 394 CURVE SMOOTH",
"197 376 OFFCURVE",
"186 346 OFFCURVE",
"181 335 CURVE SMOOTH",
"117 186 LINE SMOOTH",
"107 163 OFFCURVE",
"97 113 OFFCURVE",
"97 84 CURVE SMOOTH",
"97 20 OFFCURVE",
"139 -12 OFFCURVE",
"178 -12 CURVE SMOOTH",
"374 -12 OFFCURVE",
"452 262 OFFCURVE",
"452 344 CURVE SMOOTH",
"452 394 OFFCURVE",
"435 456 OFFCURVE",
"381 456 CURVE SMOOTH",
"352 456 OFFCURVE",
"332 437 OFFCURVE",
"332 406 CURVE SMOOTH",
"332 370 OFFCURVE",
"366 352 OFFCURVE",
"386 348 CURVE SMOOTH",
"399 345 OFFCURVE",
"416 339 OFFCURVE",
"416 310 CURVE SMOOTH",
"416 220 OFFCURVE",
"324 12 OFFCURVE",
"190 12 CURVE SMOOTH",
"159 12 OFFCURVE",
"149 24 OFFCURVE",
"149 50 CURVE SMOOTH",
"149 68 OFFCURVE",
"160 98 OFFCURVE",
"165 109 CURVE SMOOTH",
"229 258 LINE SMOOTH",
"240 284 OFFCURVE",
"249 331 OFFCURVE",
"249 360 CURVE SMOOTH",
"249 428 OFFCURVE",
"218 456 OFFCURVE",
"185 456 CURVE SMOOTH",
"120 456 OFFCURVE",
"68 362 OFFCURVE",
"36 268 CURVE"
);
}
);
width = 472;
}
);
leftKerningGroup = v;
note = v;
rightKerningGroup = v;
unicode = 0076;
},
{
color = 4;
glyphname = w;
layers = (
{
layerId = "5B4932CE-A79B-4666-BF39-F6F4657B0F77";
paths = (
{
closed = 1;
nodes = (
"56 262 LINE",
"75 314 OFFCURVE",
"122 426 OFFCURVE",
"174 426 CURVE SMOOTH",
"190 426 OFFCURVE",
"197 411 OFFCURVE",
"197 394 CURVE SMOOTH",
"197 376 OFFCURVE",
"186 346 OFFCURVE",
"181 335 CURVE SMOOTH",
"117 186 LINE SMOOTH",
"107 163 OFFCURVE",
"97 113 OFFCURVE",
"97 84 CURVE SMOOTH",
"97 20 OFFCURVE",
"132 -12 OFFCURVE",
"174 -12 CURVE SMOOTH",
"237 -12 OFFCURVE",
"307 68 OFFCURVE",
"346 147 CURVE",
"352 145 LINE",
"346 123 OFFCURVE",
"343 108 OFFCURVE",
"343 78 CURVE SMOOTH",
"343 10 OFFCURVE",
"380 -12 OFFCURVE",
"422 -12 CURVE SMOOTH",
"618 -12 OFFCURVE",
"696 262 OFFCURVE",
"696 344 CURVE SMOOTH",
"696 394 OFFCURVE",
"679 456 OFFCURVE",
"625 456 CURVE SMOOTH",
"596 456 OFFCURVE",
"576 437 OFFCURVE",
"576 406 CURVE SMOOTH",
"576 370 OFFCURVE",
"610 352 OFFCURVE",
"630 348 CURVE SMOOTH",
"645 345 OFFCURVE",
"660 339 OFFCURVE",
"660 310 CURVE SMOOTH",
"660 220 OFFCURVE",
"568 12 OFFCURVE",
"434 12 CURVE SMOOTH",
"411 12 OFFCURVE",
"401 30 OFFCURVE",
"401 46 CURVE SMOOTH",
"401 60 OFFCURVE",
"403 85 OFFCURVE",
"409 108 CURVE SMOOTH",
"500 444 LINE",
"434 444 LINE",
"402 324 LINE SMOOTH",
"368 202 OFFCURVE",
"262 12 OFFCURVE",
"184 12 CURVE SMOOTH",
"160 12 OFFCURVE",
"149 24 OFFCURVE",
"149 50 CURVE SMOOTH",
"149 68 OFFCURVE",
"160 98 OFFCURVE",
"165 109 CURVE SMOOTH",
"229 258 LINE SMOOTH",
"240 284 OFFCURVE",
"249 331 OFFCURVE",
"249 360 CURVE SMOOTH",
"249 428 OFFCURVE",
"218 456 OFFCURVE",
"185 456 CURVE SMOOTH",
"120 456 OFFCURVE",
"68 362 OFFCURVE",
"36 268 CURVE"
);
}
);
width = 716;
}
);
leftKerningGroup = w;
note = w;
rightKerningGroup = v;
unicode = 0077;
},
{
color = 4;
glyphname = x;
layers = (
{
layerId = "5B4932CE-A79B-4666-BF39-F6F4657B0F77";
paths = (
{
closed = 1;
nodes = (
"25 48 OFFCURVE",
"29 26 OFFCURVE",
"43 10 CURVE SMOOTH",
"53 -2 OFFCURVE",
"77 -12 OFFCURVE",
"100 -12 CURVE SMOOTH",
"156 -12 OFFCURVE",
"205 30 OFFCURVE",
"244 91 CURVE",
"248 89 LINE",
"251 41 OFFCURVE",
"274 -12 OFFCURVE",
"336 -12 CURVE SMOOTH",
"417 -12 OFFCURVE",
"477 76 OFFCURVE",
"506 148 CURVE",
"485 155 LINE",
"458 90 OFFCURVE",
"400 12 OFFCURVE",
"344 12 CURVE SMOOTH",
"306 12 OFFCURVE",
"292 46 OFFCURVE",
"292 84 CURVE SMOOTH",
"292 98 OFFCURVE",
"292 123 OFFCURVE",
"300 150 CURVE SMOOTH",
"325 242 LINE SMOOTH",
"354 340 OFFCURVE",
"400 432 OFFCURVE",
"468 432 CURVE SMOOTH",
"481 432 OFFCURVE",
"490 426 OFFCURVE",
"490 416 CURVE SMOOTH",
"490 404 OFFCURVE",
"486 397 OFFCURVE",
"471 390 CURVE SMOOTH",
"454 382 OFFCURVE",
"442 369 OFFCURVE",
"442 346 CURVE SMOOTH",
"442 331 OFFCURVE",
"448 320 OFFCURVE",
"456 314 CURVE SMOOTH",
"463 309 OFFCURVE",
"472 306 OFFCURVE",
"480 306 CURVE SMOOTH",
"500 306 OFFCURVE",
"516 317 OFFCURVE",
"526 330 CURVE SMOOTH",
"539 346 OFFCURVE",
"544 366 OFFCURVE",
"544 385 CURVE SMOOTH",
"544 396 OFFCURVE",
"540 418 OFFCURVE",
"526 434 CURVE SMOOTH",
"516 446 OFFCURVE",
"492 456 OFFCURVE",
"469 456 CURVE SMOOTH",
"413 456 OFFCURVE",
"364 414 OFFCURVE",
"325 353 CURVE",
"321 355 LINE",
"318 403 OFFCURVE",
"295 456 OFFCURVE",
"233 456 CURVE SMOOTH",
"152 456 OFFCURVE",
"92 368 OFFCURVE",
"63 296 CURVE",
"84 289 LINE",
"111 354 OFFCURVE",
"169 432 OFFCURVE",
"225 432 CURVE SMOOTH",
"263 432 OFFCURVE",
"277 398 OFFCURVE",
"277 360 CURVE SMOOTH",
"277 346 OFFCURVE",
"277 323 OFFCURVE",
"269 294 CURVE SMOOTH",
"244 202 LINE SMOOTH",
"217 102 OFFCURVE",
"169 12 OFFCURVE",
"101 12 CURVE SMOOTH",
"88 12 OFFCURVE",
"79 18 OFFCURVE",
"79 28 CURVE SMOOTH",
"79 41 OFFCURVE",
"83 44 OFFCURVE",
"96 50 CURVE SMOOTH",
"112 57 OFFCURVE",
"127 72 OFFCURVE",
"127 98 CURVE SMOOTH",
"127 113 OFFCURVE",
"121 124 OFFCURVE",
"113 130 CURVE SMOOTH",
"106 135 OFFCURVE",
"97 138 OFFCURVE",
"89 138 CURVE SMOOTH",
"69 138 OFFCURVE",
"53 127 OFFCURVE",
"43 114 CURVE SMOOTH",
"30 98 OFFCURVE",
"25 78 OFFCURVE",
"25 59 CURVE SMOOTH"
);
}
);
width = 564;
}
);
leftKerningGroup = x;
note = x;
rightKerningGroup = x;
unicode = 0078;
},
{
color = 4;
glyphname = y;
layers = (
{
layerId = "5B4932CE-A79B-4666-BF39-F6F4657B0F77";
paths = (
{
closed = 1;
nodes = (
"24 -212 OFFCURVE",
"74 -248 OFFCURVE",
"144 -248 CURVE SMOOTH",
"181 -248 OFFCURVE",
"237 -234 OFFCURVE",
"283 -186 CURVE SMOOTH",
"338 -129 OFFCURVE",
"371 -44 OFFCURVE",
"383 0 CURVE SMOOTH",
"501 444 LINE",
"435 444 LINE",
"402 324 LINE SMOOTH",
"368 202 OFFCURVE",
"262 12 OFFCURVE",
"184 12 CURVE SMOOTH",
"160 12 OFFCURVE",
"149 24 OFFCURVE",
"149 50 CURVE SMOOTH",
"149 68 OFFCURVE",
"160 98 OFFCURVE",
"165 109 CURVE SMOOTH",
"229 258 LINE SMOOTH",
"240 284 OFFCURVE",
"249 331 OFFCURVE",
"249 360 CURVE SMOOTH",
"249 428 OFFCURVE",
"218 456 OFFCURVE",
"185 456 CURVE SMOOTH",
"120 456 OFFCURVE",
"68 362 OFFCURVE",
"36 268 CURVE",
"56 262 LINE",
"75 314 OFFCURVE",
"122 426 OFFCURVE",
"174 426 CURVE SMOOTH",
"190 426 OFFCURVE",
"197 411 OFFCURVE",
"197 394 CURVE SMOOTH",
"197 376 OFFCURVE",
"186 346 OFFCURVE",
"181 335 CURVE SMOOTH",
"117 186 LINE SMOOTH",
"107 163 OFFCURVE",
"97 113 OFFCURVE",
"97 84 CURVE SMOOTH",
"97 20 OFFCURVE",
"132 -12 OFFCURVE",
"174 -12 CURVE SMOOTH",
"237 -12 OFFCURVE",
"307 68 OFFCURVE",
"346 147 CURVE",
"352 145 LINE",
"309 -16 LINE SMOOTH",
"300 -50 OFFCURVE",
"282 -122 OFFCURVE",
"243 -170 CURVE SMOOTH",
"208 -213 OFFCURVE",
"178 -224 OFFCURVE",
"133 -224 CURVE SMOOTH",
"101 -224 OFFCURVE",
"90 -210 OFFCURVE",
"90 -192 CURVE SMOOTH",
"90 -180 OFFCURVE",
"92 -176 OFFCURVE",
"99 -170 CURVE SMOOTH",
"109 -162 OFFCURVE",
"118 -148 OFFCURVE",
"118 -130 CURVE SMOOTH",
"118 -112 OFFCURVE",
"106 -90 OFFCURVE",
"78 -90 CURVE SMOOTH",
"52 -90 OFFCURVE",
"24 -110 OFFCURVE",
"24 -150 CURVE SMOOTH"
);
}
);
width = 512;
}
);
leftKerningGroup = y;
note = y;
rightKerningGroup = y;
unicode = 0079;
},
{
color = 4;
glyphname = z;
layers = (
{
layerId = "5B4932CE-A79B-4666-BF39-F6F4657B0F77";
paths = (
{
closed = 1;
nodes = (
"26 5 OFFCURVE",
"41 -12 OFFCURVE",
"62 -12 CURVE SMOOTH",
"84 -12 OFFCURVE",
"92 4 OFFCURVE",
"92 19 CURVE SMOOTH",
"92 29 OFFCURVE",
"87 39 OFFCURVE",
"75 44 CURVE",
"69 46 OFFCURVE",
"60 50 OFFCURVE",
"60 60 CURVE SMOOTH",
"60 76 OFFCURVE",
"75 76 OFFCURVE",
"81 76 CURVE SMOOTH",
"95 76 OFFCURVE",
"108 63 OFFCURVE",
"123 46 CURVE SMOOTH",
"146 20 OFFCURVE",
"177 -12 OFFCURVE",
"233 -12 CURVE SMOOTH",
"320 -12 OFFCURVE",
"359 94 OFFCURVE",
"380 163 CURVE",
"361 171 LINE",
"346 124 OFFCURVE",
"312 52 OFFCURVE",
"244 52 CURVE SMOOTH",
"205 52 OFFCURVE",
"178 63 OFFCURVE",
"149 78 CURVE SMOOTH",
"127 90 OFFCURVE",
"105 99 OFFCURVE",
"73 107 CURVE",
"81 143 OFFCURVE",
"105 159 OFFCURVE",
"239 216 CURVE SMOOTH",
"332 256 OFFCURVE",
"410 341 OFFCURVE",
"410 408 CURVE SMOOTH",
"410 434 OFFCURVE",
"399 456 OFFCURVE",
"372 456 CURVE SMOOTH",
"352 456 OFFCURVE",
"344 441 OFFCURVE",
"344 424 CURVE SMOOTH",
"344 410 OFFCURVE",
"354 401 OFFCURVE",
"360 398 CURVE SMOOTH",
"368 394 OFFCURVE",
"369 390 OFFCURVE",
"369 384 CURVE SMOOTH",
"369 374 OFFCURVE",
"360 366 OFFCURVE",
"340 366 CURVE SMOOTH",
"327 366 OFFCURVE",
"315 381 OFFCURVE",
"301 399 CURVE",
"282 426 OFFCURVE",
"256 456 OFFCURVE",
"216 456 CURVE SMOOTH",
"140 456 OFFCURVE",
"92 344 OFFCURVE",
"78 293 CURVE",
"94 286 LINE",
"108 322 OFFCURVE",
"136 384 OFFCURVE",
"202 384 CURVE SMOOTH",
"222 384 OFFCURVE",
"236 374 OFFCURVE",
"251 362 CURVE SMOOTH",
"268 349 OFFCURVE",
"286 336 OFFCURVE",
"318 336 CURVE SMOOTH",
"333 336 OFFCURVE",
"349 341 OFFCURVE",
"369 356 CURVE",
"369 355 OFFCURVE",
"371 352 OFFCURVE",
"371 352 CURVE",
"353 309 OFFCURVE",
"311 284 OFFCURVE",
"197 237 CURVE SMOOTH",
"122 206 OFFCURVE",
"26 132 OFFCURVE",
"26 30 CURVE SMOOTH"
);
}
);
width = 440;
}
);
note = z;
unicode = 007A;
},
{
color = 4;
glyphname = braceleft;
layers = (
{
layerId = "5B4932CE-A79B-4666-BF39-F6F4657B0F77";
paths = (
{
closed = 1;
nodes = (
"106 -130 OFFCURVE",
"145 -171 OFFCURVE",
"215 -196 CURVE",
"234 -172 LINE",
"192 -156 OFFCURVE",
"154 -139 OFFCURVE",
"154 -99 CURVE SMOOTH",
"154 -28 OFFCURVE",
"256 71 OFFCURVE",
"256 174 CURVE SMOOTH",
"256 229 OFFCURVE",
"224 255 OFFCURVE",
"193 266 CURVE",
"194 268 LINE",
"305 301 OFFCURVE",
"331 398 OFFCURVE",
"334 475 CURVE",
"334 536 LINE SMOOTH",
"337 654 OFFCURVE",
"373 675 OFFCURVE",
"472 706 CURVE",
"466 730 LINE",
"341 692 OFFCURVE",
"260 626 OFFCURVE",
"260 473 CURVE SMOOTH",
"260 425 LINE SMOOTH",
"260 286 OFFCURVE",
"197 276 OFFCURVE",
"125 276 CURVE",
"120 258 LINE",
"172 258 OFFCURVE",
"208 250 OFFCURVE",
"208 207 CURVE SMOOTH",
"208 127 OFFCURVE",
"106 24 OFFCURVE",
"106 -71 CURVE SMOOTH"
);
}
);
width = 420;
}
);
note = braceleft;
unicode = 007B;
},
{
color = 4;
glyphname = bar;
layers = (
{
layerId = "5B4932CE-A79B-4666-BF39-F6F4657B0F77";
paths = (
{
closed = 1;
nodes = (
"144 -198 LINE",
"188 -198 LINE",
"188 730 LINE",
"144 730 LINE"
);
}
);
width = 284;
}
);
note = bar;
unicode = 007C;
},
{
color = 4;
glyphname = braceright;
layers = (
{
layerId = "5B4932CE-A79B-4666-BF39-F6F4657B0F77";
paths = (
{
closed = 1;
nodes = (
"-2 -196 LINE",
"123 -158 OFFCURVE",
"204 -92 OFFCURVE",
"204 61 CURVE SMOOTH",
"204 109 LINE SMOOTH",
"204 248 OFFCURVE",
"267 258 OFFCURVE",
"339 258 CURVE",
"344 276 LINE",
"292 276 OFFCURVE",
"256 284 OFFCURVE",
"256 327 CURVE SMOOTH",
"256 407 OFFCURVE",
"358 510 OFFCURVE",
"358 605 CURVE SMOOTH",
"358 664 OFFCURVE",
"319 705 OFFCURVE",
"249 730 CURVE",
"230 706 LINE",
"272 690 OFFCURVE",
"310 673 OFFCURVE",
"310 633 CURVE SMOOTH",
"310 562 OFFCURVE",
"208 463 OFFCURVE",
"208 360 CURVE SMOOTH",
"208 305 OFFCURVE",
"240 279 OFFCURVE",
"271 268 CURVE",
"270 266 LINE",
"159 233 OFFCURVE",
"133 136 OFFCURVE",
"130 59 CURVE",
"130 -2 LINE SMOOTH",
"127 -120 OFFCURVE",
"91 -141 OFFCURVE",
"-8 -172 CURVE"
);
}
);
width = 420;
}
);
note = braceright;
unicode = 007D;
},
{
color = 4;
glyphname = asciitilde;
layers = (
{
layerId = "5B4932CE-A79B-4666-BF39-F6F4657B0F77";
paths = (
{
closed = 1;
nodes = (
"60 215 OFFCURVE",
"82 182 OFFCURVE",
"124 163 CURVE",
"136 184 LINE",
"111 197 OFFCURVE",
"94 214 OFFCURVE",
"94 244 CURVE SMOOTH",
"94 273 OFFCURVE",
"114 290 OFFCURVE",
"134 290 CURVE SMOOTH",
"177 290 OFFCURVE",
"240 261 OFFCURVE",
"302 234 CURVE SMOOTH",
"372 203 OFFCURVE",
"446 170 OFFCURVE",
"510 170 CURVE SMOOTH",
"587 170 OFFCURVE",
"624 221 OFFCURVE",
"624 269 CURVE SMOOTH",
"624 307 OFFCURVE",
"602 340 OFFCURVE",
"560 359 CURVE",
"548 338 LINE",
"573 325 OFFCURVE",
"590 308 OFFCURVE",
"590 278 CURVE SMOOTH",
"590 249 OFFCURVE",
"570 232 OFFCURVE",
"550 232 CURVE SMOOTH",
"506 232 OFFCURVE",
"446 259 OFFCURVE",
"382 288 CURVE SMOOTH",
"312 319 OFFCURVE",
"237 352 OFFCURVE",
"174 352 CURVE SMOOTH",
"97 352 OFFCURVE",
"60 301 OFFCURVE",
"60 253 CURVE SMOOTH"
);
}
);
width = 660;
}
);
note = asciitilde;
unicode = 007E;
},
{
color = 4;
glyphname = exclamdown;
layers = (
{
layerId = "5B4932CE-A79B-4666-BF39-F6F4657B0F77";
paths = (
{
closed = 1;
nodes = (
"142 360 OFFCURVE",
"168 334 OFFCURVE",
"204 334 CURVE SMOOTH",
"240 334 OFFCURVE",
"266 360 OFFCURVE",
"266 396 CURVE SMOOTH",
"266 432 OFFCURVE",
"240 458 OFFCURVE",
"204 458 CURVE SMOOTH",
"168 458 OFFCURVE",
"142 432 OFFCURVE",
"142 396 CURVE SMOOTH"
);
},
{
closed = 1;
nodes = (
"-4 -221 OFFCURVE",
"13 -248 OFFCURVE",
"48 -248 CURVE SMOOTH",
"76 -248 OFFCURVE",
"107 -234 OFFCURVE",
"118 -178 CURVE SMOOTH",
"126 -136 OFFCURVE",
"132 -92 OFFCURVE",
"137 -47 CURVE SMOOTH",
"141 -8 OFFCURVE",
"148 41 OFFCURVE",
"156 85 CURVE SMOOTH",
"192 288 LINE",
"168 288 LINE",
"98 100 LINE SMOOTH",
"86 66 OFFCURVE",
"70 29 OFFCURVE",
"54 -8 CURVE SMOOTH",
"24 -76 OFFCURVE",
"-4 -142 OFFCURVE",
"-4 -178 CURVE SMOOTH"
);
}
);
width = 280;
}
);
note = exclamdown;
unicode = 00A1;
},
{
color = 4;
glyphname = cent;
layers = (
{
layerId = "5B4932CE-A79B-4666-BF39-F6F4657B0F77";
paths = (
{
closed = 1;
nodes = (
"136 79 OFFCURVE",
"174 9 OFFCURVE",
"239 -8 CURVE",
"208 -120 LINE",
"232 -120 LINE",
"262 -12 LINE",
"270 -12 LINE SMOOTH",
"365 -12 OFFCURVE",
"424 64 OFFCURVE",
"450 119 CURVE",
"429 126 LINE",
"399 65 OFFCURVE",
"345 12 OFFCURVE",
"275 12 CURVE SMOOTH",
"268 12 LINE",
"383 432 LINE",
"419 432 OFFCURVE",
"437 415 OFFCURVE",
"437 393 CURVE SMOOTH",
"437 386 OFFCURVE",
"436 378 OFFCURVE",
"426 370 CURVE",
"411 359 OFFCURVE",
"394 342 OFFCURVE",
"394 321 CURVE SMOOTH",
"394 304 OFFCURVE",
"406 286 OFFCURVE",
"433 286 CURVE SMOOTH",
"464 286 OFFCURVE",
"490 316 OFFCURVE",
"490 356 CURVE SMOOTH",
"490 422 OFFCURVE",
"434 456 OFFCURVE",
"390 456 CURVE",
"422 576 LINE",
"398 576 LINE",
"365 456 LINE",
"309 453 OFFCURVE",
"267 427 OFFCURVE",
"224 381 CURVE SMOOTH",
"143 295 OFFCURVE",
"136 198 OFFCURVE",
"136 158 CURVE SMOOTH"
);
},
{
closed = 1;
nodes = (
"208 130 OFFCURVE",
"210 181 OFFCURVE",
"234 258 CURVE SMOOTH",
"253 319 OFFCURVE",
"275 364 OFFCURVE",
"298 392 CURVE SMOOTH",
"320 419 OFFCURVE",
"345 432 OFFCURVE",
"358 432 CURVE",
"246 18 LINE",
"221 30 OFFCURVE",
"208 59 OFFCURVE",
"208 98 CURVE SMOOTH"
);
}
);
width = 580;
}
);
note = cent;
unicode = 00A2;
},
{
color = 4;
glyphname = sterling;
layers = (
{
layerId = "5B4932CE-A79B-4666-BF39-F6F4657B0F77";
paths = (
{
closed = 1;
nodes = (
"-32 0 OFFCURVE",
"11 -16 OFFCURVE",
"48 -16 CURVE SMOOTH",
"109 -16 OFFCURVE",
"169 9 OFFCURVE",
"221 57 CURVE",
"250 42 LINE SMOOTH",
"305 12 OFFCURVE",
"359 -16 OFFCURVE",
"417 -16 CURVE SMOOTH",
"500 -16 OFFCURVE",
"543 3 OFFCURVE",
"590 45 CURVE SMOOTH",
"640 89 OFFCURVE",
"666 166 OFFCURVE",
"676 219 CURVE",
"656 225 LINE",
"638 144 OFFCURVE",
"583 52 OFFCURVE",
"448 52 CURVE SMOOTH",
"408 52 OFFCURVE",
"365 68 OFFCURVE",
"317 87 CURVE SMOOTH",
"300 94 OFFCURVE",
"284 100 OFFCURVE",
"267 106 CURVE",
"308 157 OFFCURVE",
"343 225 OFFCURVE",
"368 305 CURVE",
"403 299 OFFCURVE",
"439 294 OFFCURVE",
"480 294 CURVE SMOOTH",
"524 294 OFFCURVE",
"563 309 OFFCURVE",
"580 322 CURVE",
"572 344 LINE",
"549 332 OFFCURVE",
"524 322 OFFCURVE",
"480 322 CURVE SMOOTH",
"441 322 OFFCURVE",
"408 326 OFFCURVE",
"376 332 CURVE",
"382 351 OFFCURVE",
"388 376 OFFCURVE",
"392 400 CURVE SMOOTH",
"415 520 OFFCURVE",
"451 678 OFFCURVE",
"573 678 CURVE SMOOTH",
"639 678 OFFCURVE",
"660 638 OFFCURVE",
"660 609 CURVE SMOOTH",
"660 595 OFFCURVE",
"654 592 OFFCURVE",
"644 592 CURVE SMOOTH",
"640 592 OFFCURVE",
"634 592 OFFCURVE",
"626 596 CURVE SMOOTH",
"620 599 OFFCURVE",
"612 600 OFFCURVE",
"606 600 CURVE SMOOTH",
"592 600 OFFCURVE",
"569 590 OFFCURVE",
"569 561 CURVE SMOOTH",
"569 521 OFFCURVE",
"606 510 OFFCURVE",
"630 510 CURVE SMOOTH",
"662 510 OFFCURVE",
"696 538 OFFCURVE",
"696 588 CURVE SMOOTH",
"696 624 OFFCURVE",
"672 700 OFFCURVE",
"574 700 CURVE SMOOTH",
"405 700 OFFCURVE",
"331 480 OFFCURVE",
"297 347 CURVE",
"267 352 OFFCURVE",
"236 356 OFFCURVE",
"200 356 CURVE SMOOTH",
"156 356 OFFCURVE",
"120 342 OFFCURVE",
"100 328 CURVE",
"108 306 LINE",
"138 320 OFFCURVE",
"156 328 OFFCURVE",
"200 328 CURVE SMOOTH",
"232 328 OFFCURVE",
"261 324 OFFCURVE",
"290 320 CURVE",
"273 251 OFFCURVE",
"252 179 OFFCURVE",
"219 121 CURVE",
"186 130 OFFCURVE",
"150 136 OFFCURVE",
"112 136 CURVE SMOOTH",
"45 136 OFFCURVE",
"-32 105 OFFCURVE",
"-32 41 CURVE SMOOTH"
);
},
{
closed = 1;
nodes = (
"-4 79 OFFCURVE",
"34 102 OFFCURVE",
"68 102 CURVE SMOOTH",
"110 102 OFFCURVE",
"149 90 OFFCURVE",
"187 73 CURVE",
"153 34 OFFCURVE",
"109 8 OFFCURVE",
"52 8 CURVE SMOOTH",
"30 8 OFFCURVE",
"-4 9 OFFCURVE",
"-4 43 CURVE SMOOTH"
);
}
);
width = 720;
}
);
note = sterling;
unicode = 00A3;
},
{
color = 4;
glyphname = currency;
layers = (
{
layerId = "5B4932CE-A79B-4666-BF39-F6F4657B0F77";
paths = (
{
closed = 1;
nodes = (
"138 446 OFFCURVE",
"214 524 OFFCURVE",
"318 524 CURVE SMOOTH",
"422 524 OFFCURVE",
"498 446 OFFCURVE",
"498 342 CURVE SMOOTH",
"498 238 OFFCURVE",
"422 162 OFFCURVE",
"318 162 CURVE SMOOTH",
"214 162 OFFCURVE",
"138 238 OFFCURVE",
"138 342 CURVE SMOOTH"
);
},
{
closed = 1;
nodes = (
"80 136 LINE",
"111 105 LINE",
"178 172 LINE",
"216 141 OFFCURVE",
"265 122 OFFCURVE",
"318 122 CURVE SMOOTH",
"371 122 OFFCURVE",
"420 141 OFFCURVE",
"458 172 CURVE",
"525 105 LINE",
"556 136 LINE",
"489 203 LINE",
"520 241 OFFCURVE",
"538 289 OFFCURVE",
"538 342 CURVE SMOOTH",
"538 395 OFFCURVE",
"519 444 OFFCURVE",
"488 482 CURVE",
"556 550 LINE",
"525 581 LINE",
"458 514 LINE",
"420 545 OFFCURVE",
"371 564 OFFCURVE",
"318 564 CURVE SMOOTH",
"265 564 OFFCURVE",
"216 545 OFFCURVE",
"178 514 CURVE",
"111 581 LINE",
"80 550 LINE",
"148 482 LINE",
"117 444 OFFCURVE",
"98 395 OFFCURVE",
"98 342 CURVE SMOOTH",
"98 289 OFFCURVE",
"116 241 OFFCURVE",
"147 203 CURVE"
);
}
);
width = 580;
}
);
note = currency;
unicode = 00A4;
},
{
color = 4;
glyphname = yen;
layers = (
{
layerId = "5B4932CE-A79B-4666-BF39-F6F4657B0F77";
paths = (
{
closed = 1;
nodes = (
"64 0 LINE",
"360 0 LINE",
"369 32 LINE",
"293 32 LINE SMOOTH",
"273 32 OFFCURVE",
"267 41 OFFCURVE",
"272 60 CURVE SMOOTH",
"312 206 LINE",
"452 206 LINE",
"461 238 LINE",
"321 238 LINE",
"337 298 LINE",
"477 298 LINE",
"486 330 LINE",
"346 330 LINE",
"567 598 LINE SMOOTH",
"593 629 OFFCURVE",
"614 652 OFFCURVE",
"643 652 CURVE SMOOTH",
"681 652 LINE",
"690 684 LINE",
"458 684 LINE",
"449 652 LINE",
"491 652 LINE SMOOTH",
"519 652 OFFCURVE",
"524 624 OFFCURVE",
"524 612 CURVE SMOOTH",
"524 594 OFFCURVE",
"510 571 OFFCURVE",
"503 562 CURVE SMOOTH",
"335 358 LINE",
"282 610 LINE",
"280 617 OFFCURVE",
"279 629 OFFCURVE",
"281 635 CURVE",
"283 644 OFFCURVE",
"290 652 OFFCURVE",
"312 652 CURVE SMOOTH",
"353 652 LINE",
"362 684 LINE",
"102 684 LINE",
"93 652 LINE",
"156 652 LINE SMOOTH",
"180 652 OFFCURVE",
"185 634 OFFCURVE",
"190 613 CURVE SMOOTH",
"252 330 LINE",
"118 330 LINE",
"109 298 LINE",
"249 298 LINE",
"233 238 LINE",
"93 238 LINE",
"84 206 LINE",
"224 206 LINE",
"184 60 LINE SMOOTH",
"179 41 OFFCURVE",
"168 32 OFFCURVE",
"149 32 CURVE SMOOTH",
"73 32 LINE"
);
}
);
width = 580;
}
);
note = yen;
unicode = 00A5;
},
{
color = 4;
glyphname = brokenbar;
layers = (
{
layerId = "5B4932CE-A79B-4666-BF39-F6F4657B0F77";
paths = (
{
closed = 1;
nodes = (
"144 370 LINE",
"188 370 LINE",
"188 730 LINE",
"144 730 LINE"
);
},
{
closed = 1;
nodes = (
"144 -168 LINE",
"188 -168 LINE",
"188 192 LINE",
"144 192 LINE"
);
}
);
width = 284;
}
);
note = brokenbar;
unicode = 00A6;
},
{
color = 4;
glyphname = section;
layers = (
{
layerId = "5B4932CE-A79B-4666-BF39-F6F4657B0F77";
paths = (
{
closed = 1;
nodes = (
"72 -112 OFFCURVE",
"118 -186 OFFCURVE",
"206 -186 CURVE SMOOTH",
"284 -186 OFFCURVE",
"388 -126 OFFCURVE",
"388 -5 CURVE SMOOTH",
"388 33 OFFCURVE",
"380 60 OFFCURVE",
"368 79 CURVE",
"432 111 OFFCURVE",
"496 191 OFFCURVE",
"496 256 CURVE SMOOTH",
"496 290 OFFCURVE",
"484 330 OFFCURVE",
"436 367 CURVE SMOOTH",
"320 454 LINE SMOOTH",
"289 476 OFFCURVE",
"264 494 OFFCURVE",
"264 537 CURVE SMOOTH",
"264 631 OFFCURVE",
"334 672 OFFCURVE",
"384 672 CURVE SMOOTH",
"445 672 OFFCURVE",
"484 632 OFFCURVE",
"484 590 CURVE SMOOTH",
"484 583 OFFCURVE",
"483 575 OFFCURVE",
"478 570 CURVE SMOOTH",
"476 568 OFFCURVE",
"471 567 OFFCURVE",
"469 567 CURVE SMOOTH",
"467 567 OFFCURVE",
"463 568 OFFCURVE",
"459 569 CURVE",
"456 570 OFFCURVE",
"451 571 OFFCURVE",
"445 571 CURVE SMOOTH",
"425 571 OFFCURVE",
"406 553 OFFCURVE",
"406 528 CURVE SMOOTH",
"406 495 OFFCURVE",
"433 484 OFFCURVE",
"450 484 CURVE SMOOTH",
"495 484 OFFCURVE",
"528 522 OFFCURVE",
"528 570 CURVE SMOOTH",
"528 628 OFFCURVE",
"482 702 OFFCURVE",
"394 702 CURVE SMOOTH",
"316 702 OFFCURVE",
"212 642 OFFCURVE",
"212 521 CURVE SMOOTH",
"212 483 OFFCURVE",
"220 456 OFFCURVE",
"232 437 CURVE",
"168 405 OFFCURVE",
"104 325 OFFCURVE",
"104 260 CURVE SMOOTH",
"104 226 OFFCURVE",
"116 186 OFFCURVE",
"164 149 CURVE SMOOTH",
"274 66 LINE SMOOTH",
"306 42 OFFCURVE",
"336 19 OFFCURVE",
"336 -26 CURVE SMOOTH",
"336 -120 OFFCURVE",
"266 -156 OFFCURVE",
"216 -156 CURVE SMOOTH",
"155 -156 OFFCURVE",
"116 -116 OFFCURVE",
"116 -74 CURVE SMOOTH",
"116 -67 OFFCURVE",
"116 -54 OFFCURVE",
"121 -50 CURVE",
"124 -48 OFFCURVE",
"126 -48 OFFCURVE",
"127 -48 CURVE SMOOTH",
"130 -48 OFFCURVE",
"134 -49 OFFCURVE",
"138 -51 CURVE",
"143 -53 OFFCURVE",
"149 -55 OFFCURVE",
"155 -55 CURVE SMOOTH",
"175 -55 OFFCURVE",
"194 -37 OFFCURVE",
"194 -12 CURVE SMOOTH",
"194 21 OFFCURVE",
"167 32 OFFCURVE",
"150 32 CURVE SMOOTH",
"105 32 OFFCURVE",
"72 -6 OFFCURVE",
"72 -54 CURVE SMOOTH"
);
},
{
closed = 1;
nodes = (
"156 342 OFFCURVE",
"194 395 OFFCURVE",
"242 423 CURVE",
"251 413 OFFCURVE",
"260 405 OFFCURVE",
"269 398 CURVE SMOOTH",
"404 296 LINE SMOOTH",
"422 282 OFFCURVE",
"444 259 OFFCURVE",
"444 226 CURVE SMOOTH",
"444 174 OFFCURVE",
"406 121 OFFCURVE",
"358 93 CURVE",
"349 103 OFFCURVE",
"340 111 OFFCURVE",
"331 118 CURVE SMOOTH",
"196 220 LINE SMOOTH",
"178 234 OFFCURVE",
"156 257 OFFCURVE",
"156 290 CURVE SMOOTH"
);
}
);
width = 620;
}
);
note = section;
unicode = 00A7;
},
{
color = 4;
glyphname = dieresis;
layers = (
{
layerId = "5B4932CE-A79B-4666-BF39-F6F4657B0F77";
paths = (
{
closed = 1;
nodes = (
"391 570 OFFCURVE",
"413 548 OFFCURVE",
"439 548 CURVE SMOOTH",
"465 548 OFFCURVE",
"487 570 OFFCURVE",
"487 596 CURVE SMOOTH",
"487 622 OFFCURVE",
"465 644 OFFCURVE",
"439 644 CURVE SMOOTH",
"413 644 OFFCURVE",
"391 622 OFFCURVE",
"391 596 CURVE SMOOTH"
);
},
{
closed = 1;
nodes = (
"203 570 OFFCURVE",
"225 548 OFFCURVE",
"251 548 CURVE SMOOTH",
"277 548 OFFCURVE",
"299 570 OFFCURVE",
"299 596 CURVE SMOOTH",
"299 622 OFFCURVE",
"277 644 OFFCURVE",
"251 644 CURVE SMOOTH",
"225 644 OFFCURVE",
"203 622 OFFCURVE",
"203 596 CURVE SMOOTH"
);
}
);
width = 488;
}
);
note = dieresis;
unicode = 00A8;
},
{
color = 4;
glyphname = copyright;
layers = (
{
layerId = "5B4932CE-A79B-4666-BF39-F6F4657B0F77";
paths = (
{
closed = 1;
nodes = (
"100 544 OFFCURVE",
"246 702 OFFCURVE",
"434 702 CURVE SMOOTH",
"622 702 OFFCURVE",
"768 544 OFFCURVE",
"768 356 CURVE SMOOTH",
"768 168 OFFCURVE",
"622 10 OFFCURVE",
"434 10 CURVE SMOOTH",
"246 10 OFFCURVE",
"100 168 OFFCURVE",
"100 356 CURVE SMOOTH"
);
},
{
closed = 1;
nodes = (
"72 150 OFFCURVE",
"228 -18 OFFCURVE",
"434 -18 CURVE SMOOTH",
"640 -18 OFFCURVE",
"796 150 OFFCURVE",
"796 356 CURVE SMOOTH",
"796 562 OFFCURVE",
"640 730 OFFCURVE",
"434 730 CURVE SMOOTH",
"228 730 OFFCURVE",
"72 562 OFFCURVE",
"72 356 CURVE SMOOTH"
);
},
{
closed = 1;
nodes = (
"244 228 OFFCURVE",
"311 110 OFFCURVE",
"446 110 CURVE SMOOTH",
"550 110 OFFCURVE",
"593 203 OFFCURVE",
"598 278 CURVE",
"574 278 LINE",
"566 213 OFFCURVE",
"536 134 OFFCURVE",
"446 134 CURVE SMOOTH",
"357 134 OFFCURVE",
"332 260 OFFCURVE",
"332 338 CURVE SMOOTH",
"332 454 OFFCURVE",
"355 566 OFFCURVE",
"448 566 CURVE SMOOTH",
"496 566 OFFCURVE",
"564 500 OFFCURVE",
"572 420 CURVE",
"590 420 LINE",
"590 584 LINE",
"572 584 LINE",
"572 568 OFFCURVE",
"562 550 OFFCURVE",
"550 550 CURVE SMOOTH",
"540 550 OFFCURVE",
"538 551 OFFCURVE",
"530 557 CURVE SMOOTH",
"521 564 OFFCURVE",
"486 590 OFFCURVE",
"448 590 CURVE SMOOTH",
"319 590 OFFCURVE",
"244 484 OFFCURVE",
"244 338 CURVE SMOOTH"
);
}
);
width = 820;
}
);
note = copyright;
unicode = 00A9;
},
{
color = 4;
glyphname = ordfeminine;
layers = (
{
layerId = "5B4932CE-A79B-4666-BF39-F6F4657B0F77";
paths = (
{
closed = 1;
nodes = (
"88 362 LINE",
"329 362 LINE",
"336 386 LINE",
"95 386 LINE"
);
},
{
closed = 1;
nodes = (
"160 568 OFFCURVE",
"201 682 OFFCURVE",
"255 682 CURVE SMOOTH",
"289 682 OFFCURVE",
"298 655 OFFCURVE",
"298 636 CURVE SMOOTH",
"298 626 OFFCURVE",
"298 610 OFFCURVE",
"293 594 CURVE",
"285 563 LINE SMOOTH",
"268 499 OFFCURVE",
"227 430 OFFCURVE",
"190 430 CURVE SMOOTH",
"167 430 OFFCURVE",
"160 454 OFFCURVE",
"160 475 CURVE SMOOTH"
);
},
{
closed = 1;
nodes = (
"108 450 OFFCURVE",
"134 412 OFFCURVE",
"184 412 CURVE SMOOTH",
"214 412 OFFCURVE",
"245 449 OFFCURVE",
"257 472 CURVE",
"259 471 LINE",
"256 464 OFFCURVE",
"256 462 OFFCURVE",
"256 454 CURVE SMOOTH",
"256 442 OFFCURVE",
"265 412 OFFCURVE",
"305 412 CURVE SMOOTH",
"345 412 OFFCURVE",
"384 483 OFFCURVE",
"401 529 CURVE",
"389 534 LINE",
"374 493 OFFCURVE",
"344 439 OFFCURVE",
"317 439 CURVE SMOOTH",
"308 439 OFFCURVE",
"306 448 OFFCURVE",
"306 453 CURVE SMOOTH",
"306 465 OFFCURVE",
"312 487 OFFCURVE",
"315 497 CURVE SMOOTH",
"370 694 LINE",
"320 694 LINE",
"311 658 LINE",
"308 658 LINE",
"304 676 OFFCURVE",
"283 700 OFFCURVE",
"254 700 CURVE SMOOTH",
"164 700 OFFCURVE",
"108 582 OFFCURVE",
"108 503 CURVE SMOOTH"
);
}
);
width = 380;
}
);
note = ordfeminine;
unicode = 00AA;
},
{
color = 4;
glyphname = logicalnot;
layers = (
{
layerId = "5B4932CE-A79B-4666-BF39-F6F4657B0F77";
paths = (
{
closed = 1;
nodes = (
"72 406 LINE",
"512 406 LINE",
"512 240 LINE",
"556 240 LINE",
"556 406 LINE",
"556 446 LINE",
"72 446 LINE"
);
}
);
width = 580;
}
);
note = logicalnot;
unicode = 00AC;
},
{
color = 4;
glyphname = softhyphen;
layers = (
{
layerId = "5B4932CE-A79B-4666-BF39-F6F4657B0F77";
paths = (
{
closed = 1;
nodes = (
"74 196 LINE",
"74 216 OFFCURVE",
"82 224 OFFCURVE",
"102 224 CURVE SMOOTH",
"278 224 LINE SMOOTH",
"322 224 OFFCURVE",
"346 264 OFFCURVE",
"346 308 CURVE",
"328 308 LINE",
"328 288 OFFCURVE",
"320 280 OFFCURVE",
"300 280 CURVE SMOOTH",
"124 280 LINE SMOOTH",
"80 280 OFFCURVE",
"56 240 OFFCURVE",
"56 196 CURVE"
);
}
);
width = 370;
}
);
note = softhyphen;
unicode = 00AD;
},
{
color = 4;
glyphname = registered;
layers = (
{
layerId = "5B4932CE-A79B-4666-BF39-F6F4657B0F77";
paths = (
{
closed = 1;
nodes = (
"224 130 LINE",
"426 130 LINE",
"426 154 LINE",
"382 154 LINE SMOOTH",
"366 154 OFFCURVE",
"360 160 OFFCURVE",
"360 176 CURVE SMOOTH",
"360 358 LINE",
"438 358 LINE SMOOTH",
"464 358 OFFCURVE",
"505 344 OFFCURVE",
"505 273 CURVE SMOOTH",
"505 219 LINE SMOOTH",
"505 173 OFFCURVE",
"521 147 OFFCURVE",
"542 132 CURVE SMOOTH",
"558 121 OFFCURVE",
"574 118 OFFCURVE",
"593 118 CURVE SMOOTH",
"670 118 OFFCURVE",
"678 204 OFFCURVE",
"678 244 CURVE",
"660 244 LINE",
"660 219 OFFCURVE",
"655 154 OFFCURVE",
"618 154 CURVE SMOOTH",
"583 154 OFFCURVE",
"586 204 OFFCURVE",
"581 251 CURVE SMOOTH",
"572 339 OFFCURVE",
"519 360 OFFCURVE",
"490 366 CURVE",
"490 370 LINE",
"517 375 OFFCURVE",
"598 397 OFFCURVE",
"598 476 CURVE SMOOTH",
"598 550 OFFCURVE",
"531 586 OFFCURVE",
"452 586 CURVE SMOOTH",
"224 586 LINE",
"224 562 LINE",
"266 562 LINE SMOOTH",
"282 562 OFFCURVE",
"288 556 OFFCURVE",
"288 540 CURVE SMOOTH",
"288 176 LINE SMOOTH",
"288 160 OFFCURVE",
"282 154 OFFCURVE",
"266 154 CURVE SMOOTH",
"224 154 LINE"
);
},
{
closed = 1;
nodes = (
"360 382 LINE",
"360 540 LINE SMOOTH",
"360 556 OFFCURVE",
"366 562 OFFCURVE",
"382 562 CURVE SMOOTH",
"436 562 LINE SMOOTH",
"490 562 OFFCURVE",
"510 523 OFFCURVE",
"510 470 CURVE SMOOTH",
"510 413 OFFCURVE",
"480 382 OFFCURVE",
"437 382 CURVE SMOOTH"
);
},
{
closed = 1;
nodes = (
"100 544 OFFCURVE",
"246 702 OFFCURVE",
"434 702 CURVE SMOOTH",
"622 702 OFFCURVE",
"768 544 OFFCURVE",
"768 356 CURVE SMOOTH",
"768 168 OFFCURVE",
"622 10 OFFCURVE",
"434 10 CURVE SMOOTH",
"246 10 OFFCURVE",
"100 168 OFFCURVE",
"100 356 CURVE SMOOTH"
);
},
{
closed = 1;
nodes = (
"72 150 OFFCURVE",
"228 -18 OFFCURVE",
"434 -18 CURVE SMOOTH",
"640 -18 OFFCURVE",
"796 150 OFFCURVE",
"796 356 CURVE SMOOTH",
"796 562 OFFCURVE",
"640 730 OFFCURVE",
"434 730 CURVE SMOOTH",
"228 730 OFFCURVE",
"72 562 OFFCURVE",
"72 356 CURVE SMOOTH"
);
}
);
width = 820;
}
);
note = registered;
unicode = 00AE;
},
{
color = 4;
glyphname = macron;
layers = (
{
layerId = "5B4932CE-A79B-4666-BF39-F6F4657B0F77";
paths = (
{
closed = 1;
nodes = (
"188 546 LINE",
"502 546 LINE",
"512 586 LINE",
"198 586 LINE"
);
}
);
width = 515;
}
);
note = macron;
unicode = 00AF;
},
{
color = 4;
glyphname = degree;
layers = (
{
layerId = "5B4932CE-A79B-4666-BF39-F6F4657B0F77";
paths = (
{
closed = 1;
nodes = (
"266 574 OFFCURVE",
"324 676 OFFCURVE",
"404 676 CURVE SMOOTH",
"430 676 OFFCURVE",
"460 652 OFFCURVE",
"460 594 CURVE SMOOTH",
"460 482 OFFCURVE",
"402 380 OFFCURVE",
"322 380 CURVE SMOOTH",
"296 380 OFFCURVE",
"266 404 OFFCURVE",
"266 462 CURVE SMOOTH"
);
},
{
closed = 1;
nodes = (
"194 390 OFFCURVE",
"234 340 OFFCURVE",
"292 340 CURVE SMOOTH",
"412 340 OFFCURVE",
"488 482 OFFCURVE",
"488 578 CURVE SMOOTH",
"488 650 OFFCURVE",
"448 700 OFFCURVE",
"390 700 CURVE SMOOTH",
"270 700 OFFCURVE",
"194 558 OFFCURVE",
"194 462 CURVE SMOOTH"
);
}
);
width = 580;
}
);
note = degree;
unicode = 00B0;
},
{
color = 4;
glyphname = plusminus;
layers = (
{
layerId = "5B4932CE-A79B-4666-BF39-F6F4657B0F77";
paths = (
{
closed = 1;
nodes = (
"64 338 LINE",
"464 338 LINE",
"464 64 LINE",
"508 64 LINE",
"508 338 LINE",
"908 338 LINE",
"908 378 LINE",
"508 378 LINE",
"508 652 LINE",
"464 652 LINE",
"464 378 LINE",
"64 378 LINE"
);
},
{
closed = 1;
nodes = (
"64 0 LINE",
"64 -40 LINE",
"900 -40 LINE",
"900 0 LINE"
);
}
);
width = 940;
}
);
note = plusminus;
unicode = 00B1;
},
{
color = 4;
glyphname = twosuperior;
layers = (
{
layerId = "5B4932CE-A79B-4666-BF39-F6F4657B0F77";
paths = (
{
closed = 1;
nodes = (
"56 278 OFFCURVE",
"64 271 OFFCURVE",
"79 271 CURVE SMOOTH",
"96 271 OFFCURVE",
"100 284 OFFCURVE",
"100 294 CURVE SMOOTH",
"100 301 OFFCURVE",
"98 304 OFFCURVE",
"94 310 CURVE",
"90 315 OFFCURVE",
"88 318 OFFCURVE",
"88 325 CURVE SMOOTH",
"88 350 OFFCURVE",
"111 350 OFFCURVE",
"123 350 CURVE SMOOTH",
"138 350 OFFCURVE",
"152 335 OFFCURVE",
"167 318 CURVE SMOOTH",
"187 296 OFFCURVE",
"211 270 OFFCURVE",
"247 270 CURVE SMOOTH",
"306 270 OFFCURVE",
"336 350 OFFCURVE",
"355 403 CURVE",
"344 403 LINE",
"332 378 LINE",
"320 358 OFFCURVE",
"291 337 OFFCURVE",
"261 337 CURVE SMOOTH",
"210 337 OFFCURVE",
"136 357 OFFCURVE",
"136 377 CURVE SMOOTH",
"136 388 OFFCURVE",
"152 397 OFFCURVE",
"170 405 CURVE SMOOTH",
"269 452 LINE SMOOTH",
"327 479 OFFCURVE",
"406 517 OFFCURVE",
"406 594 CURVE SMOOTH",
"406 657 OFFCURVE",
"357 702 OFFCURVE",
"279 702 CURVE SMOOTH",
"209 702 OFFCURVE",
"144 647 OFFCURVE",
"144 583 CURVE SMOOTH",
"144 552 OFFCURVE",
"161 528 OFFCURVE",
"191 528 CURVE SMOOTH",
"216 528 OFFCURVE",
"234 549 OFFCURVE",
"234 571 CURVE SMOOTH",
"234 590 OFFCURVE",
"222 599 OFFCURVE",
"206 599 CURVE SMOOTH",
"199 599 OFFCURVE",
"196 597 OFFCURVE",
"193 595 CURVE",
"189 592 OFFCURVE",
"187 591 OFFCURVE",
"182 591 CURVE SMOOTH",
"176 591 OFFCURVE",
"174 599 OFFCURVE",
"174 606 CURVE SMOOTH",
"174 636 OFFCURVE",
"218 678 OFFCURVE",
"266 678 CURVE SMOOTH",
"323 678 OFFCURVE",
"342 639 OFFCURVE",
"342 598 CURVE SMOOTH",
"342 538 OFFCURVE",
"285 489 OFFCURVE",
"237 465 CURVE SMOOTH",
"153 420 LINE",
"97 393 OFFCURVE",
"56 359 OFFCURVE",
"56 294 CURVE SMOOTH"
);
}
);
width = 380;
}
);
note = twosuperior;
unicode = 00B2;
},
{
color = 4;
glyphname = threesuperior;
layers = (
{
layerId = "5B4932CE-A79B-4666-BF39-F6F4657B0F77";
paths = (
{
closed = 1;
nodes = (
"76 309 OFFCURVE",
"118 270 OFFCURVE",
"183 270 CURVE SMOOTH",
"268 270 OFFCURVE",
"360 329 OFFCURVE",
"360 417 CURVE SMOOTH",
"360 473 OFFCURVE",
"322 492 OFFCURVE",
"289 502 CURVE",
"290 506 LINE",
"329 511 OFFCURVE",
"400 541 OFFCURVE",
"400 610 CURVE SMOOTH",
"400 672 OFFCURVE",
"347 702 OFFCURVE",
"278 702 CURVE SMOOTH",
"221 702 OFFCURVE",
"160 665 OFFCURVE",
"160 607 CURVE SMOOTH",
"160 583 OFFCURVE",
"174 562 OFFCURVE",
"202 562 CURVE SMOOTH",
"227 562 OFFCURVE",
"238 581 OFFCURVE",
"238 600 CURVE SMOOTH",
"238 614 OFFCURVE",
"232 626 OFFCURVE",
"213 626 CURVE SMOOTH",
"211 626 OFFCURVE",
"208 625 OFFCURVE",
"205 624 CURVE SMOOTH",
"202 623 OFFCURVE",
"198 622 OFFCURVE",
"196 622 CURVE SMOOTH",
"192 622 OFFCURVE",
"191 626 OFFCURVE",
"191 632 CURVE SMOOTH",
"191 661 OFFCURVE",
"233 682 OFFCURVE",
"274 682 CURVE SMOOTH",
"318 682 OFFCURVE",
"342 669 OFFCURVE",
"342 618 CURVE SMOOTH",
"342 566 OFFCURVE",
"302 516 OFFCURVE",
"256 516 CURVE SMOOTH",
"182 516 LINE SMOOTH",
"166 516 OFFCURVE",
"160 503 OFFCURVE",
"160 494 CURVE SMOOTH",
"160 482 OFFCURVE",
"168 473 OFFCURVE",
"182 473 CURVE SMOOTH",
"194 473 OFFCURVE",
"202 477 OFFCURVE",
"210 483 CURVE SMOOTH",
"217 488 OFFCURVE",
"225 492 OFFCURVE",
"236 492 CURVE SMOOTH",
"282 492 OFFCURVE",
"296 478 OFFCURVE",
"296 424 CURVE SMOOTH",
"296 356 OFFCURVE",
"252 294 OFFCURVE",
"184 294 CURVE SMOOTH",
"142 294 OFFCURVE",
"111 316 OFFCURVE",
"111 351 CURVE SMOOTH",
"111 361 OFFCURVE",
"124 361 OFFCURVE",
"133 361 CURVE SMOOTH",
"155 361 OFFCURVE",
"168 375 OFFCURVE",
"168 393 CURVE SMOOTH",
"168 411 OFFCURVE",
"161 431 OFFCURVE",
"132 431 CURVE SMOOTH",
"110 431 OFFCURVE",
"76 412 OFFCURVE",
"76 368 CURVE SMOOTH"
);
}
);
width = 380;
}
);
note = threesuperior;
unicode = 00B3;
},
{
color = 4;
glyphname = acute;
layers = (
{
layerId = "5B4932CE-A79B-4666-BF39-F6F4657B0F77";
paths = (
{
closed = 1;
nodes = (
"180 520 LINE",
"192 508 LINE",
"330 595 LINE SMOOTH",
"341 602 OFFCURVE",
"362 616 OFFCURVE",
"362 641 CURVE SMOOTH",
"362 654 OFFCURVE",
"356 670 OFFCURVE",
"334 670 CURVE SMOOTH",
"318 670 OFFCURVE",
"304 664 OFFCURVE",
"286 643 CURVE SMOOTH"
);
}
);
width = 350;
}
);
note = acute;
unicode = 00B4;
},
{
color = 4;
glyphname = paragraph;
layers = (
{
layerId = "5B4932CE-A79B-4666-BF39-F6F4657B0F77";
paths = (
{
closed = 1;
nodes = (
"148 -156 LINE",
"186 -156 LINE",
"412 678 LINE",
"512 678 LINE",
"286 -156 LINE",
"324 -156 LINE",
"550 678 LINE",
"618 678 LINE",
"628 712 LINE",
"384 712 LINE SMOOTH",
"255 712 OFFCURVE",
"164 594 OFFCURVE",
"164 499 CURVE SMOOTH",
"164 429 OFFCURVE",
"215 386 OFFCURVE",
"295 386 CURVE"
);
}
);
width = 540;
}
);
note = paragraph;
unicode = 00B6;
},
{
color = 4;
glyphname = periodcentered;
layers = (
{
layerId = "5B4932CE-A79B-4666-BF39-F6F4657B0F77";
paths = (
{
closed = 1;
nodes = (
"132 280 OFFCURVE",
"158 254 OFFCURVE",
"194 254 CURVE SMOOTH",
"230 254 OFFCURVE",
"256 280 OFFCURVE",
"256 316 CURVE SMOOTH",
"256 352 OFFCURVE",
"230 378 OFFCURVE",
"194 378 CURVE SMOOTH",
"158 378 OFFCURVE",
"132 352 OFFCURVE",
"132 316 CURVE SMOOTH"
);
}
);
width = 280;
}
);
note = periodcentered;
unicode = 00B7;
},
{
color = 4;
glyphname = cedilla;
layers = (
{
layerId = "5B4932CE-A79B-4666-BF39-F6F4657B0F77";
paths = (
{
closed = 1;
nodes = (
"2 -192 OFFCURVE",
"42 -212 OFFCURVE",
"76 -212 CURVE SMOOTH",
"137 -212 OFFCURVE",
"183 -174 OFFCURVE",
"183 -126 CURVE SMOOTH",
"183 -105 OFFCURVE",
"172 -89 OFFCURVE",
"155 -72 CURVE SMOOTH",
"140 -57 OFFCURVE",
"135 -47 OFFCURVE",
"135 -36 CURVE SMOOTH",
"135 -31 OFFCURVE",
"136 -26 OFFCURVE",
"139 -21 CURVE SMOOTH",
"152 0 LINE",
"133 12 LINE",
"118 -13 LINE",
"111 -26 OFFCURVE",
"109 -37 OFFCURVE",
"109 -47 CURVE SMOOTH",
"109 -59 OFFCURVE",
"113 -70 OFFCURVE",
"119 -83 CURVE SMOOTH",
"126 -99 OFFCURVE",
"133 -115 OFFCURVE",
"133 -136 CURVE SMOOTH",
"133 -160 OFFCURVE",
"118 -190 OFFCURVE",
"78 -190 CURVE SMOOTH",
"46 -190 OFFCURVE",
"39 -178 OFFCURVE",
"39 -165 CURVE SMOOTH",
"39 -159 OFFCURVE",
"43 -154 OFFCURVE",
"48 -154 CURVE SMOOTH",
"60 -154 OFFCURVE",
"72 -142 OFFCURVE",
"72 -128 CURVE SMOOTH",
"72 -110 OFFCURVE",
"63 -97 OFFCURVE",
"44 -97 CURVE SMOOTH",
"18 -97 OFFCURVE",
"2 -126 OFFCURVE",
"2 -148 CURVE SMOOTH"
);
}
);
width = 380;
}
);
note = cedilla;
unicode = 00B8;
},
{
color = 4;
glyphname = onesuperior;
layers = (
{
layerId = "5B4932CE-A79B-4666-BF39-F6F4657B0F77";
paths = (
{
closed = 1;
nodes = (
"108 280 LINE",
"316 280 LINE",
"323 304 LINE",
"268 304 LINE SMOOTH",
"256 304 OFFCURVE",
"252 308 OFFCURVE",
"255 319 CURVE SMOOTH",
"360 692 LINE",
"338 692 LINE",
"299 633 OFFCURVE",
"236 605 OFFCURVE",
"194 597 CURVE",
"197 576 LINE",
"222 581 OFFCURVE",
"250 589 OFFCURVE",
"271 601 CURVE",
"191 319 LINE SMOOTH",
"188 308 OFFCURVE",
"182 304 OFFCURVE",
"170 304 CURVE SMOOTH",
"115 304 LINE"
);
}
);
width = 380;
}
);
note = onesuperior;
unicode = 00B9;
},
{
color = 4;
glyphname = ordmasculine;
layers = (
{
layerId = "5B4932CE-A79B-4666-BF39-F6F4657B0F77";
paths = (
{
closed = 1;
nodes = (
"88 362 LINE",
"329 362 LINE",
"336 386 LINE",
"95 386 LINE"
);
},
{
closed = 1;
nodes = (
"186 558 OFFCURVE",
"232 680 OFFCURVE",
"294 680 CURVE SMOOTH",
"325 680 OFFCURVE",
"336 654 OFFCURVE",
"336 621 CURVE SMOOTH",
"336 546 OFFCURVE",
"289 428 OFFCURVE",
"226 428 CURVE SMOOTH",
"197 428 OFFCURVE",
"186 452 OFFCURVE",
"186 484 CURVE SMOOTH"
);
},
{
closed = 1;
nodes = (
"134 451 OFFCURVE",
"168 410 OFFCURVE",
"221 410 CURVE SMOOTH",
"314 410 OFFCURVE",
"388 518 OFFCURVE",
"388 598 CURVE SMOOTH",
"388 656 OFFCURVE",
"354 698 OFFCURVE",
"299 698 CURVE SMOOTH",
"207 698 OFFCURVE",
"134 589 OFFCURVE",
"134 508 CURVE SMOOTH"
);
}
);
width = 380;
}
);
note = ordmasculine;
unicode = 00BA;
},
{
color = 4;
glyphname = onequarter;
layers = (
{
layerId = "5B4932CE-A79B-4666-BF39-F6F4657B0F77";
paths = (
{
closed = 1;
nodes = (
"492 112 LINE",
"652 112 LINE",
"632 40 LINE SMOOTH",
"629 28 OFFCURVE",
"623 24 OFFCURVE",
"611 24 CURVE SMOOTH",
"554 24 LINE",
"548 0 LINE",
"760 0 LINE",
"766 24 LINE",
"707 24 LINE SMOOTH",
"694 24 OFFCURVE",
"694 28 OFFCURVE",
"697 40 CURVE SMOOTH",
"716 112 LINE",
"816 112 LINE",
"824 138 LINE",
"724 138 LINE",
"772 321 LINE",
"761 321 LINE",
"749 293 OFFCURVE",
"724 260 OFFCURVE",
"688 238 CURVE",
"659 138 LINE",
"536 138 LINE",
"724 306 LINE SMOOTH",
"780 356 OFFCURVE",
"790 383 OFFCURVE",
"799 416 CURVE",
"727 416 LINE",
"720 366 OFFCURVE",
"680 306 OFFCURVE",
"630 259 CURVE SMOOTH",
"500 138 LINE"
);
},
{
closed = 1;
nodes = (
"108 280 LINE",
"316 280 LINE",
"323 304 LINE",
"268 304 LINE SMOOTH",
"256 304 OFFCURVE",
"252 308 OFFCURVE",
"255 319 CURVE SMOOTH",
"360 692 LINE",
"338 692 LINE",
"299 633 OFFCURVE",
"236 605 OFFCURVE",
"194 597 CURVE",
"197 576 LINE",
"222 581 OFFCURVE",
"250 589 OFFCURVE",
"271 601 CURVE",
"191 319 LINE SMOOTH",
"188 308 OFFCURVE",
"182 304 OFFCURVE",
"170 304 CURVE SMOOTH",
"115 304 LINE"
);
},
{
closed = 1;
nodes = (
"218 0 LINE",
"244 -18 LINE",
"684 684 LINE",
"658 702 LINE"
);
}
);
width = 846;
}
);
note = onequarter;
unicode = 00BC;
},
{
color = 4;
glyphname = onehalf;
layers = (
{
layerId = "5B4932CE-A79B-4666-BF39-F6F4657B0F77";
paths = (
{
closed = 1;
nodes = (
"472 -2 OFFCURVE",
"480 -9 OFFCURVE",
"495 -9 CURVE SMOOTH",
"512 -9 OFFCURVE",
"516 4 OFFCURVE",
"516 14 CURVE SMOOTH",
"516 21 OFFCURVE",
"514 24 OFFCURVE",
"510 30 CURVE",
"506 35 OFFCURVE",
"504 38 OFFCURVE",
"504 45 CURVE SMOOTH",
"504 70 OFFCURVE",
"527 70 OFFCURVE",
"539 70 CURVE SMOOTH",
"554 70 OFFCURVE",
"568 55 OFFCURVE",
"583 38 CURVE SMOOTH",
"603 16 OFFCURVE",
"627 -10 OFFCURVE",
"663 -10 CURVE SMOOTH",
"722 -10 OFFCURVE",
"752 70 OFFCURVE",
"771 123 CURVE",
"760 123 LINE",
"748 98 LINE",
"736 78 OFFCURVE",
"707 57 OFFCURVE",
"677 57 CURVE SMOOTH",
"626 57 OFFCURVE",
"552 77 OFFCURVE",
"552 97 CURVE SMOOTH",
"552 108 OFFCURVE",
"568 117 OFFCURVE",
"586 125 CURVE SMOOTH",
"685 172 LINE SMOOTH",
"743 199 OFFCURVE",
"822 237 OFFCURVE",
"822 314 CURVE SMOOTH",
"822 377 OFFCURVE",
"773 422 OFFCURVE",
"695 422 CURVE SMOOTH",
"625 422 OFFCURVE",
"560 367 OFFCURVE",
"560 303 CURVE SMOOTH",
"560 272 OFFCURVE",
"577 248 OFFCURVE",
"607 248 CURVE SMOOTH",
"632 248 OFFCURVE",
"650 269 OFFCURVE",
"650 291 CURVE SMOOTH",
"650 310 OFFCURVE",
"638 319 OFFCURVE",
"622 319 CURVE SMOOTH",
"615 319 OFFCURVE",
"612 317 OFFCURVE",
"609 315 CURVE",
"605 312 OFFCURVE",
"603 311 OFFCURVE",
"598 311 CURVE SMOOTH",
"592 311 OFFCURVE",
"590 319 OFFCURVE",
"590 326 CURVE SMOOTH",
"590 356 OFFCURVE",
"634 398 OFFCURVE",
"682 398 CURVE SMOOTH",
"739 398 OFFCURVE",
"758 359 OFFCURVE",
"758 318 CURVE SMOOTH",
"758 258 OFFCURVE",
"701 209 OFFCURVE",
"653 185 CURVE SMOOTH",
"569 140 LINE",
"513 113 OFFCURVE",
"472 79 OFFCURVE",
"472 14 CURVE SMOOTH"
);
},
{
closed = 1;
nodes = (
"108 280 LINE",
"316 280 LINE",
"323 304 LINE",
"268 304 LINE SMOOTH",
"256 304 OFFCURVE",
"252 308 OFFCURVE",
"255 319 CURVE SMOOTH",
"360 692 LINE",
"338 692 LINE",
"299 633 OFFCURVE",
"236 605 OFFCURVE",
"194 597 CURVE",
"197 576 LINE",
"222 581 OFFCURVE",
"250 589 OFFCURVE",
"271 601 CURVE",
"191 319 LINE SMOOTH",
"188 308 OFFCURVE",
"182 304 OFFCURVE",
"170 304 CURVE SMOOTH",
"115 304 LINE"
);
},
{
closed = 1;
nodes = (
"218 0 LINE",
"244 -18 LINE",
"684 684 LINE",
"658 702 LINE"
);
}
);
width = 846;
}
);
note = onehalf;
unicode = 00BD;
},
{
color = 4;
glyphname = threequarters;
layers = (
{
layerId = "5B4932CE-A79B-4666-BF39-F6F4657B0F77";
paths = (
{
closed = 1;
nodes = (
"492 112 LINE",
"652 112 LINE",
"632 40 LINE SMOOTH",
"629 28 OFFCURVE",
"623 24 OFFCURVE",
"611 24 CURVE SMOOTH",
"554 24 LINE",
"548 0 LINE",
"760 0 LINE",
"766 24 LINE",
"707 24 LINE SMOOTH",
"694 24 OFFCURVE",
"694 28 OFFCURVE",
"697 40 CURVE SMOOTH",
"716 112 LINE",
"816 112 LINE",
"824 138 LINE",
"724 138 LINE",
"772 321 LINE",
"761 321 LINE",
"749 293 OFFCURVE",
"724 260 OFFCURVE",
"688 238 CURVE",
"659 138 LINE",
"536 138 LINE",
"724 306 LINE SMOOTH",
"780 356 OFFCURVE",
"790 383 OFFCURVE",
"799 416 CURVE",
"727 416 LINE",
"720 366 OFFCURVE",
"680 306 OFFCURVE",
"630 259 CURVE SMOOTH",
"500 138 LINE"
);
},
{
closed = 1;
nodes = (
"76 309 OFFCURVE",
"118 270 OFFCURVE",
"183 270 CURVE SMOOTH",
"268 270 OFFCURVE",
"360 329 OFFCURVE",
"360 417 CURVE SMOOTH",
"360 473 OFFCURVE",
"322 492 OFFCURVE",
"289 502 CURVE",
"290 506 LINE",
"329 511 OFFCURVE",
"400 541 OFFCURVE",
"400 610 CURVE SMOOTH",
"400 672 OFFCURVE",
"347 702 OFFCURVE",
"278 702 CURVE SMOOTH",
"221 702 OFFCURVE",
"160 665 OFFCURVE",
"160 607 CURVE SMOOTH",
"160 583 OFFCURVE",
"174 562 OFFCURVE",
"202 562 CURVE SMOOTH",
"227 562 OFFCURVE",
"238 581 OFFCURVE",
"238 600 CURVE SMOOTH",
"238 614 OFFCURVE",
"232 626 OFFCURVE",
"213 626 CURVE SMOOTH",
"211 626 OFFCURVE",
"208 625 OFFCURVE",
"205 624 CURVE SMOOTH",
"202 623 OFFCURVE",
"198 622 OFFCURVE",
"196 622 CURVE SMOOTH",
"192 622 OFFCURVE",
"191 626 OFFCURVE",
"191 632 CURVE SMOOTH",
"191 661 OFFCURVE",
"233 682 OFFCURVE",
"274 682 CURVE SMOOTH",
"318 682 OFFCURVE",
"342 669 OFFCURVE",
"342 618 CURVE SMOOTH",
"342 566 OFFCURVE",
"302 516 OFFCURVE",
"256 516 CURVE SMOOTH",
"182 516 LINE SMOOTH",
"166 516 OFFCURVE",
"160 503 OFFCURVE",
"160 494 CURVE SMOOTH",
"160 482 OFFCURVE",
"168 473 OFFCURVE",
"182 473 CURVE SMOOTH",
"194 473 OFFCURVE",
"202 477 OFFCURVE",
"210 483 CURVE SMOOTH",
"217 488 OFFCURVE",
"225 492 OFFCURVE",
"236 492 CURVE SMOOTH",
"282 492 OFFCURVE",
"296 478 OFFCURVE",
"296 424 CURVE SMOOTH",
"296 356 OFFCURVE",
"252 294 OFFCURVE",
"184 294 CURVE SMOOTH",
"142 294 OFFCURVE",
"111 316 OFFCURVE",
"111 351 CURVE SMOOTH",
"111 361 OFFCURVE",
"124 361 OFFCURVE",
"133 361 CURVE SMOOTH",
"155 361 OFFCURVE",
"168 375 OFFCURVE",
"168 393 CURVE SMOOTH",
"168 411 OFFCURVE",
"161 431 OFFCURVE",
"132 431 CURVE SMOOTH",
"110 431 OFFCURVE",
"76 412 OFFCURVE",
"76 368 CURVE SMOOTH"
);
},
{
closed = 1;
nodes = (
"218 0 LINE",
"244 -18 LINE",
"684 684 LINE",
"658 702 LINE"
);
}
);
width = 846;
}
);
note = threequarters;
unicode = 00BE;
},
{
color = 4;
glyphname = questiondown;
layers = (
{
layerId = "5B4932CE-A79B-4666-BF39-F6F4657B0F77";
paths = (
{
closed = 1;
nodes = (
"252 360 OFFCURVE",
"278 334 OFFCURVE",
"314 334 CURVE SMOOTH",
"350 334 OFFCURVE",
"376 360 OFFCURVE",
"376 396 CURVE SMOOTH",
"376 432 OFFCURVE",
"350 458 OFFCURVE",
"314 458 CURVE SMOOTH",
"278 458 OFFCURVE",
"252 432 OFFCURVE",
"252 396 CURVE SMOOTH"
);
},
{
closed = 1;
nodes = (
"-4 -177 OFFCURVE",
"46 -248 OFFCURVE",
"155 -248 CURVE SMOOTH",
"240 -248 OFFCURVE",
"350 -180 OFFCURVE",
"350 -95 CURVE SMOOTH",
"350 -52 OFFCURVE",
"329 -32 OFFCURVE",
"297 -32 CURVE SMOOTH",
"271 -32 OFFCURVE",
"258 -50 OFFCURVE",
"258 -65 CURVE SMOOTH",
"258 -87 OFFCURVE",
"259 -97 OFFCURVE",
"285 -112 CURVE SMOOTH",
"292 -116 OFFCURVE",
"302 -120 OFFCURVE",
"302 -135 CURVE SMOOTH",
"302 -161 OFFCURVE",
"273 -218 OFFCURVE",
"164 -218 CURVE SMOOTH",
"100 -218 OFFCURVE",
"68 -166 OFFCURVE",
"68 -98 CURVE SMOOTH",
"68 -50 OFFCURVE",
"102 -16 OFFCURVE",
"146 8 CURVE",
"270 82 LINE SMOOTH",
"316 109 OFFCURVE",
"352 153 OFFCURVE",
"352 204 CURVE SMOOTH",
"352 258 OFFCURVE",
"310 292 OFFCURVE",
"262 292 CURVE SMOOTH",
"204 292 OFFCURVE",
"158 248 OFFCURVE",
"158 192 CURVE SMOOTH",
"158 171 OFFCURVE",
"168 154 OFFCURVE",
"176 146 CURVE",
"188 155 LINE",
"182 162 OFFCURVE",
"178 176 OFFCURVE",
"178 184 CURVE SMOOTH",
"178 220 OFFCURVE",
"198 262 OFFCURVE",
"258 262 CURVE SMOOTH",
"284 262 OFFCURVE",
"310 247 OFFCURVE",
"310 210 CURVE SMOOTH",
"310 178 OFFCURVE",
"282 146 OFFCURVE",
"239 122 CURVE",
"106 58 LINE SMOOTH",
"46 29 OFFCURVE",
"-4 -26 OFFCURVE",
"-4 -88 CURVE SMOOTH"
);
}
);
width = 436;
}
);
note = questiondown;
unicode = 00BF;
},
{
color = 4;
glyphname = Agrave;
layers = (
{
layerId = "5B4932CE-A79B-4666-BF39-F6F4657B0F77";
paths = (
{
closed = 1;
nodes = (
"444 884 OFFCURVE",
"450 869 OFFCURVE",
"459 859 CURVE SMOOTH",
"547 762 LINE",
"562 771 LINE",
"521 893 LINE SMOOTH",
"512 920 OFFCURVE",
"496 930 OFFCURVE",
"479 930 CURVE SMOOTH",
"449 930 OFFCURVE",
"444 905 OFFCURVE",
"444 895 CURVE SMOOTH"
);
},
{
closed = 1;
nodes = (
"285 276 LINE",
"472 552 LINE",
"472 276 LINE"
);
},
{
closed = 1;
nodes = (
"-44 0 LINE",
"248 0 LINE",
"256 32 LINE",
"201 32 LINE SMOOTH",
"170 32 OFFCURVE",
"161 48 OFFCURVE",
"161 66 CURVE SMOOTH",
"161 90 OFFCURVE",
"181 124 OFFCURVE",
"195 144 CURVE SMOOTH",
"263 244 LINE",
"472 244 LINE",
"472 78 LINE SMOOTH",
"472 37 OFFCURVE",
"453 32 OFFCURVE",
"430 32 CURVE SMOOTH",
"368 32 LINE",
"360 0 LINE",
"656 0 LINE",
"664 32 LINE",
"608 32 LINE SMOOTH",
"581 32 OFFCURVE",
"563 40 OFFCURVE",
"560 75 CURVE",
"560 712 LINE",
"536 712 LINE",
"125 104 LINE",
"104 70 OFFCURVE",
"61 32 OFFCURVE",
"1 32 CURVE SMOOTH",
"-36 32 LINE"
);
}
);
width = 728;
}
);
leftKerningGroup = A;
note = Agrave;
rightKerningGroup = A;
unicode = 00C0;
},
{
color = 4;
glyphname = Aacute;
layers = (
{
layerId = "5B4932CE-A79B-4666-BF39-F6F4657B0F77";
paths = (
{
closed = 1;
nodes = (
"538 774 LINE",
"550 762 LINE",
"688 849 LINE SMOOTH",
"698 855 OFFCURVE",
"720 869 OFFCURVE",
"720 895 CURVE SMOOTH",
"720 908 OFFCURVE",
"715 924 OFFCURVE",
"692 924 CURVE SMOOTH",
"676 924 OFFCURVE",
"662 918 OFFCURVE",
"644 897 CURVE SMOOTH"
);
},
{
closed = 1;
nodes = (
"285 276 LINE",
"472 552 LINE",
"472 276 LINE"
);
},
{
closed = 1;
nodes = (
"-44 0 LINE",
"248 0 LINE",
"256 32 LINE",
"201 32 LINE SMOOTH",
"170 32 OFFCURVE",
"161 48 OFFCURVE",
"161 66 CURVE SMOOTH",
"161 90 OFFCURVE",
"181 124 OFFCURVE",
"195 144 CURVE SMOOTH",
"263 244 LINE",
"472 244 LINE",
"472 78 LINE SMOOTH",
"472 37 OFFCURVE",
"453 32 OFFCURVE",
"430 32 CURVE SMOOTH",
"368 32 LINE",
"360 0 LINE",
"656 0 LINE",
"664 32 LINE",
"608 32 LINE SMOOTH",
"581 32 OFFCURVE",
"563 40 OFFCURVE",
"560 75 CURVE",
"560 712 LINE",
"536 712 LINE",
"125 104 LINE",
"104 70 OFFCURVE",
"61 32 OFFCURVE",
"1 32 CURVE SMOOTH",
"-36 32 LINE"
);
}
);
width = 728;
}
);
leftKerningGroup = A;
note = Aacute;
rightKerningGroup = A;
unicode = 00C1;
},
{
color = 4;
glyphname = Acircumflex;
layers = (
{
layerId = "5B4932CE-A79B-4666-BF39-F6F4657B0F77";
paths = (
{
closed = 1;
nodes = (
"402 762 LINE",
"439 774 OFFCURVE",
"523 820 OFFCURVE",
"576 858 CURVE",
"607 820 OFFCURVE",
"667 774 OFFCURVE",
"698 762 CURVE",
"712 778 LINE",
"653 818 OFFCURVE",
"625 870 OFFCURVE",
"612 920 CURVE",
"572 920 LINE",
"533 870 OFFCURVE",
"477 818 OFFCURVE",
"396 778 CURVE"
);
},
{
closed = 1;
nodes = (
"285 276 LINE",
"472 552 LINE",
"472 276 LINE"
);
},
{
closed = 1;
nodes = (
"-44 0 LINE",
"248 0 LINE",
"256 32 LINE",
"201 32 LINE SMOOTH",
"170 32 OFFCURVE",
"161 48 OFFCURVE",
"161 66 CURVE SMOOTH",
"161 90 OFFCURVE",
"181 124 OFFCURVE",
"195 144 CURVE SMOOTH",
"263 244 LINE",
"472 244 LINE",
"472 78 LINE SMOOTH",
"472 37 OFFCURVE",
"453 32 OFFCURVE",
"430 32 CURVE SMOOTH",
"368 32 LINE",
"360 0 LINE",
"656 0 LINE",
"664 32 LINE",
"608 32 LINE SMOOTH",
"581 32 OFFCURVE",
"563 40 OFFCURVE",
"560 75 CURVE",
"560 712 LINE",
"536 712 LINE",
"125 104 LINE",
"104 70 OFFCURVE",
"61 32 OFFCURVE",
"1 32 CURVE SMOOTH",
"-36 32 LINE"
);
}
);
width = 728;
}
);
leftKerningGroup = A;
note = Acircumflex;
rightKerningGroup = A;
unicode = 00C2;
},
{
color = 4;
glyphname = Atilde;
layers = (
{
layerId = "5B4932CE-A79B-4666-BF39-F6F4657B0F77";
paths = (
{
closed = 1;
nodes = (
"436 808 LINE",
"441 834 OFFCURVE",
"456 850 OFFCURVE",
"480 850 CURVE SMOOTH",
"501 850 OFFCURVE",
"526 842 OFFCURVE",
"552 833 CURVE SMOOTH",
"581 823 OFFCURVE",
"614 812 OFFCURVE",
"642 812 CURVE SMOOTH",
"696 812 OFFCURVE",
"724 857 OFFCURVE",
"728 904 CURVE",
"708 906 LINE",
"703 880 OFFCURVE",
"688 864 OFFCURVE",
"664 864 CURVE SMOOTH",
"643 864 OFFCURVE",
"618 872 OFFCURVE",
"592 881 CURVE SMOOTH",
"563 891 OFFCURVE",
"530 902 OFFCURVE",
"502 902 CURVE SMOOTH",
"448 902 OFFCURVE",
"420 857 OFFCURVE",
"416 810 CURVE"
);
},
{
closed = 1;
nodes = (
"285 276 LINE",
"472 552 LINE",
"472 276 LINE"
);
},
{
closed = 1;
nodes = (
"-44 0 LINE",
"248 0 LINE",
"256 32 LINE",
"201 32 LINE SMOOTH",
"170 32 OFFCURVE",
"161 48 OFFCURVE",
"161 66 CURVE SMOOTH",
"161 90 OFFCURVE",
"181 124 OFFCURVE",
"195 144 CURVE SMOOTH",
"263 244 LINE",
"472 244 LINE",
"472 78 LINE SMOOTH",
"472 37 OFFCURVE",
"453 32 OFFCURVE",
"430 32 CURVE SMOOTH",
"368 32 LINE",
"360 0 LINE",
"656 0 LINE",
"664 32 LINE",
"608 32 LINE SMOOTH",
"581 32 OFFCURVE",
"563 40 OFFCURVE",
"560 75 CURVE",
"560 712 LINE",
"536 712 LINE",
"125 104 LINE",
"104 70 OFFCURVE",
"61 32 OFFCURVE",
"1 32 CURVE SMOOTH",
"-36 32 LINE"
);
}
);
width = 728;
}
);
leftKerningGroup = A;
note = Atilde;
rightKerningGroup = A;
unicode = 00C3;
},
{
color = 4;
glyphname = Adieresis;
layers = (
{
layerId = "5B4932CE-A79B-4666-BF39-F6F4657B0F77";
paths = (
{
closed = 1;
nodes = (
"628 820 OFFCURVE",
"650 798 OFFCURVE",
"680 798 CURVE SMOOTH",
"710 798 OFFCURVE",
"732 820 OFFCURVE",
"732 850 CURVE SMOOTH",
"732 880 OFFCURVE",
"710 902 OFFCURVE",
"680 902 CURVE SMOOTH",
"650 902 OFFCURVE",
"628 880 OFFCURVE",
"628 850 CURVE SMOOTH"
);
},
{
closed = 1;
nodes = (
"424 820 OFFCURVE",
"446 798 OFFCURVE",
"476 798 CURVE SMOOTH",
"506 798 OFFCURVE",
"528 820 OFFCURVE",
"528 850 CURVE SMOOTH",
"528 880 OFFCURVE",
"506 902 OFFCURVE",
"476 902 CURVE SMOOTH",
"446 902 OFFCURVE",
"424 880 OFFCURVE",
"424 850 CURVE SMOOTH"
);
},
{
closed = 1;
nodes = (
"285 276 LINE",
"472 552 LINE",
"472 276 LINE"
);
},
{
closed = 1;
nodes = (
"-44 0 LINE",
"248 0 LINE",
"256 32 LINE",
"201 32 LINE SMOOTH",
"170 32 OFFCURVE",
"161 48 OFFCURVE",
"161 66 CURVE SMOOTH",
"161 90 OFFCURVE",
"181 124 OFFCURVE",
"195 144 CURVE SMOOTH",
"263 244 LINE",
"472 244 LINE",
"472 78 LINE SMOOTH",
"472 37 OFFCURVE",
"453 32 OFFCURVE",
"430 32 CURVE SMOOTH",
"368 32 LINE",
"360 0 LINE",
"656 0 LINE",
"664 32 LINE",
"608 32 LINE SMOOTH",
"581 32 OFFCURVE",
"563 40 OFFCURVE",
"560 75 CURVE",
"560 712 LINE",
"536 712 LINE",
"125 104 LINE",
"104 70 OFFCURVE",
"61 32 OFFCURVE",
"1 32 CURVE SMOOTH",
"-36 32 LINE"
);
}
);
width = 728;
}
);
leftKerningGroup = A;
note = Adieresis;
rightKerningGroup = A;
unicode = 00C4;
},
{
color = 4;
glyphname = Aring;
layers = (
{
layerId = "5B4932CE-A79B-4666-BF39-F6F4657B0F77";
paths = (
{
closed = 1;
nodes = (
"456 798 OFFCURVE",
"499 754 OFFCURVE",
"553 754 CURVE SMOOTH",
"607 754 OFFCURVE",
"650 798 OFFCURVE",
"650 852 CURVE SMOOTH",
"650 906 OFFCURVE",
"607 948 OFFCURVE",
"553 948 CURVE SMOOTH",
"499 948 OFFCURVE",
"456 906 OFFCURVE",
"456 852 CURVE SMOOTH"
);
},
{
closed = 1;
nodes = (
"480 894 OFFCURVE",
"511 924 OFFCURVE",
"553 924 CURVE SMOOTH",
"595 924 OFFCURVE",
"626 894 OFFCURVE",
"626 852 CURVE SMOOTH",
"626 810 OFFCURVE",
"595 778 OFFCURVE",
"553 778 CURVE SMOOTH",
"511 778 OFFCURVE",
"480 810 OFFCURVE",
"480 852 CURVE SMOOTH"
);
},
{
closed = 1;
nodes = (
"285 276 LINE",
"472 552 LINE",
"472 276 LINE"
);
},
{
closed = 1;
nodes = (
"-44 0 LINE",
"248 0 LINE",
"256 32 LINE",
"201 32 LINE SMOOTH",
"170 32 OFFCURVE",
"161 48 OFFCURVE",
"161 66 CURVE SMOOTH",
"161 90 OFFCURVE",
"181 124 OFFCURVE",
"195 144 CURVE SMOOTH",
"263 244 LINE",
"472 244 LINE",
"472 78 LINE SMOOTH",
"472 37 OFFCURVE",
"453 32 OFFCURVE",
"430 32 CURVE SMOOTH",
"368 32 LINE",
"360 0 LINE",
"656 0 LINE",
"664 32 LINE",
"608 32 LINE SMOOTH",
"581 32 OFFCURVE",
"563 40 OFFCURVE",
"560 75 CURVE",
"560 712 LINE",
"536 712 LINE",
"125 104 LINE",
"104 70 OFFCURVE",
"61 32 OFFCURVE",
"1 32 CURVE SMOOTH",
"-36 32 LINE"
);
}
);
width = 728;
}
);
leftKerningGroup = A;
note = Aring;
rightKerningGroup = A;
unicode = 00C5;
},
{
color = 4;
glyphname = AE;
lastChange = "2016-08-29 18:05:34 +0000";
layers = (
{
layerId = "5B4932CE-A79B-4666-BF39-F6F4657B0F77";
paths = (
{
closed = 1;
nodes = (
"-44 0 LINE",
"235 0 LINE",
"243 32 LINE",
"195 32 LINE SMOOTH",
"168 32 OFFCURVE",
"159 46 OFFCURVE",
"159 61 CURVE SMOOTH",
"159 94 OFFCURVE",
"191 131 OFFCURVE",
"200 144 CURVE",
"281 245 LINE",
"478 245 LINE",
"428 59 LINE SMOOTH",
"423 41 OFFCURVE",
"412 32 OFFCURVE",
"393 32 CURVE SMOOTH",
"318 32 LINE",
"310 0 LINE",
"894 0 LINE",
"978 268 LINE",
"954 268 LINE SMOOTH",
"954 268 OFFCURVE",
"911 146 OFFCURVE",
"848 84 CURVE SMOOTH",
"807 45 OFFCURVE",
"753 32 OFFCURVE",
"724 32 CURVE SMOOTH",
"538 32 LINE SMOOTH",
"518 32 OFFCURVE",
"514 41 OFFCURVE",
"519 59 CURVE SMOOTH",
"599 352 LINE",
"700 352 LINE SMOOTH",
"747 352 OFFCURVE",
"760 320 OFFCURVE",
"760 277 CURVE SMOOTH",
"760 252 OFFCURVE",
"755 224 OFFCURVE",
"750 202 CURVE",
"775 202 LINE",
"862 526 LINE",
"837 526 LINE",
"822 468 OFFCURVE",
"800 384 OFFCURVE",
"716 384 CURVE SMOOTH",
"608 384 LINE",
"680 653 LINE SMOOTH",
"685 672 OFFCURVE",
"695 680 OFFCURVE",
"714 680 CURVE SMOOTH",
"878 680 LINE SMOOTH",
"944 680 OFFCURVE",
"986 650 OFFCURVE",
"986 532 CURVE SMOOTH",
"986 505 OFFCURVE",
"983 484 OFFCURVE",
"983 484 CURVE",
"1008 484 LINE",
"1054 712 LINE",
"502 712 LINE",
"494 680 LINE",
"540 680 LINE SMOOTH",
"556 680 OFFCURVE",
"563 675 OFFCURVE",
"563 665 CURVE SMOOTH",
"563 646 OFFCURVE",
"539 621 OFFCURVE",
"514 591 CURVE SMOOTH",
"124 104 LINE SMOOTH",
"98 71 OFFCURVE",
"60 32 OFFCURVE",
"3 32 CURVE SMOOTH",
"-36 32 LINE"
);
},
{
closed = 1;
nodes = (
"305 277 LINE",
"579 620 LINE",
"486 277 LINE"
);
}
);
width = 1010;
}
);
leftKerningGroup = AE;
note = AE;
unicode = 00C6;
},
{
color = 4;
glyphname = Ccedilla;
layers = (
{
layerId = "5B4932CE-A79B-4666-BF39-F6F4657B0F77";
paths = (
{
closed = 1;
nodes = (
"92 82 OFFCURVE",
"183 2 OFFCURVE",
"270 -15 CURVE",
"265 -26 OFFCURVE",
"263 -36 OFFCURVE",
"263 -45 CURVE SMOOTH",
"263 -58 OFFCURVE",
"271 -72 OFFCURVE",
"281 -88 CURVE SMOOTH",
"292 -106 OFFCURVE",
"295 -124 OFFCURVE",
"295 -139 CURVE SMOOTH",
"295 -178 OFFCURVE",
"261 -214 OFFCURVE",
"221 -214 CURVE SMOOTH",
"189 -214 OFFCURVE",
"181 -204 OFFCURVE",
"181 -189 CURVE SMOOTH",
"181 -183 OFFCURVE",
"185 -178 OFFCURVE",
"189 -176 CURVE",
"201 -172 OFFCURVE",
"213 -162 OFFCURVE",
"213 -143 CURVE SMOOTH",
"213 -124 OFFCURVE",
"201 -114 OFFCURVE",
"181 -114 CURVE SMOOTH",
"157 -114 OFFCURVE",
"138 -138 OFFCURVE",
"138 -164 CURVE SMOOTH",
"138 -210 OFFCURVE",
"177 -238 OFFCURVE",
"217 -238 CURVE SMOOTH",
"289 -238 OFFCURVE",
"352 -194 OFFCURVE",
"352 -131 CURVE SMOOTH",
"352 -102 OFFCURVE",
"334 -85 OFFCURVE",
"314 -70 CURVE SMOOTH",
"296 -57 OFFCURVE",
"293 -49 OFFCURVE",
"293 -38 CURVE SMOOTH",
"293 -33 OFFCURVE",
"295 -26 OFFCURVE",
"298 -21 CURVE",
"300 -18 LINE",
"304 -18 LINE SMOOTH",
"472 -18 OFFCURVE",
"570 106 OFFCURVE",
"612 231 CURVE",
"581 242 LINE",
"540 126 OFFCURVE",
"438 14 OFFCURVE",
"321 14 CURVE SMOOTH",
"262 14 OFFCURVE",
"188 30 OFFCURVE",
"188 196 CURVE SMOOTH",
"188 330 OFFCURVE",
"225 459 OFFCURVE",
"266 536 CURVE SMOOTH",
"332 660 OFFCURVE",
"395 698 OFFCURVE",
"470 698 CURVE SMOOTH",
"510 698 OFFCURVE",
"544 683 OFFCURVE",
"571 647 CURVE SMOOTH",
"608 596 OFFCURVE",
"614 507 OFFCURVE",
"614 479 CURVE SMOOTH",
"614 456 OFFCURVE",
"613 435 OFFCURVE",
"613 416 CURVE",
"636 416 LINE",
"700 722 LINE",
"677 722 LINE",
"672 701 OFFCURVE",
"664 649 OFFCURVE",
"632 649 CURVE SMOOTH",
"621 649 OFFCURVE",
"616 654 OFFCURVE",
"603 666 CURVE",
"585 684 LINE SMOOTH",
"567 702 OFFCURVE",
"530 730 OFFCURVE",
"474 730 CURVE SMOOTH",
"284 730 OFFCURVE",
"92 486 OFFCURVE",
"92 252 CURVE SMOOTH"
);
}
);
width = 670;
}
);
leftKerningGroup = C;
note = Ccedilla;
rightKerningGroup = C;
unicode = 00C7;
},
{
color = 4;
glyphname = Egrave;
lastChange = "2016-08-29 18:05:34 +0000";
layers = (
{
layerId = "5B4932CE-A79B-4666-BF39-F6F4657B0F77";
paths = (
{
closed = 1;
nodes = (
"372 884 OFFCURVE",
"378 869 OFFCURVE",
"387 859 CURVE SMOOTH",
"475 762 LINE",
"490 771 LINE",
"449 893 LINE SMOOTH",
"440 920 OFFCURVE",
"424 930 OFFCURVE",
"407 930 CURVE SMOOTH",
"377 930 OFFCURVE",
"372 905 OFFCURVE",
"372 895 CURVE SMOOTH"
);
},
{
closed = 1;
nodes = (
"-10 0 LINE",
"574 0 LINE",
"658 268 LINE",
"634 268 LINE SMOOTH",
"634 268 OFFCURVE",
"591 146 OFFCURVE",
"528 84 CURVE SMOOTH",
"487 45 OFFCURVE",
"433 32 OFFCURVE",
"404 32 CURVE SMOOTH",
"218 32 LINE SMOOTH",
"200 32 OFFCURVE",
"194 41 OFFCURVE",
"199 59 CURVE SMOOTH",
"279 352 LINE",
"380 352 LINE SMOOTH",
"427 352 OFFCURVE",
"440 320 OFFCURVE",
"440 277 CURVE SMOOTH",
"440 252 OFFCURVE",
"435 224 OFFCURVE",
"430 202 CURVE",
"455 202 LINE",
"541 526 LINE",
"516 526 LINE",
"501 468 OFFCURVE",
"479 384 OFFCURVE",
"395 384 CURVE SMOOTH",
"287 384 LINE",
"360 653 LINE SMOOTH",
"365 672 OFFCURVE",
"376 680 OFFCURVE",
"394 680 CURVE SMOOTH",
"558 680 LINE SMOOTH",
"624 680 OFFCURVE",
"666 650 OFFCURVE",
"666 532 CURVE SMOOTH",
"666 505 OFFCURVE",
"663 484 OFFCURVE",
"663 484 CURVE",
"688 484 LINE",
"734 712 LINE",
"182 712 LINE",
"174 680 LINE",
"250 680 LINE SMOOTH",
"268 680 OFFCURVE",
"275 672 OFFCURVE",
"269 653 CURVE",
"108 59 LINE SMOOTH",
"103 41 OFFCURVE",
"93 32 OFFCURVE",
"74 32 CURVE SMOOTH",
"-2 32 LINE"
);
}
);
width = 700;
}
);
note = Egrave;
unicode = 00C8;
},
{
color = 4;
glyphname = Eacute;
lastChange = "2016-08-29 18:05:34 +0000";
layers = (
{
layerId = "5B4932CE-A79B-4666-BF39-F6F4657B0F77";
paths = (
{
closed = 1;
nodes = (
"466 774 LINE",
"478 762 LINE",
"616 849 LINE SMOOTH",
"626 855 OFFCURVE",
"648 869 OFFCURVE",
"648 895 CURVE SMOOTH",
"648 908 OFFCURVE",
"643 924 OFFCURVE",
"620 924 CURVE SMOOTH",
"604 924 OFFCURVE",
"590 918 OFFCURVE",
"572 897 CURVE SMOOTH"
);
},
{
closed = 1;
nodes = (
"-10 0 LINE",
"574 0 LINE",
"658 268 LINE",
"634 268 LINE SMOOTH",
"634 268 OFFCURVE",
"591 146 OFFCURVE",
"528 84 CURVE SMOOTH",
"487 45 OFFCURVE",
"433 32 OFFCURVE",
"404 32 CURVE SMOOTH",
"218 32 LINE SMOOTH",
"200 32 OFFCURVE",
"194 41 OFFCURVE",
"199 59 CURVE SMOOTH",
"279 352 LINE",
"380 352 LINE SMOOTH",
"427 352 OFFCURVE",
"440 320 OFFCURVE",
"440 277 CURVE SMOOTH",
"440 252 OFFCURVE",
"435 224 OFFCURVE",
"430 202 CURVE",
"455 202 LINE",
"541 526 LINE",
"516 526 LINE",
"501 468 OFFCURVE",
"479 384 OFFCURVE",
"395 384 CURVE SMOOTH",
"287 384 LINE",
"360 653 LINE SMOOTH",
"365 672 OFFCURVE",
"376 680 OFFCURVE",
"394 680 CURVE SMOOTH",
"558 680 LINE SMOOTH",
"624 680 OFFCURVE",
"666 650 OFFCURVE",
"666 532 CURVE SMOOTH",
"666 505 OFFCURVE",
"663 484 OFFCURVE",
"663 484 CURVE",
"688 484 LINE",
"734 712 LINE",
"182 712 LINE",
"174 680 LINE",
"250 680 LINE SMOOTH",
"268 680 OFFCURVE",
"275 672 OFFCURVE",
"269 653 CURVE",
"108 59 LINE SMOOTH",
"103 41 OFFCURVE",
"93 32 OFFCURVE",
"74 32 CURVE SMOOTH",
"-2 32 LINE"
);
}
);
width = 700;
}
);
note = Eacute;
unicode = 00C9;
},
{
color = 4;
glyphname = Ecircumflex;
lastChange = "2016-08-29 18:05:34 +0000";
layers = (
{
layerId = "5B4932CE-A79B-4666-BF39-F6F4657B0F77";
paths = (
{
closed = 1;
nodes = (
"330 762 LINE",
"367 774 OFFCURVE",
"451 820 OFFCURVE",
"504 858 CURVE",
"535 820 OFFCURVE",
"595 774 OFFCURVE",
"626 762 CURVE",
"640 778 LINE",
"581 818 OFFCURVE",
"553 870 OFFCURVE",
"540 920 CURVE",
"500 920 LINE",
"461 870 OFFCURVE",
"405 818 OFFCURVE",
"324 778 CURVE"
);
},
{
closed = 1;
nodes = (
"-10 0 LINE",
"574 0 LINE",
"658 268 LINE",
"634 268 LINE SMOOTH",
"634 268 OFFCURVE",
"591 146 OFFCURVE",
"528 84 CURVE SMOOTH",
"487 45 OFFCURVE",
"433 32 OFFCURVE",
"404 32 CURVE SMOOTH",
"218 32 LINE SMOOTH",
"200 32 OFFCURVE",
"194 41 OFFCURVE",
"199 59 CURVE SMOOTH",
"279 352 LINE",
"380 352 LINE SMOOTH",
"427 352 OFFCURVE",
"440 320 OFFCURVE",
"440 277 CURVE SMOOTH",
"440 252 OFFCURVE",
"435 224 OFFCURVE",
"430 202 CURVE",
"455 202 LINE",
"541 526 LINE",
"516 526 LINE",
"501 468 OFFCURVE",
"479 384 OFFCURVE",
"395 384 CURVE SMOOTH",
"287 384 LINE",
"360 653 LINE SMOOTH",
"365 672 OFFCURVE",
"376 680 OFFCURVE",
"394 680 CURVE SMOOTH",
"558 680 LINE SMOOTH",
"624 680 OFFCURVE",
"666 650 OFFCURVE",
"666 532 CURVE SMOOTH",
"666 505 OFFCURVE",
"663 484 OFFCURVE",
"663 484 CURVE",
"688 484 LINE",
"734 712 LINE",
"182 712 LINE",
"174 680 LINE",
"250 680 LINE SMOOTH",
"268 680 OFFCURVE",
"275 672 OFFCURVE",
"269 653 CURVE",
"108 59 LINE SMOOTH",
"103 41 OFFCURVE",
"93 32 OFFCURVE",
"74 32 CURVE SMOOTH",
"-2 32 LINE"
);
}
);
width = 700;
}
);
note = Ecircumflex;
unicode = 00CA;
},
{
color = 4;
glyphname = Edieresis;
lastChange = "2016-08-29 18:05:34 +0000";
layers = (
{
layerId = "5B4932CE-A79B-4666-BF39-F6F4657B0F77";
paths = (
{
closed = 1;
nodes = (
"556 820 OFFCURVE",
"578 798 OFFCURVE",
"608 798 CURVE SMOOTH",
"638 798 OFFCURVE",
"660 820 OFFCURVE",
"660 850 CURVE SMOOTH",
"660 880 OFFCURVE",
"638 902 OFFCURVE",
"608 902 CURVE SMOOTH",
"578 902 OFFCURVE",
"556 880 OFFCURVE",
"556 850 CURVE SMOOTH"
);
},
{
closed = 1;
nodes = (
"352 820 OFFCURVE",
"374 798 OFFCURVE",
"404 798 CURVE SMOOTH",
"434 798 OFFCURVE",
"456 820 OFFCURVE",
"456 850 CURVE SMOOTH",
"456 880 OFFCURVE",
"434 902 OFFCURVE",
"404 902 CURVE SMOOTH",
"374 902 OFFCURVE",
"352 880 OFFCURVE",
"352 850 CURVE SMOOTH"
);
},
{
closed = 1;
nodes = (
"-10 0 LINE",
"574 0 LINE",
"658 268 LINE",
"634 268 LINE SMOOTH",
"634 268 OFFCURVE",
"591 146 OFFCURVE",
"528 84 CURVE SMOOTH",
"487 45 OFFCURVE",
"433 32 OFFCURVE",
"404 32 CURVE SMOOTH",
"218 32 LINE SMOOTH",
"200 32 OFFCURVE",
"194 41 OFFCURVE",
"199 59 CURVE SMOOTH",
"279 352 LINE",
"380 352 LINE SMOOTH",
"427 352 OFFCURVE",
"440 320 OFFCURVE",
"440 277 CURVE SMOOTH",
"440 252 OFFCURVE",
"435 224 OFFCURVE",
"430 202 CURVE",
"455 202 LINE",
"541 526 LINE",
"516 526 LINE",
"501 468 OFFCURVE",
"479 384 OFFCURVE",
"395 384 CURVE SMOOTH",
"287 384 LINE",
"360 653 LINE SMOOTH",
"365 672 OFFCURVE",
"376 680 OFFCURVE",
"394 680 CURVE SMOOTH",
"558 680 LINE SMOOTH",
"624 680 OFFCURVE",
"666 650 OFFCURVE",
"666 532 CURVE SMOOTH",
"666 505 OFFCURVE",
"663 484 OFFCURVE",
"663 484 CURVE",
"688 484 LINE",
"734 712 LINE",
"182 712 LINE",
"174 680 LINE",
"250 680 LINE SMOOTH",
"268 680 OFFCURVE",
"275 672 OFFCURVE",
"269 653 CURVE",
"108 59 LINE SMOOTH",
"103 41 OFFCURVE",
"93 32 OFFCURVE",
"74 32 CURVE SMOOTH",
"-2 32 LINE"
);
}
);
width = 700;
}
);
note = Edieresis;
unicode = 00CB;
},
{
color = 4;
glyphname = Igrave;
layers = (
{
layerId = "5B4932CE-A79B-4666-BF39-F6F4657B0F77";
paths = (
{
closed = 1;
nodes = (
"240 884 OFFCURVE",
"246 869 OFFCURVE",
"255 859 CURVE SMOOTH",
"343 762 LINE",
"358 771 LINE",
"317 893 LINE SMOOTH",
"308 920 OFFCURVE",
"292 930 OFFCURVE",
"275 930 CURVE SMOOTH",
"245 930 OFFCURVE",
"240 905 OFFCURVE",
"240 895 CURVE SMOOTH"
);
},
{
closed = 1;
nodes = (
"-10 0 LINE",
"286 0 LINE",
"294 32 LINE",
"218 32 LINE SMOOTH",
"200 32 OFFCURVE",
"194 41 OFFCURVE",
"199 59 CURVE SMOOTH",
"360 653 LINE SMOOTH",
"365 672 OFFCURVE",
"376 680 OFFCURVE",
"394 680 CURVE SMOOTH",
"470 680 LINE",
"478 712 LINE",
"182 712 LINE",
"174 680 LINE",
"250 680 LINE SMOOTH",
"268 680 OFFCURVE",
"275 672 OFFCURVE",
"269 653 CURVE",
"108 59 LINE SMOOTH",
"103 41 OFFCURVE",
"93 32 OFFCURVE",
"74 32 CURVE SMOOTH",
"-2 32 LINE"
);
}
);
width = 400;
}
);
note = Igrave;
unicode = 00CC;
},
{
color = 4;
glyphname = Iacute;
layers = (
{
layerId = "5B4932CE-A79B-4666-BF39-F6F4657B0F77";
paths = (
{
closed = 1;
nodes = (
"334 774 LINE",
"346 762 LINE",
"484 849 LINE SMOOTH",
"494 855 OFFCURVE",
"516 869 OFFCURVE",
"516 895 CURVE SMOOTH",
"516 908 OFFCURVE",
"511 924 OFFCURVE",
"488 924 CURVE SMOOTH",
"472 924 OFFCURVE",
"458 918 OFFCURVE",
"440 897 CURVE SMOOTH"
);
},
{
closed = 1;
nodes = (
"-10 0 LINE",
"286 0 LINE",
"294 32 LINE",
"218 32 LINE SMOOTH",
"200 32 OFFCURVE",
"194 41 OFFCURVE",
"199 59 CURVE SMOOTH",
"360 653 LINE SMOOTH",
"365 672 OFFCURVE",
"376 680 OFFCURVE",
"394 680 CURVE SMOOTH",
"470 680 LINE",
"478 712 LINE",
"182 712 LINE",
"174 680 LINE",
"250 680 LINE SMOOTH",
"268 680 OFFCURVE",
"275 672 OFFCURVE",
"269 653 CURVE",
"108 59 LINE SMOOTH",
"103 41 OFFCURVE",
"93 32 OFFCURVE",
"74 32 CURVE SMOOTH",
"-2 32 LINE"
);
}
);
width = 400;
}
);
note = Iacute;
unicode = 00CD;
},
{
color = 4;
glyphname = Icircumflex;
layers = (
{
layerId = "5B4932CE-A79B-4666-BF39-F6F4657B0F77";
paths = (
{
closed = 1;
nodes = (
"198 762 LINE",
"235 774 OFFCURVE",
"319 820 OFFCURVE",
"372 858 CURVE",
"403 820 OFFCURVE",
"463 774 OFFCURVE",
"494 762 CURVE",
"508 778 LINE",
"449 818 OFFCURVE",
"421 870 OFFCURVE",
"408 920 CURVE",
"368 920 LINE",
"329 870 OFFCURVE",
"273 818 OFFCURVE",
"192 778 CURVE"
);
},
{
closed = 1;
nodes = (
"-10 0 LINE",
"286 0 LINE",
"294 32 LINE",
"218 32 LINE SMOOTH",
"200 32 OFFCURVE",
"194 41 OFFCURVE",
"199 59 CURVE SMOOTH",
"360 653 LINE SMOOTH",
"365 672 OFFCURVE",
"376 680 OFFCURVE",
"394 680 CURVE SMOOTH",
"470 680 LINE",
"478 712 LINE",
"182 712 LINE",
"174 680 LINE",
"250 680 LINE SMOOTH",
"268 680 OFFCURVE",
"275 672 OFFCURVE",
"269 653 CURVE",
"108 59 LINE SMOOTH",
"103 41 OFFCURVE",
"93 32 OFFCURVE",
"74 32 CURVE SMOOTH",
"-2 32 LINE"
);
}
);
width = 400;
}
);
note = Icircumflex;
unicode = 00CE;
},
{
color = 4;
glyphname = Idieresis;
layers = (
{
layerId = "5B4932CE-A79B-4666-BF39-F6F4657B0F77";
paths = (
{
closed = 1;
nodes = (
"424 820 OFFCURVE",
"446 798 OFFCURVE",
"476 798 CURVE SMOOTH",
"506 798 OFFCURVE",
"528 820 OFFCURVE",
"528 850 CURVE SMOOTH",
"528 880 OFFCURVE",
"506 902 OFFCURVE",
"476 902 CURVE SMOOTH",
"446 902 OFFCURVE",
"424 880 OFFCURVE",
"424 850 CURVE SMOOTH"
);
},
{
closed = 1;
nodes = (
"220 820 OFFCURVE",
"242 798 OFFCURVE",
"272 798 CURVE SMOOTH",
"302 798 OFFCURVE",
"324 820 OFFCURVE",
"324 850 CURVE SMOOTH",
"324 880 OFFCURVE",
"302 902 OFFCURVE",
"272 902 CURVE SMOOTH",
"242 902 OFFCURVE",
"220 880 OFFCURVE",
"220 850 CURVE SMOOTH"
);
},
{
closed = 1;
nodes = (
"-10 0 LINE",
"286 0 LINE",
"294 32 LINE",
"218 32 LINE SMOOTH",
"200 32 OFFCURVE",
"194 41 OFFCURVE",
"199 59 CURVE SMOOTH",
"360 653 LINE SMOOTH",
"365 672 OFFCURVE",
"376 680 OFFCURVE",
"394 680 CURVE SMOOTH",
"470 680 LINE",
"478 712 LINE",
"182 712 LINE",
"174 680 LINE",
"250 680 LINE SMOOTH",
"268 680 OFFCURVE",
"275 672 OFFCURVE",
"269 653 CURVE",
"108 59 LINE SMOOTH",
"103 41 OFFCURVE",
"93 32 OFFCURVE",
"74 32 CURVE SMOOTH",
"-2 32 LINE"
);
}
);
width = 400;
}
);
note = Idieresis;
unicode = 00CF;
},
{
color = 4;
glyphname = Eth;
layers = (
{
layerId = "5B4932CE-A79B-4666-BF39-F6F4657B0F77";
paths = (
{
closed = 1;
nodes = (
"-10 0 LINE",
"334 0 LINE SMOOTH",
"457 0 OFFCURVE",
"550 66 OFFCURVE",
"616 148 CURVE SMOOTH",
"686 234 OFFCURVE",
"726 349 OFFCURVE",
"726 453 CURVE SMOOTH",
"726 603 OFFCURVE",
"647 712 OFFCURVE",
"504 712 CURVE SMOOTH",
"183 712 LINE",
"174 680 LINE",
"250 680 LINE SMOOTH",
"268 680 OFFCURVE",
"275 672 OFFCURVE",
"269 653 CURVE",
"198 392 LINE",
"84 392 LINE",
"76 356 LINE",
"188 356 LINE",
"108 59 LINE SMOOTH",
"103 41 OFFCURVE",
"93 32 OFFCURVE",
"74 32 CURVE SMOOTH",
"-2 32 LINE"
);
},
{
closed = 1;
nodes = (
"280 356 LINE",
"412 356 LINE",
"420 392 LINE",
"289 392 LINE",
"360 653 LINE SMOOTH",
"365 672 OFFCURVE",
"376 680 OFFCURVE",
"394 680 CURVE SMOOTH",
"482 680 LINE SMOOTH",
"596 680 OFFCURVE",
"630 594 OFFCURVE",
"630 500 CURVE SMOOTH",
"630 375 OFFCURVE",
"600 256 OFFCURVE",
"557 180 CURVE SMOOTH",
"504 86 OFFCURVE",
"433 32 OFFCURVE",
"344 32 CURVE SMOOTH",
"218 32 LINE SMOOTH",
"200 32 OFFCURVE",
"194 41 OFFCURVE",
"199 59 CURVE SMOOTH"
);
}
);
width = 748;
}
);
note = Eth;
rightKerningGroup = D;
unicode = 00D0;
},
{
color = 4;
glyphname = Ntilde;
layers = (
{
layerId = "5B4932CE-A79B-4666-BF39-F6F4657B0F77";
paths = (
{
closed = 1;
nodes = (
"432 808 LINE",
"437 834 OFFCURVE",
"452 850 OFFCURVE",
"476 850 CURVE SMOOTH",
"497 850 OFFCURVE",
"522 842 OFFCURVE",
"548 833 CURVE SMOOTH",
"577 823 OFFCURVE",
"610 812 OFFCURVE",
"638 812 CURVE SMOOTH",
"692 812 OFFCURVE",
"720 857 OFFCURVE",
"724 904 CURVE",
"704 906 LINE",
"699 880 OFFCURVE",
"684 864 OFFCURVE",
"660 864 CURVE SMOOTH",
"639 864 OFFCURVE",
"614 872 OFFCURVE",
"588 881 CURVE SMOOTH",
"559 891 OFFCURVE",
"526 902 OFFCURVE",
"498 902 CURVE SMOOTH",
"444 902 OFFCURVE",
"416 857 OFFCURVE",
"412 810 CURVE"
);
},
{
closed = 1;
nodes = (
"-10 0 LINE",
"260 0 LINE",
"268 32 LINE",
"220 32 LINE SMOOTH",
"182 32 OFFCURVE",
"170 53 OFFCURVE",
"170 83 CURVE SMOOTH",
"170 96 OFFCURVE",
"172 111 OFFCURVE",
"176 126 CURVE SMOOTH",
"307 603 LINE",
"312 603 LINE",
"533 -18 LINE",
"573 -18 LINE",
"737 586 LINE SMOOTH",
"753 646 OFFCURVE",
"791 680 OFFCURVE",
"828 680 CURVE SMOOTH",
"876 680 LINE",
"884 712 LINE",
"614 712 LINE",
"606 680 LINE",
"654 680 LINE SMOOTH",
"687 680 OFFCURVE",
"705 664 OFFCURVE",
"705 629 CURVE SMOOTH",
"705 617 OFFCURVE",
"703 603 OFFCURVE",
"698 586 CURVE SMOOTH",
"573 129 LINE",
"364 712 LINE",
"182 712 LINE",
"174 680 LINE",
"261 680 LINE SMOOTH",
"279 680 OFFCURVE",
"285 672 OFFCURVE",
"280 653 CURVE SMOOTH",
"137 126 LINE SMOOTH",
"124 76 OFFCURVE",
"91 32 OFFCURVE",
"46 32 CURVE SMOOTH",
"-2 32 LINE"
);
}
);
width = 790;
}
);
note = Ntilde;
rightKerningGroup = G;
unicode = 00D1;
},
{
color = 4;
glyphname = Ograve;
layers = (
{
layerId = "5B4932CE-A79B-4666-BF39-F6F4657B0F77";
paths = (
{
closed = 1;
nodes = (
"388 884 OFFCURVE",
"394 869 OFFCURVE",
"403 859 CURVE SMOOTH",
"491 762 LINE",
"506 771 LINE",
"465 893 LINE SMOOTH",
"456 920 OFFCURVE",
"440 930 OFFCURVE",
"423 930 CURVE SMOOTH",
"393 930 OFFCURVE",
"388 905 OFFCURVE",
"388 895 CURVE SMOOTH"
);
},
{
closed = 1;
nodes = (
"188 227 OFFCURVE",
"190 346 OFFCURVE",
"232 464 CURVE SMOOTH",
"266 559 OFFCURVE",
"338 698 OFFCURVE",
"466 698 CURVE SMOOTH",
"544 698 OFFCURVE",
"590 638 OFFCURVE",
"590 520 CURVE SMOOTH",
"590 485 OFFCURVE",
"588 366 OFFCURVE",
"546 248 CURVE SMOOTH",
"512 153 OFFCURVE",
"440 14 OFFCURVE",
"312 14 CURVE SMOOTH",
"234 14 OFFCURVE",
"188 74 OFFCURVE",
"188 192 CURVE SMOOTH"
);
},
{
closed = 1;
nodes = (
"92 104 OFFCURVE",
"172 -18 OFFCURVE",
"304 -18 CURVE SMOOTH",
"488 -18 OFFCURVE",
"686 192 OFFCURVE",
"686 462 CURVE SMOOTH",
"686 606 OFFCURVE",
"606 730 OFFCURVE",
"474 730 CURVE SMOOTH",
"290 730 OFFCURVE",
"92 518 OFFCURVE",
"92 248 CURVE SMOOTH"
);
}
);
width = 710;
}
);
leftKerningGroup = O;
note = Ograve;
rightKerningGroup = O;
unicode = 00D2;
},
{
color = 4;
glyphname = Oacute;
layers = (
{
layerId = "5B4932CE-A79B-4666-BF39-F6F4657B0F77";
paths = (
{
closed = 1;
nodes = (
"482 774 LINE",
"494 762 LINE",
"632 849 LINE SMOOTH",
"642 855 OFFCURVE",
"664 869 OFFCURVE",
"664 895 CURVE SMOOTH",
"664 908 OFFCURVE",
"659 924 OFFCURVE",
"636 924 CURVE SMOOTH",
"620 924 OFFCURVE",
"606 918 OFFCURVE",
"588 897 CURVE SMOOTH"
);
},
{
closed = 1;
nodes = (
"188 227 OFFCURVE",
"190 346 OFFCURVE",
"232 464 CURVE SMOOTH",
"266 559 OFFCURVE",
"338 698 OFFCURVE",
"466 698 CURVE SMOOTH",
"544 698 OFFCURVE",
"590 638 OFFCURVE",
"590 520 CURVE SMOOTH",
"590 485 OFFCURVE",
"588 366 OFFCURVE",
"546 248 CURVE SMOOTH",
"512 153 OFFCURVE",
"440 14 OFFCURVE",
"312 14 CURVE SMOOTH",
"234 14 OFFCURVE",
"188 74 OFFCURVE",
"188 192 CURVE SMOOTH"
);
},
{
closed = 1;
nodes = (
"92 104 OFFCURVE",
"172 -18 OFFCURVE",
"304 -18 CURVE SMOOTH",
"488 -18 OFFCURVE",
"686 192 OFFCURVE",
"686 462 CURVE SMOOTH",
"686 606 OFFCURVE",
"606 730 OFFCURVE",
"474 730 CURVE SMOOTH",
"290 730 OFFCURVE",
"92 518 OFFCURVE",
"92 248 CURVE SMOOTH"
);
}
);
width = 710;
}
);
leftKerningGroup = O;
note = Oacute;
rightKerningGroup = O;
unicode = 00D3;
},
{
color = 4;
glyphname = Ocircumflex;
layers = (
{
layerId = "5B4932CE-A79B-4666-BF39-F6F4657B0F77";
paths = (
{
closed = 1;
nodes = (
"346 762 LINE",
"383 774 OFFCURVE",
"467 820 OFFCURVE",
"520 858 CURVE",
"551 820 OFFCURVE",
"611 774 OFFCURVE",
"642 762 CURVE",
"656 778 LINE",
"597 818 OFFCURVE",
"569 870 OFFCURVE",
"556 920 CURVE",
"516 920 LINE",
"477 870 OFFCURVE",
"421 818 OFFCURVE",
"340 778 CURVE"
);
},
{
closed = 1;
nodes = (
"188 227 OFFCURVE",
"190 346 OFFCURVE",
"232 464 CURVE SMOOTH",
"266 559 OFFCURVE",
"338 698 OFFCURVE",
"466 698 CURVE SMOOTH",
"544 698 OFFCURVE",
"590 638 OFFCURVE",
"590 520 CURVE SMOOTH",
"590 485 OFFCURVE",
"588 366 OFFCURVE",
"546 248 CURVE SMOOTH",
"512 153 OFFCURVE",
"440 14 OFFCURVE",
"312 14 CURVE SMOOTH",
"234 14 OFFCURVE",
"188 74 OFFCURVE",
"188 192 CURVE SMOOTH"
);
},
{
closed = 1;
nodes = (
"92 104 OFFCURVE",
"172 -18 OFFCURVE",
"304 -18 CURVE SMOOTH",
"488 -18 OFFCURVE",
"686 192 OFFCURVE",
"686 462 CURVE SMOOTH",
"686 606 OFFCURVE",
"606 730 OFFCURVE",
"474 730 CURVE SMOOTH",
"290 730 OFFCURVE",
"92 518 OFFCURVE",
"92 248 CURVE SMOOTH"
);
}
);
width = 710;
}
);
leftKerningGroup = O;
note = Ocircumflex;
rightKerningGroup = O;
unicode = 00D4;
},
{
color = 4;
glyphname = Otilde;
layers = (
{
layerId = "5B4932CE-A79B-4666-BF39-F6F4657B0F77";
paths = (
{
closed = 1;
nodes = (
"386 808 LINE",
"391 834 OFFCURVE",
"406 850 OFFCURVE",
"430 850 CURVE SMOOTH",
"451 850 OFFCURVE",
"476 842 OFFCURVE",
"502 833 CURVE SMOOTH",
"531 823 OFFCURVE",
"564 812 OFFCURVE",
"592 812 CURVE SMOOTH",
"646 812 OFFCURVE",
"674 857 OFFCURVE",
"678 904 CURVE",
"658 906 LINE",
"653 880 OFFCURVE",
"638 864 OFFCURVE",
"614 864 CURVE SMOOTH",
"593 864 OFFCURVE",
"568 872 OFFCURVE",
"542 881 CURVE SMOOTH",
"513 891 OFFCURVE",
"480 902 OFFCURVE",
"452 902 CURVE SMOOTH",
"398 902 OFFCURVE",
"370 857 OFFCURVE",
"366 810 CURVE"
);
},
{
closed = 1;
nodes = (
"188 227 OFFCURVE",
"190 346 OFFCURVE",
"232 464 CURVE SMOOTH",
"266 559 OFFCURVE",
"338 698 OFFCURVE",
"466 698 CURVE SMOOTH",
"544 698 OFFCURVE",
"590 638 OFFCURVE",
"590 520 CURVE SMOOTH",
"590 485 OFFCURVE",
"588 366 OFFCURVE",
"546 248 CURVE SMOOTH",
"512 153 OFFCURVE",
"440 14 OFFCURVE",
"312 14 CURVE SMOOTH",
"234 14 OFFCURVE",
"188 74 OFFCURVE",
"188 192 CURVE SMOOTH"
);
},
{
closed = 1;
nodes = (
"92 104 OFFCURVE",
"172 -18 OFFCURVE",
"304 -18 CURVE SMOOTH",
"488 -18 OFFCURVE",
"686 192 OFFCURVE",
"686 462 CURVE SMOOTH",
"686 606 OFFCURVE",
"606 730 OFFCURVE",
"474 730 CURVE SMOOTH",
"290 730 OFFCURVE",
"92 518 OFFCURVE",
"92 248 CURVE SMOOTH"
);
}
);
width = 710;
}
);
leftKerningGroup = O;
note = Otilde;
rightKerningGroup = O;
unicode = 00D5;
},
{
color = 4;
glyphname = Odieresis;
layers = (
{
layerId = "5B4932CE-A79B-4666-BF39-F6F4657B0F77";
paths = (
{
closed = 1;
nodes = (
"572 820 OFFCURVE",
"594 798 OFFCURVE",
"624 798 CURVE SMOOTH",
"654 798 OFFCURVE",
"676 820 OFFCURVE",
"676 850 CURVE SMOOTH",
"676 880 OFFCURVE",
"654 902 OFFCURVE",
"624 902 CURVE SMOOTH",
"594 902 OFFCURVE",
"572 880 OFFCURVE",
"572 850 CURVE SMOOTH"
);
},
{
closed = 1;
nodes = (
"368 820 OFFCURVE",
"390 798 OFFCURVE",
"420 798 CURVE SMOOTH",
"450 798 OFFCURVE",
"472 820 OFFCURVE",
"472 850 CURVE SMOOTH",
"472 880 OFFCURVE",
"450 902 OFFCURVE",
"420 902 CURVE SMOOTH",
"390 902 OFFCURVE",
"368 880 OFFCURVE",
"368 850 CURVE SMOOTH"
);
},
{
closed = 1;
nodes = (
"188 227 OFFCURVE",
"190 346 OFFCURVE",
"232 464 CURVE SMOOTH",
"266 559 OFFCURVE",
"338 698 OFFCURVE",
"466 698 CURVE SMOOTH",
"544 698 OFFCURVE",
"590 638 OFFCURVE",
"590 520 CURVE SMOOTH",
"590 485 OFFCURVE",
"588 366 OFFCURVE",
"546 248 CURVE SMOOTH",
"512 153 OFFCURVE",
"440 14 OFFCURVE",
"312 14 CURVE SMOOTH",
"234 14 OFFCURVE",
"188 74 OFFCURVE",
"188 192 CURVE SMOOTH"
);
},
{
closed = 1;
nodes = (
"92 104 OFFCURVE",
"172 -18 OFFCURVE",
"304 -18 CURVE SMOOTH",
"488 -18 OFFCURVE",
"686 192 OFFCURVE",
"686 462 CURVE SMOOTH",
"686 606 OFFCURVE",
"606 730 OFFCURVE",
"474 730 CURVE SMOOTH",
"290 730 OFFCURVE",
"92 518 OFFCURVE",
"92 248 CURVE SMOOTH"
);
}
);
width = 710;
}
);
leftKerningGroup = O;
note = Odieresis;
rightKerningGroup = O;
unicode = 00D6;
},
{
color = 4;
glyphname = multiply;
layers = (
{
layerId = "5B4932CE-A79B-4666-BF39-F6F4657B0F77";
paths = (
{
closed = 1;
nodes = (
"164 -18 LINE",
"196 -50 LINE",
"478 233 LINE",
"760 -50 LINE",
"792 -18 LINE",
"509 264 LINE",
"792 546 LINE",
"760 578 LINE",
"478 295 LINE",
"196 578 LINE",
"164 546 LINE",
"447 264 LINE"
);
}
);
width = 940;
}
);
note = multiply;
unicode = 00D7;
},
{
color = 4;
glyphname = Oslash;
layers = (
{
layerId = "5B4932CE-A79B-4666-BF39-F6F4657B0F77";
paths = (
{
closed = 1;
nodes = (
"44 6 LINE",
"68 -18 LINE",
"145 66 LINE",
"182 14 OFFCURVE",
"236 -18 OFFCURVE",
"304 -18 CURVE SMOOTH",
"488 -18 OFFCURVE",
"686 192 OFFCURVE",
"686 462 CURVE SMOOTH",
"686 518 OFFCURVE",
"674 571 OFFCURVE",
"652 614 CURVE",
"736 706 LINE",
"712 730 LINE",
"633 645 LINE",
"597 697 OFFCURVE",
"542 730 OFFCURVE",
"474 730 CURVE SMOOTH",
"290 730 OFFCURVE",
"92 518 OFFCURVE",
"92 248 CURVE SMOOTH",
"92 192 OFFCURVE",
"104 139 OFFCURVE",
"127 96 CURVE"
);
},
{
closed = 1;
nodes = (
"589 547 LINE",
"590 538 OFFCURVE",
"590 529 OFFCURVE",
"590 520 CURVE SMOOTH",
"590 485 OFFCURVE",
"588 366 OFFCURVE",
"546 248 CURVE SMOOTH",
"512 153 OFFCURVE",
"440 14 OFFCURVE",
"312 14 CURVE SMOOTH",
"252 14 OFFCURVE",
"211 50 OFFCURVE",
"195 120 CURVE"
);
},
{
closed = 1;
nodes = (
"188 227 OFFCURVE",
"190 346 OFFCURVE",
"232 464 CURVE SMOOTH",
"266 559 OFFCURVE",
"338 698 OFFCURVE",
"466 698 CURVE SMOOTH",
"527 698 OFFCURVE",
"568 662 OFFCURVE",
"583 590 CURVE",
"189 163 LINE",
"188 172 OFFCURVE",
"188 182 OFFCURVE",
"188 192 CURVE SMOOTH"
);
}
);
width = 710;
}
);
note = Oslash;
unicode = 00D8;
},
{
color = 4;
glyphname = Ugrave;
layers = (
{
layerId = "5B4932CE-A79B-4666-BF39-F6F4657B0F77";
paths = (
{
closed = 1;
nodes = (
"438 884 OFFCURVE",
"444 869 OFFCURVE",
"453 859 CURVE SMOOTH",
"541 762 LINE",
"556 771 LINE",
"515 893 LINE SMOOTH",
"506 920 OFFCURVE",
"490 930 OFFCURVE",
"473 930 CURVE SMOOTH",
"443 930 OFFCURVE",
"438 905 OFFCURVE",
"438 895 CURVE SMOOTH"
);
},
{
closed = 1;
nodes = (
"130 71 OFFCURVE",
"202 -18 OFFCURVE",
"361 -18 CURVE SMOOTH",
"527 -18 OFFCURVE",
"595 83 OFFCURVE",
"629 208 CURVE SMOOTH",
"733 586 LINE SMOOTH",
"747 639 OFFCURVE",
"782 680 OFFCURVE",
"824 680 CURVE SMOOTH",
"872 680 LINE",
"880 712 LINE",
"610 712 LINE",
"602 680 LINE",
"650 680 LINE SMOOTH",
"691 680 OFFCURVE",
"701 653 OFFCURVE",
"701 630 CURVE SMOOTH",
"701 620 OFFCURVE",
"698 600 OFFCURVE",
"695 588 CURVE SMOOTH",
"588 198 LINE SMOOTH",
"564 108 OFFCURVE",
"500 14 OFFCURVE",
"369 14 CURVE SMOOTH",
"278 14 OFFCURVE",
"214 65 OFFCURVE",
"214 154 CURVE SMOOTH",
"214 172 OFFCURVE",
"218 190 OFFCURVE",
"223 211 CURVE SMOOTH",
"342 653 LINE SMOOTH",
"347 672 OFFCURVE",
"357 680 OFFCURVE",
"376 680 CURVE SMOOTH",
"452 680 LINE",
"460 712 LINE",
"164 712 LINE",
"156 680 LINE",
"232 680 LINE SMOOTH",
"250 680 OFFCURVE",
"256 672 OFFCURVE",
"251 653 CURVE SMOOTH",
"139 238 LINE SMOOTH",
"134 217 OFFCURVE",
"130 195 OFFCURVE",
"130 176 CURVE SMOOTH"
);
}
);
width = 784;
}
);
leftKerningGroup = U;
note = Ugrave;
rightKerningGroup = U;
unicode = 00D9;
},
{
color = 4;
glyphname = Uacute;
layers = (
{
layerId = "5B4932CE-A79B-4666-BF39-F6F4657B0F77";
paths = (
{
closed = 1;
nodes = (
"532 774 LINE",
"544 762 LINE",
"682 849 LINE SMOOTH",
"692 855 OFFCURVE",
"714 869 OFFCURVE",
"714 895 CURVE SMOOTH",
"714 908 OFFCURVE",
"709 924 OFFCURVE",
"686 924 CURVE SMOOTH",
"670 924 OFFCURVE",
"656 918 OFFCURVE",
"638 897 CURVE SMOOTH"
);
},
{
closed = 1;
nodes = (
"130 71 OFFCURVE",
"202 -18 OFFCURVE",
"361 -18 CURVE SMOOTH",
"527 -18 OFFCURVE",
"595 83 OFFCURVE",
"629 208 CURVE SMOOTH",
"733 586 LINE SMOOTH",
"747 639 OFFCURVE",
"782 680 OFFCURVE",
"824 680 CURVE SMOOTH",
"872 680 LINE",
"880 712 LINE",
"610 712 LINE",
"602 680 LINE",
"650 680 LINE SMOOTH",
"691 680 OFFCURVE",
"701 653 OFFCURVE",
"701 630 CURVE SMOOTH",
"701 620 OFFCURVE",
"698 600 OFFCURVE",
"695 588 CURVE SMOOTH",
"588 198 LINE SMOOTH",
"564 108 OFFCURVE",
"500 14 OFFCURVE",
"369 14 CURVE SMOOTH",
"278 14 OFFCURVE",
"214 65 OFFCURVE",
"214 154 CURVE SMOOTH",
"214 172 OFFCURVE",
"218 190 OFFCURVE",
"223 211 CURVE SMOOTH",
"342 653 LINE SMOOTH",
"347 672 OFFCURVE",
"357 680 OFFCURVE",
"376 680 CURVE SMOOTH",
"452 680 LINE",
"460 712 LINE",
"164 712 LINE",
"156 680 LINE",
"232 680 LINE SMOOTH",
"250 680 OFFCURVE",
"256 672 OFFCURVE",
"251 653 CURVE SMOOTH",
"139 238 LINE SMOOTH",
"134 217 OFFCURVE",
"130 195 OFFCURVE",
"130 176 CURVE SMOOTH"
);
}
);
width = 784;
}
);
leftKerningGroup = U;
note = Uacute;
rightKerningGroup = U;
unicode = 00DA;
},
{
color = 4;
glyphname = Ucircumflex;
layers = (
{
layerId = "5B4932CE-A79B-4666-BF39-F6F4657B0F77";
paths = (
{
closed = 1;
nodes = (
"396 762 LINE",
"433 774 OFFCURVE",
"517 820 OFFCURVE",
"570 858 CURVE",
"601 820 OFFCURVE",
"661 774 OFFCURVE",
"692 762 CURVE",
"706 778 LINE",
"647 818 OFFCURVE",
"619 870 OFFCURVE",
"606 920 CURVE",
"566 920 LINE",
"527 870 OFFCURVE",
"471 818 OFFCURVE",
"390 778 CURVE"
);
},
{
closed = 1;
nodes = (
"130 71 OFFCURVE",
"202 -18 OFFCURVE",
"361 -18 CURVE SMOOTH",
"527 -18 OFFCURVE",
"595 83 OFFCURVE",
"629 208 CURVE SMOOTH",
"733 586 LINE SMOOTH",
"747 639 OFFCURVE",
"782 680 OFFCURVE",
"824 680 CURVE SMOOTH",
"872 680 LINE",
"880 712 LINE",
"610 712 LINE",
"602 680 LINE",
"650 680 LINE SMOOTH",
"691 680 OFFCURVE",
"701 653 OFFCURVE",
"701 630 CURVE SMOOTH",
"701 620 OFFCURVE",
"698 600 OFFCURVE",
"695 588 CURVE SMOOTH",
"588 198 LINE SMOOTH",
"564 108 OFFCURVE",
"500 14 OFFCURVE",
"369 14 CURVE SMOOTH",
"278 14 OFFCURVE",
"214 65 OFFCURVE",
"214 154 CURVE SMOOTH",
"214 172 OFFCURVE",
"218 190 OFFCURVE",
"223 211 CURVE SMOOTH",
"342 653 LINE SMOOTH",
"347 672 OFFCURVE",
"357 680 OFFCURVE",
"376 680 CURVE SMOOTH",
"452 680 LINE",
"460 712 LINE",
"164 712 LINE",
"156 680 LINE",
"232 680 LINE SMOOTH",
"250 680 OFFCURVE",
"256 672 OFFCURVE",
"251 653 CURVE SMOOTH",
"139 238 LINE SMOOTH",
"134 217 OFFCURVE",
"130 195 OFFCURVE",
"130 176 CURVE SMOOTH"
);
}
);
width = 784;
}
);
leftKerningGroup = U;
note = Ucircumflex;
rightKerningGroup = U;
unicode = 00DB;
},
{
color = 4;
glyphname = Udieresis;
layers = (
{
layerId = "5B4932CE-A79B-4666-BF39-F6F4657B0F77";
paths = (
{
closed = 1;
nodes = (
"622 820 OFFCURVE",
"644 798 OFFCURVE",
"674 798 CURVE SMOOTH",
"704 798 OFFCURVE",
"726 820 OFFCURVE",
"726 850 CURVE SMOOTH",
"726 880 OFFCURVE",
"704 902 OFFCURVE",
"674 902 CURVE SMOOTH",
"644 902 OFFCURVE",
"622 880 OFFCURVE",
"622 850 CURVE SMOOTH"
);
},
{
closed = 1;
nodes = (
"418 820 OFFCURVE",
"440 798 OFFCURVE",
"470 798 CURVE SMOOTH",
"500 798 OFFCURVE",
"522 820 OFFCURVE",
"522 850 CURVE SMOOTH",
"522 880 OFFCURVE",
"500 902 OFFCURVE",
"470 902 CURVE SMOOTH",
"440 902 OFFCURVE",
"418 880 OFFCURVE",
"418 850 CURVE SMOOTH"
);
},
{
closed = 1;
nodes = (
"130 71 OFFCURVE",
"202 -18 OFFCURVE",
"361 -18 CURVE SMOOTH",
"527 -18 OFFCURVE",
"595 83 OFFCURVE",
"629 208 CURVE SMOOTH",
"733 586 LINE SMOOTH",
"747 639 OFFCURVE",
"782 680 OFFCURVE",
"824 680 CURVE SMOOTH",
"872 680 LINE",
"880 712 LINE",
"610 712 LINE",
"602 680 LINE",
"650 680 LINE SMOOTH",
"691 680 OFFCURVE",
"701 653 OFFCURVE",
"701 630 CURVE SMOOTH",
"701 620 OFFCURVE",
"698 600 OFFCURVE",
"695 588 CURVE SMOOTH",
"588 198 LINE SMOOTH",
"564 108 OFFCURVE",
"500 14 OFFCURVE",
"369 14 CURVE SMOOTH",
"278 14 OFFCURVE",
"214 65 OFFCURVE",
"214 154 CURVE SMOOTH",
"214 172 OFFCURVE",
"218 190 OFFCURVE",
"223 211 CURVE SMOOTH",
"342 653 LINE SMOOTH",
"347 672 OFFCURVE",
"357 680 OFFCURVE",
"376 680 CURVE SMOOTH",
"452 680 LINE",
"460 712 LINE",
"164 712 LINE",
"156 680 LINE",
"232 680 LINE SMOOTH",
"250 680 OFFCURVE",
"256 672 OFFCURVE",
"251 653 CURVE SMOOTH",
"139 238 LINE SMOOTH",
"134 217 OFFCURVE",
"130 195 OFFCURVE",
"130 176 CURVE SMOOTH"
);
}
);
width = 784;
}
);
leftKerningGroup = U;
note = Udieresis;
rightKerningGroup = U;
unicode = 00DC;
},
{
color = 4;
glyphname = Yacute;
layers = (
{
layerId = "5B4932CE-A79B-4666-BF39-F6F4657B0F77";
paths = (
{
closed = 1;
nodes = (
"478 774 LINE",
"490 762 LINE",
"628 849 LINE SMOOTH",
"638 855 OFFCURVE",
"660 869 OFFCURVE",
"660 895 CURVE SMOOTH",
"660 908 OFFCURVE",
"655 924 OFFCURVE",
"632 924 CURVE SMOOTH",
"616 924 OFFCURVE",
"602 918 OFFCURVE",
"584 897 CURVE SMOOTH"
);
},
{
closed = 1;
nodes = (
"106 0 LINE",
"448 0 LINE",
"456 32 LINE",
"356 32 LINE SMOOTH",
"338 32 OFFCURVE",
"332 40 OFFCURVE",
"338 58 CURVE",
"411 329 LINE",
"656 607 LINE SMOOTH",
"683 639 OFFCURVE",
"724 680 OFFCURVE",
"775 680 CURVE SMOOTH",
"822 680 LINE",
"830 712 LINE",
"534 712 LINE",
"526 680 LINE",
"569 680 LINE SMOOTH",
"608 680 OFFCURVE",
"617 661 OFFCURVE",
"617 641 CURVE SMOOTH",
"617 609 OFFCURVE",
"586 575 OFFCURVE",
"567 553 CURVE SMOOTH",
"395 355 LINE",
"329 633 LINE",
"320 654 OFFCURVE",
"337 680 OFFCURVE",
"371 680 CURVE SMOOTH",
"430 680 LINE",
"438 712 LINE",
"122 712 LINE",
"114 680 LINE",
"188 680 LINE SMOOTH",
"215 680 OFFCURVE",
"227 669 OFFCURVE",
"238 636 CURVE",
"317 318 LINE",
"247 58 LINE SMOOTH",
"242 40 OFFCURVE",
"232 32 OFFCURVE",
"214 32 CURVE SMOOTH",
"114 32 LINE"
);
}
);
width = 720;
}
);
leftKerningGroup = Y;
note = Yacute;
rightKerningGroup = Y;
unicode = 00DD;
},
{
color = 4;
glyphname = Thorn;
layers = (
{
layerId = "5B4932CE-A79B-4666-BF39-F6F4657B0F77";
paths = (
{
closed = 1;
nodes = (
"-10 0 LINE",
"322 0 LINE",
"330 32 LINE",
"218 32 LINE SMOOTH",
"198 32 OFFCURVE",
"194 41 OFFCURVE",
"199 59 CURVE SMOOTH",
"236 194 LINE",
"358 194 LINE SMOOTH",
"540 194 OFFCURVE",
"654 302 OFFCURVE",
"654 420 CURVE SMOOTH",
"654 523 OFFCURVE",
"584 584 OFFCURVE",
"488 578 CURVE",
"340 578 LINE",
"360 653 LINE SMOOTH",
"365 672 OFFCURVE",
"373 680 OFFCURVE",
"394 680 CURVE SMOOTH",
"506 680 LINE",
"514 712 LINE",
"183 712 LINE",
"174 680 LINE",
"250 680 LINE SMOOTH",
"268 680 OFFCURVE",
"275 672 OFFCURVE",
"269 653 CURVE",
"108 59 LINE SMOOTH",
"103 41 OFFCURVE",
"93 32 OFFCURVE",
"74 32 CURVE SMOOTH",
"-2 32 LINE"
);
},
{
closed = 1;
nodes = (
"245 226 LINE",
"324 519 LINE SMOOTH",
"329 538 OFFCURVE",
"340 546 OFFCURVE",
"358 546 CURVE SMOOTH",
"466 546 LINE SMOOTH",
"513 546 OFFCURVE",
"558 516 OFFCURVE",
"558 438 CURVE SMOOTH",
"558 390 OFFCURVE",
"544 336 OFFCURVE",
"516 298 CURVE SMOOTH",
"483 253 OFFCURVE",
"430 226 OFFCURVE",
"379 226 CURVE SMOOTH"
);
}
);
width = 678;
}
);
note = Thorn;
unicode = 00DE;
},
{
color = 4;
glyphname = germandbls;
layers = (
{
layerId = "5B4932CE-A79B-4666-BF39-F6F4657B0F77";
paths = (
{
closed = 1;
nodes = (
"-34 -205 LINE",
"32 -205 LINE",
"238 553 LINE SMOOTH",
"270 669 OFFCURVE",
"338 696 OFFCURVE",
"374 696 CURVE SMOOTH",
"423 696 OFFCURVE",
"442 666 OFFCURVE",
"442 607 CURVE SMOOTH",
"442 533 OFFCURVE",
"385 446 OFFCURVE",
"296 446 CURVE SMOOTH",
"258 446 LINE",
"250 418 LINE",
"288 418 LINE SMOOTH",
"344 418 OFFCURVE",
"362 352 OFFCURVE",
"362 270 CURVE SMOOTH",
"362 146 OFFCURVE",
"303 12 OFFCURVE",
"226 12 CURVE SMOOTH",
"199 12 OFFCURVE",
"181 24 OFFCURVE",
"181 43 CURVE SMOOTH",
"181 54 OFFCURVE",
"185 62 OFFCURVE",
"199 66 CURVE SMOOTH",
"232 76 OFFCURVE",
"239 88 OFFCURVE",
"239 108 CURVE SMOOTH",
"239 124 OFFCURVE",
"228 144 OFFCURVE",
"202 144 CURVE SMOOTH",
"150 144 OFFCURVE",
"137 92 OFFCURVE",
"137 66 CURVE SMOOTH",
"137 22 OFFCURVE",
"171 -12 OFFCURVE",
"218 -12 CURVE SMOOTH",
"278 -12 OFFCURVE",
"327 14 OFFCURVE",
"366 64 CURVE SMOOTH",
"412 122 OFFCURVE",
"434 201 OFFCURVE",
"434 254 CURVE SMOOTH",
"434 361 OFFCURVE",
"373 424 OFFCURVE",
"330 430 CURVE",
"331 434 LINE",
"417 446 OFFCURVE",
"506 518 OFFCURVE",
"506 611 CURVE SMOOTH",
"506 663 OFFCURVE",
"480 720 OFFCURVE",
"382 720 CURVE SMOOTH",
"309 720 OFFCURVE",
"202 667 OFFCURVE",
"163 525 CURVE SMOOTH"
);
}
);
width = 480;
}
);
note = germandbls;
unicode = 00DF;
},
{
color = 4;
glyphname = agrave;
layers = (
{
layerId = "5B4932CE-A79B-4666-BF39-F6F4657B0F77";
paths = (
{
closed = 1;
nodes = (
"230 629 OFFCURVE",
"235 615 OFFCURVE",
"244 605 CURVE SMOOTH",
"329 508 LINE",
"346 518 LINE",
"306 637 LINE SMOOTH",
"297 664 OFFCURVE",
"287 676 OFFCURVE",
"266 676 CURVE SMOOTH",
"236 676 OFFCURVE",
"230 650 OFFCURVE",
"230 640 CURVE SMOOTH"
);
},
{
closed = 1;
nodes = (
"42 44 OFFCURVE",
"82 -12 OFFCURVE",
"154 -12 CURVE SMOOTH",
"224 -12 OFFCURVE",
"282 76 OFFCURVE",
"302 119 CURVE",
"305 117 LINE",
"305 117 OFFCURVE",
"304 110 OFFCURVE",
"304 90 CURVE SMOOTH",
"304 50 OFFCURVE",
"310 -12 OFFCURVE",
"362 -12 CURVE SMOOTH",
"430 -12 OFFCURVE",
"481 94 OFFCURVE",
"509 176 CURVE",
"489 182 LINE",
"459 92 OFFCURVE",
"418 22 OFFCURVE",
"380 22 CURVE SMOOTH",
"366 22 OFFCURVE",
"362 32 OFFCURVE",
"362 49 CURVE SMOOTH",
"362 73 OFFCURVE",
"372 113 OFFCURVE",
"376 129 CURVE SMOOTH",
"461 444 LINE",
"395 444 LINE",
"373 366 LINE",
"369 368 LINE",
"354 432 OFFCURVE",
"315 456 OFFCURVE",
"277 456 CURVE SMOOTH",
"211 456 OFFCURVE",
"146 406 OFFCURVE",
"101 335 CURVE SMOOTH",
"77 297 OFFCURVE",
"42 216 OFFCURVE",
"42 125 CURVE SMOOTH"
);
},
{
closed = 1;
nodes = (
"114 157 OFFCURVE",
"137 247 OFFCURVE",
"170 320 CURVE SMOOTH",
"191 366 OFFCURVE",
"231 432 OFFCURVE",
"277 432 CURVE SMOOTH",
"318 432 OFFCURVE",
"344 400 OFFCURVE",
"344 340 CURVE SMOOTH",
"344 292 OFFCURVE",
"320 208 OFFCURVE",
"294 150 CURVE SMOOTH",
"258 70 OFFCURVE",
"211 12 OFFCURVE",
"160 12 CURVE SMOOTH",
"124 12 OFFCURVE",
"114 52 OFFCURVE",
"114 85 CURVE SMOOTH"
);
}
);
width = 536;
}
);
leftKerningGroup = agrave;
note = agrave;
rightKerningGroup = a;
unicode = 00E0;
},
{
color = 4;
glyphname = aacute;
layers = (
{
layerId = "5B4932CE-A79B-4666-BF39-F6F4657B0F77";
paths = (
{
closed = 1;
nodes = (
"308 520 LINE",
"320 508 LINE",
"458 595 LINE SMOOTH",
"469 602 OFFCURVE",
"490 616 OFFCURVE",
"490 641 CURVE SMOOTH",
"490 654 OFFCURVE",
"484 670 OFFCURVE",
"462 670 CURVE SMOOTH",
"446 670 OFFCURVE",
"432 664 OFFCURVE",
"414 643 CURVE SMOOTH"
);
},
{
closed = 1;
nodes = (
"42 44 OFFCURVE",
"82 -12 OFFCURVE",
"154 -12 CURVE SMOOTH",
"224 -12 OFFCURVE",
"282 76 OFFCURVE",
"302 119 CURVE",
"305 117 LINE",
"305 117 OFFCURVE",
"304 110 OFFCURVE",
"304 90 CURVE SMOOTH",
"304 50 OFFCURVE",
"310 -12 OFFCURVE",
"362 -12 CURVE SMOOTH",
"430 -12 OFFCURVE",
"481 94 OFFCURVE",
"509 176 CURVE",
"489 182 LINE",
"459 92 OFFCURVE",
"418 22 OFFCURVE",
"380 22 CURVE SMOOTH",
"366 22 OFFCURVE",
"362 32 OFFCURVE",
"362 49 CURVE SMOOTH",
"362 73 OFFCURVE",
"372 113 OFFCURVE",
"376 129 CURVE SMOOTH",
"461 444 LINE",
"395 444 LINE",
"373 366 LINE",
"369 368 LINE",
"354 432 OFFCURVE",
"315 456 OFFCURVE",
"277 456 CURVE SMOOTH",
"211 456 OFFCURVE",
"146 406 OFFCURVE",
"101 335 CURVE SMOOTH",
"77 297 OFFCURVE",
"42 216 OFFCURVE",
"42 125 CURVE SMOOTH"
);
},
{
closed = 1;
nodes = (
"114 157 OFFCURVE",
"137 247 OFFCURVE",
"170 320 CURVE SMOOTH",
"191 366 OFFCURVE",
"231 432 OFFCURVE",
"277 432 CURVE SMOOTH",
"318 432 OFFCURVE",
"344 400 OFFCURVE",
"344 340 CURVE SMOOTH",
"344 292 OFFCURVE",
"320 208 OFFCURVE",
"294 150 CURVE SMOOTH",
"258 70 OFFCURVE",
"211 12 OFFCURVE",
"160 12 CURVE SMOOTH",
"124 12 OFFCURVE",
"114 52 OFFCURVE",
"114 85 CURVE SMOOTH"
);
}
);
width = 536;
}
);
leftKerningGroup = a;
note = aacute;
rightKerningGroup = a;
unicode = 00E1;
},
{
color = 4;
glyphname = acircumflex;
layers = (
{
layerId = "5B4932CE-A79B-4666-BF39-F6F4657B0F77";
paths = (
{
closed = 1;
nodes = (
"200 508 LINE",
"248 530 OFFCURVE",
"300 562 OFFCURVE",
"347 600 CURVE",
"372 562 OFFCURVE",
"407 530 OFFCURVE",
"444 508 CURVE",
"456 521 LINE",
"403 562 OFFCURVE",
"390 626 OFFCURVE",
"386 672 CURVE",
"346 672 LINE",
"318 626 OFFCURVE",
"271 562 OFFCURVE",
"194 521 CURVE"
);
},
{
closed = 1;
nodes = (
"42 44 OFFCURVE",
"82 -12 OFFCURVE",
"154 -12 CURVE SMOOTH",
"224 -12 OFFCURVE",
"282 76 OFFCURVE",
"302 119 CURVE",
"305 117 LINE",
"305 117 OFFCURVE",
"304 110 OFFCURVE",
"304 90 CURVE SMOOTH",
"304 50 OFFCURVE",
"310 -12 OFFCURVE",
"362 -12 CURVE SMOOTH",
"430 -12 OFFCURVE",
"481 94 OFFCURVE",
"509 176 CURVE",
"489 182 LINE",
"459 92 OFFCURVE",
"418 22 OFFCURVE",
"380 22 CURVE SMOOTH",
"366 22 OFFCURVE",
"362 32 OFFCURVE",
"362 49 CURVE SMOOTH",
"362 73 OFFCURVE",
"372 113 OFFCURVE",
"376 129 CURVE SMOOTH",
"461 444 LINE",
"395 444 LINE",
"373 366 LINE",
"369 368 LINE",
"354 432 OFFCURVE",
"315 456 OFFCURVE",
"277 456 CURVE SMOOTH",
"211 456 OFFCURVE",
"146 406 OFFCURVE",
"101 335 CURVE SMOOTH",
"77 297 OFFCURVE",
"42 216 OFFCURVE",
"42 125 CURVE SMOOTH"
);
},
{
closed = 1;
nodes = (
"114 157 OFFCURVE",
"137 247 OFFCURVE",
"170 320 CURVE SMOOTH",
"191 366 OFFCURVE",
"231 432 OFFCURVE",
"277 432 CURVE SMOOTH",
"318 432 OFFCURVE",
"344 400 OFFCURVE",
"344 340 CURVE SMOOTH",
"344 292 OFFCURVE",
"320 208 OFFCURVE",
"294 150 CURVE SMOOTH",
"258 70 OFFCURVE",
"211 12 OFFCURVE",
"160 12 CURVE SMOOTH",
"124 12 OFFCURVE",
"114 52 OFFCURVE",
"114 85 CURVE SMOOTH"
);
}
);
width = 536;
}
);
leftKerningGroup = agrave;
note = acircumflex;
rightKerningGroup = a;
unicode = 00E2;
},
{
color = 4;
glyphname = atilde;
layers = (
{
layerId = "5B4932CE-A79B-4666-BF39-F6F4657B0F77";
paths = (
{
closed = 1;
nodes = (
"236 556 LINE",
"240 580 OFFCURVE",
"248 596 OFFCURVE",
"272 596 CURVE SMOOTH",
"322 596 OFFCURVE",
"348 556 OFFCURVE",
"410 556 CURVE SMOOTH",
"464 556 OFFCURVE",
"490 602 OFFCURVE",
"490 650 CURVE",
"468 650 LINE",
"464 626 OFFCURVE",
"456 610 OFFCURVE",
"432 610 CURVE SMOOTH",
"382 610 OFFCURVE",
"356 650 OFFCURVE",
"294 650 CURVE SMOOTH",
"240 650 OFFCURVE",
"214 604 OFFCURVE",
"214 556 CURVE"
);
},
{
closed = 1;
nodes = (
"42 44 OFFCURVE",
"82 -12 OFFCURVE",
"154 -12 CURVE SMOOTH",
"224 -12 OFFCURVE",
"282 76 OFFCURVE",
"302 119 CURVE",
"305 117 LINE",
"305 117 OFFCURVE",
"304 110 OFFCURVE",
"304 90 CURVE SMOOTH",
"304 50 OFFCURVE",
"310 -12 OFFCURVE",
"362 -12 CURVE SMOOTH",
"430 -12 OFFCURVE",
"481 94 OFFCURVE",
"509 176 CURVE",
"489 182 LINE",
"459 92 OFFCURVE",
"418 22 OFFCURVE",
"380 22 CURVE SMOOTH",
"366 22 OFFCURVE",
"362 32 OFFCURVE",
"362 49 CURVE SMOOTH",
"362 73 OFFCURVE",
"372 113 OFFCURVE",
"376 129 CURVE SMOOTH",
"461 444 LINE",
"395 444 LINE",
"373 366 LINE",
"369 368 LINE",
"354 432 OFFCURVE",
"315 456 OFFCURVE",
"277 456 CURVE SMOOTH",
"211 456 OFFCURVE",
"146 406 OFFCURVE",
"101 335 CURVE SMOOTH",
"77 297 OFFCURVE",
"42 216 OFFCURVE",
"42 125 CURVE SMOOTH"
);
},
{
closed = 1;
nodes = (
"114 157 OFFCURVE",
"137 247 OFFCURVE",
"170 320 CURVE SMOOTH",
"191 366 OFFCURVE",
"231 432 OFFCURVE",
"277 432 CURVE SMOOTH",
"318 432 OFFCURVE",
"344 400 OFFCURVE",
"344 340 CURVE SMOOTH",
"344 292 OFFCURVE",
"320 208 OFFCURVE",
"294 150 CURVE SMOOTH",
"258 70 OFFCURVE",
"211 12 OFFCURVE",
"160 12 CURVE SMOOTH",
"124 12 OFFCURVE",
"114 52 OFFCURVE",
"114 85 CURVE SMOOTH"
);
}
);
width = 536;
}
);
leftKerningGroup = agrave;
note = atilde;
rightKerningGroup = a;
unicode = 00E3;
},
{
color = 4;
glyphname = adieresis;
layers = (
{
layerId = "5B4932CE-A79B-4666-BF39-F6F4657B0F77";
paths = (
{
closed = 1;
nodes = (
"394 570 OFFCURVE",
"416 548 OFFCURVE",
"442 548 CURVE SMOOTH",
"468 548 OFFCURVE",
"490 570 OFFCURVE",
"490 596 CURVE SMOOTH",
"490 622 OFFCURVE",
"468 644 OFFCURVE",
"442 644 CURVE SMOOTH",
"416 644 OFFCURVE",
"394 622 OFFCURVE",
"394 596 CURVE SMOOTH"
);
},
{
closed = 1;
nodes = (
"206 570 OFFCURVE",
"228 548 OFFCURVE",
"254 548 CURVE SMOOTH",
"280 548 OFFCURVE",
"302 570 OFFCURVE",
"302 596 CURVE SMOOTH",
"302 622 OFFCURVE",
"280 644 OFFCURVE",
"254 644 CURVE SMOOTH",
"228 644 OFFCURVE",
"206 622 OFFCURVE",
"206 596 CURVE SMOOTH"
);
},
{
closed = 1;
nodes = (
"42 44 OFFCURVE",
"82 -12 OFFCURVE",
"154 -12 CURVE SMOOTH",
"224 -12 OFFCURVE",
"282 76 OFFCURVE",
"302 119 CURVE",
"305 117 LINE",
"305 117 OFFCURVE",
"304 110 OFFCURVE",
"304 90 CURVE SMOOTH",
"304 50 OFFCURVE",
"310 -12 OFFCURVE",
"362 -12 CURVE SMOOTH",
"430 -12 OFFCURVE",
"481 94 OFFCURVE",
"509 176 CURVE",
"489 182 LINE",
"459 92 OFFCURVE",
"418 22 OFFCURVE",
"380 22 CURVE SMOOTH",
"366 22 OFFCURVE",
"362 32 OFFCURVE",
"362 49 CURVE SMOOTH",
"362 73 OFFCURVE",
"372 113 OFFCURVE",
"376 129 CURVE SMOOTH",
"461 444 LINE",
"395 444 LINE",
"373 366 LINE",
"369 368 LINE",
"354 432 OFFCURVE",
"315 456 OFFCURVE",
"277 456 CURVE SMOOTH",
"211 456 OFFCURVE",
"146 406 OFFCURVE",
"101 335 CURVE SMOOTH",
"77 297 OFFCURVE",
"42 216 OFFCURVE",
"42 125 CURVE SMOOTH"
);
},
{
closed = 1;
nodes = (
"114 157 OFFCURVE",
"137 247 OFFCURVE",
"170 320 CURVE SMOOTH",
"191 366 OFFCURVE",
"231 432 OFFCURVE",
"277 432 CURVE SMOOTH",
"318 432 OFFCURVE",
"344 400 OFFCURVE",
"344 340 CURVE SMOOTH",
"344 292 OFFCURVE",
"320 208 OFFCURVE",
"294 150 CURVE SMOOTH",
"258 70 OFFCURVE",
"211 12 OFFCURVE",
"160 12 CURVE SMOOTH",
"124 12 OFFCURVE",
"114 52 OFFCURVE",
"114 85 CURVE SMOOTH"
);
}
);
width = 536;
}
);
leftKerningGroup = agrave;
note = adieresis;
rightKerningGroup = a;
unicode = 00E4;
},
{
color = 4;
glyphname = aring;
layers = (
{
layerId = "5B4932CE-A79B-4666-BF39-F6F4657B0F77";
paths = (
{
closed = 1;
nodes = (
"250 544 OFFCURVE",
"293 500 OFFCURVE",
"347 500 CURVE SMOOTH",
"401 500 OFFCURVE",
"444 544 OFFCURVE",
"444 598 CURVE SMOOTH",
"444 652 OFFCURVE",
"401 694 OFFCURVE",
"347 694 CURVE SMOOTH",
"293 694 OFFCURVE",
"250 652 OFFCURVE",
"250 598 CURVE SMOOTH"
);
},
{
closed = 1;
nodes = (
"274 640 OFFCURVE",
"305 670 OFFCURVE",
"347 670 CURVE SMOOTH",
"389 670 OFFCURVE",
"420 640 OFFCURVE",
"420 598 CURVE SMOOTH",
"420 556 OFFCURVE",
"389 524 OFFCURVE",
"347 524 CURVE SMOOTH",
"305 524 OFFCURVE",
"274 556 OFFCURVE",
"274 598 CURVE SMOOTH"
);
},
{
closed = 1;
nodes = (
"42 44 OFFCURVE",
"82 -12 OFFCURVE",
"154 -12 CURVE SMOOTH",
"224 -12 OFFCURVE",
"282 76 OFFCURVE",
"302 119 CURVE",
"305 117 LINE",
"305 117 OFFCURVE",
"304 110 OFFCURVE",
"304 90 CURVE SMOOTH",
"304 50 OFFCURVE",
"310 -12 OFFCURVE",
"362 -12 CURVE SMOOTH",
"430 -12 OFFCURVE",
"481 94 OFFCURVE",
"509 176 CURVE",
"489 182 LINE",
"459 92 OFFCURVE",
"418 22 OFFCURVE",
"380 22 CURVE SMOOTH",
"366 22 OFFCURVE",
"362 32 OFFCURVE",
"362 49 CURVE SMOOTH",
"362 73 OFFCURVE",
"372 113 OFFCURVE",
"376 129 CURVE SMOOTH",
"461 444 LINE",
"395 444 LINE",
"373 366 LINE",
"369 368 LINE",
"354 432 OFFCURVE",
"315 456 OFFCURVE",
"277 456 CURVE SMOOTH",
"211 456 OFFCURVE",
"146 406 OFFCURVE",
"101 335 CURVE SMOOTH",
"77 297 OFFCURVE",
"42 216 OFFCURVE",
"42 125 CURVE SMOOTH"
);
},
{
closed = 1;
nodes = (
"114 157 OFFCURVE",
"137 247 OFFCURVE",
"170 320 CURVE SMOOTH",
"191 366 OFFCURVE",
"231 432 OFFCURVE",
"277 432 CURVE SMOOTH",
"318 432 OFFCURVE",
"344 400 OFFCURVE",
"344 340 CURVE SMOOTH",
"344 292 OFFCURVE",
"320 208 OFFCURVE",
"294 150 CURVE SMOOTH",
"258 70 OFFCURVE",
"211 12 OFFCURVE",
"160 12 CURVE SMOOTH",
"124 12 OFFCURVE",
"114 52 OFFCURVE",
"114 85 CURVE SMOOTH"
);
}
);
width = 536;
}
);
leftKerningGroup = agrave;
note = aring;
rightKerningGroup = a;
unicode = 00E5;
},
{
color = 4;
glyphname = ae;
layers = (
{
layerId = "5B4932CE-A79B-4666-BF39-F6F4657B0F77";
paths = (
{
closed = 1;
nodes = (
"114 157 OFFCURVE",
"137 247 OFFCURVE",
"170 320 CURVE SMOOTH",
"191 366 OFFCURVE",
"231 432 OFFCURVE",
"277 432 CURVE SMOOTH",
"318 432 OFFCURVE",
"344 400 OFFCURVE",
"344 340 CURVE SMOOTH",
"344 292 OFFCURVE",
"320 208 OFFCURVE",
"294 150 CURVE SMOOTH",
"258 70 OFFCURVE",
"211 12 OFFCURVE",
"160 12 CURVE SMOOTH",
"124 12 OFFCURVE",
"114 52 OFFCURVE",
"114 85 CURVE SMOOTH"
);
},
{
closed = 1;
nodes = (
"410 249 OFFCURVE",
"429 296 OFFCURVE",
"436 310 CURVE SMOOTH",
"458 356 OFFCURVE",
"504 432 OFFCURVE",
"564 432 CURVE SMOOTH",
"586 432 OFFCURVE",
"608 421 OFFCURVE",
"608 379 CURVE SMOOTH",
"608 325 OFFCURVE",
"577 283 OFFCURVE",
"537 265 CURVE SMOOTH",
"495 246 OFFCURVE",
"437 242 OFFCURVE",
"408 240 CURVE"
);
},
{
closed = 1;
nodes = (
"42 44 OFFCURVE",
"82 -12 OFFCURVE",
"154 -12 CURVE SMOOTH",
"224 -12 OFFCURVE",
"282 76 OFFCURVE",
"302 119 CURVE",
"305 117 LINE",
"310 78 OFFCURVE",
"327 -12 OFFCURVE",
"452 -12 CURVE SMOOTH",
"524 -12 OFFCURVE",
"604 62 OFFCURVE",
"634 148 CURVE",
"613 155 LINE",
"605 133 OFFCURVE",
"546 12 OFFCURVE",
"457 12 CURVE SMOOTH",
"425 12 OFFCURVE",
"379 22 OFFCURVE",
"379 101 CURVE SMOOTH",
"379 145 OFFCURVE",
"393 189 OFFCURVE",
"402 215 CURVE",
"442 218 OFFCURVE",
"502 224 OFFCURVE",
"556 248 CURVE SMOOTH",
"613 274 OFFCURVE",
"656 316 OFFCURVE",
"656 375 CURVE SMOOTH",
"656 424 OFFCURVE",
"623 456 OFFCURVE",
"575 456 CURVE SMOOTH",
"530 456 OFFCURVE",
"488 428 OFFCURVE",
"446 368 CURVE",
"439 366 LINE",
"461 444 LINE",
"395 444 LINE",
"373 366 LINE",
"369 368 LINE",
"354 432 OFFCURVE",
"315 456 OFFCURVE",
"277 456 CURVE SMOOTH",
"211 456 OFFCURVE",
"146 406 OFFCURVE",
"101 335 CURVE SMOOTH",
"77 297 OFFCURVE",
"42 216 OFFCURVE",
"42 125 CURVE SMOOTH"
);
}
);
width = 684;
}
);
leftKerningGroup = a;
note = ae;
unicode = 00E6;
},
{
color = 4;
glyphname = ccedilla;
layers = (
{
layerId = "5B4932CE-A79B-4666-BF39-F6F4657B0F77";
paths = (
{
closed = 1;
nodes = (
"41 -192 OFFCURVE",
"81 -212 OFFCURVE",
"115 -212 CURVE SMOOTH",
"176 -212 OFFCURVE",
"222 -174 OFFCURVE",
"222 -126 CURVE SMOOTH",
"222 -105 OFFCURVE",
"211 -89 OFFCURVE",
"194 -72 CURVE SMOOTH",
"179 -57 OFFCURVE",
"174 -47 OFFCURVE",
"174 -36 CURVE SMOOTH",
"174 -31 OFFCURVE",
"175 -26 OFFCURVE",
"178 -21 CURVE",
"184 -12 LINE",
"186 -12 LINE SMOOTH",
"269 -12 OFFCURVE",
"338 62 OFFCURVE",
"368 148 CURVE",
"347 155 LINE",
"339 133 OFFCURVE",
"289 12 OFFCURVE",
"191 12 CURVE SMOOTH",
"159 12 OFFCURVE",
"124 34 OFFCURVE",
"124 98 CURVE SMOOTH",
"124 130 OFFCURVE",
"134 211 OFFCURVE",
"150 258 CURVE SMOOTH",
"170 318 OFFCURVE",
"213 432 OFFCURVE",
"286 432 CURVE SMOOTH",
"324 432 OFFCURVE",
"333 410 OFFCURVE",
"333 402 CURVE SMOOTH",
"333 394 OFFCURVE",
"332 384 OFFCURVE",
"322 376 CURVE",
"307 365 OFFCURVE",
"290 348 OFFCURVE",
"290 324 CURVE SMOOTH",
"290 307 OFFCURVE",
"302 286 OFFCURVE",
"329 286 CURVE SMOOTH",
"360 286 OFFCURVE",
"386 316 OFFCURVE",
"386 356 CURVE SMOOTH",
"386 432 OFFCURVE",
"333 456 OFFCURVE",
"290 456 CURVE SMOOTH",
"228 456 OFFCURVE",
"183 426 OFFCURVE",
"140 381 CURVE SMOOTH",
"80 318 OFFCURVE",
"52 235 OFFCURVE",
"52 158 CURVE SMOOTH",
"52 77 OFFCURVE",
"92 6 OFFCURVE",
"159 -9 CURVE",
"157 -13 LINE SMOOTH",
"150 -26 OFFCURVE",
"148 -37 OFFCURVE",
"148 -47 CURVE SMOOTH",
"148 -59 OFFCURVE",
"152 -70 OFFCURVE",
"158 -83 CURVE SMOOTH",
"165 -99 OFFCURVE",
"172 -115 OFFCURVE",
"172 -136 CURVE SMOOTH",
"172 -160 OFFCURVE",
"157 -190 OFFCURVE",
"117 -190 CURVE SMOOTH",
"85 -190 OFFCURVE",
"78 -178 OFFCURVE",
"78 -165 CURVE SMOOTH",
"78 -159 OFFCURVE",
"82 -154 OFFCURVE",
"87 -154 CURVE SMOOTH",
"99 -154 OFFCURVE",
"111 -142 OFFCURVE",
"111 -128 CURVE SMOOTH",
"111 -110 OFFCURVE",
"102 -97 OFFCURVE",
"83 -97 CURVE SMOOTH",
"57 -97 OFFCURVE",
"41 -126 OFFCURVE",
"41 -148 CURVE SMOOTH"
);
}
);
width = 424;
}
);
leftKerningGroup = c;
note = ccedilla;
unicode = 00E7;
},
